hyperblobject.ufo
<glyph name="A" format="2">
	<unicode hex="0041"/>
	<advance width="520"/>
	<outline>
		<contour identifier="ac479c2f-b619-4fa3-aa41-d71e384cdbcb">
			<point x="56.122852" y="-8.889415"/>
			<point x="39.61493" y="-0.46463022"/>
			<point x="27.736809" y="13.342064" type="curve"/>
			<point x="15.8586855" y="27.148758"/>
			<point x="8.334686" y="45.597622"/>
			<point x="4.2278233" y="64.48105" type="curve"/>
			<point x="0.12096071" y="83.36448"/>
			<point x="-0.8928894" y="102.787285"/>
			<point x="-1" y="121" type="curve" smooth="yes" identifier="1b82607f-1891-417d-b359-b64be8bb8b8e"/>
			<point x="-1.4897507" y="204.57333"/>
			<point x="18.533133" y="287.15936"/>
			<point x="46.870716" y="365.7833" type="curve"/>
			<point x="75.2083" y="444.40723"/>
			<point x="111.832085" y="519.7288"/>
			<point x="146" y="596" type="curve" smooth="yes" identifier="db332d3b-0b45-425d-972a-f204341bd438"/>
			<point x="153.73221" y="613.2576"/>
			<point x="161.36725" y="630.6206"/>
			<point x="171.06487" y="646.8554" type="curve"/>
			<point x="180.76247" y="663.0902"/>
			<point x="192.64455" y="678.2665"/>
			<point x="207.6744" y="689.7432" type="curve"/>
			<point x="222.70425" y="701.22003"/>
			<point x="241.09012" y="708.82996"/>
			<point x="260" y="709" type="curve" smooth="yes" identifier="6b4b14bc-857d-4cee-8681-4a8c1d97d952"/>
			<point x="283.31564" y="709.2163"/>
			<point x="310.26917" y="696.9817"/>
			<point x="330.9182" y="675.14215" type="curve"/>
			<point x="351.56726" y="653.3026"/>
			<point x="366.07782" y="623.08075"/>
			<point x="375.919" y="590.86584" type="curve"/>
			<point x="385.76016" y="558.65094"/>
			<point x="391.52414" y="524.29895"/>
			<point x="397.81296" y="490.67917" type="curve"/>
			<point x="404.10175" y="457.05936"/>
			<point x="411.10736" y="424.02313"/>
			<point x="421" y="394" type="curve" smooth="yes" identifier="1a490899-de6c-4c32-b588-1e61dc4f9a3a"/>
			<point x="435.26035" y="350.68427"/>
			<point x="456.11783" y="309.8946"/>
			<point x="474.27454" y="268.06226" type="curve"/>
			<point x="492.43124" y="226.22992"/>
			<point x="508.0865" y="182.50958"/>
			<point x="511" y="137" type="curve" smooth="yes" identifier="fdbe4446-9e77-4fc5-9587-ee29870fd9a8"/>
			<point x="512.4442" y="114.444214"/>
			<point x="510.72958" y="90.94381"/>
			<point x="503.99072" y="68.76383" type="curve"/>
			<point x="497.25186" y="46.583847"/>
			<point x="485.25818" y="25.757877"/>
			<point x="468.43594" y="10.662798" type="curve"/>
			<point x="451.6137" y="-4.432281"/>
			<point x="429.8615" y="-13.358148"/>
			<point x="409" y="-13" type="curve" smooth="yes" identifier="37cc0f5a-bf1f-477d-8969-f1323bf3b221"/>
			<point x="394.31638" y="-12.747872"/>
			<point x="379.92572" y="-8.096032"/>
			<point x="367.0379" y="-1.0549496" type="curve"/>
			<point x="354.1501" y="5.986133"/>
			<point x="342.67053" y="15.362591"/>
			<point x="332.01563" y="25.469305" type="curve"/>
			<point x="321.36072" y="35.57602"/>
			<point x="311.4657" y="46.449528"/>
			<point x="301.17194" y="56.923836" type="curve"/>
			<point x="290.87817" y="67.39815"/>
			<point x="280.1288" y="77.51997"/>
			<point x="268.05222" y="85.87632" type="curve"/>
			<point x="255.97562" y="94.23266"/>
			<point x="242.4829" y="100.80895"/>
			<point x="228.0687" y="103.62034" type="curve"/>
			<point x="213.65451" y="106.43173"/>
			<point x="198.2623" y="105.307465"/>
			<point x="185" y="99" type="curve" smooth="yes" identifier="d4106c30-bc51-474f-bb01-2e7af3fd1aaa"/>
			<point x="175.18661" y="94.33262"/>
			<point x="166.81744" y="87.004974"/>
			<point x="159.80182" y="78.7063" type="curve"/>
			<point x="152.7862" y="70.40763"/>
			<point x="147.042" y="61.122604"/>
			<point x="141.50696" y="51.771126" type="curve"/>
			<point x="135.97191" y="42.419647"/>
			<point x="130.60487" y="32.942513"/>
			<point x="124.24925" y="24.128147" type="curve"/>
			<point x="117.89364" y="15.313783"/>
			<point x="110.4841" y="7.124622"/>
			<point x="101.503975" y="1.0054529" type="curve"/>
			<point x="92.52385" y="-5.113716"/>
			<point x="81.86648" y="-9.081013"/>
			<point x="71" y="-9" type="curve" smooth="yes" identifier="af7326af-d5ac-4c77-b936-dc15ca54a570"/>
		</contour>
		<contour identifier="ab4029d2-53e0-4bf2-9683-f6364259d6f3">
			<point x="-259" y="-223" type="move"/>
			<point x="-259.65216" y="-221.00731"/>
			<point x="-260.14075" y="-218.95694"/>
			<point x="-260.9411" y="-217.019" type="curve"/>
			<point x="-261.74146" y="-215.08107"/>
			<point x="-263.03903" y="-213.278"/>
			<point x="-264.8891" y="-212.29138" type="curve"/>
			<point x="-266.73917" y="-211.30475"/>
			<point x="-268.93594" y="-211.36859"/>
			<point x="-271" y="-211" type="curve" smooth="yes" identifier="52cab68d-5b45-4b33-abcf-865a03f474c5"/>
		</contour>
		<contour identifier="bb37c228-4c7c-4c20-8512-62d01b5f3658">
			<point x="149.25954" y="154.16165"/>
			<point x="165.34651" y="154.68292"/>
			<point x="182.31519" y="162.5081" type="curve"/>
			<point x="199.28387" y="170.33328"/>
			<point x="216.99782" y="184.59032"/>
			<point x="231.49088" y="203.13081" type="curve"/>
			<point x="245.98395" y="221.6713"/>
			<point x="257.21307" y="244.59021"/>
			<point x="262.32846" y="268.26932" type="curve"/>
			<point x="267.44385" y="291.9484"/>
			<point x="266.16174" y="316.17206"/>
			<point x="260" y="336" type="curve" smooth="yes" identifier="26a7b655-4ca4-413d-a93e-57268b08ee40"/>
			<point x="256.7997" y="346.3006"/>
			<point x="252.14297" y="356.23386"/>
			<point x="245.4861" y="364.7209" type="curve"/>
			<point x="238.82922" y="373.20795"/>
			<point x="230.09883" y="380.21088"/>
			<point x="220" y="384" type="curve" smooth="yes" identifier="1282adda-a4ca-4160-a59a-40d595d3a7cb"/>
			<point x="207.25623" y="388.78192"/>
			<point x="192.8278" y="388.21005"/>
			<point x="179.99338" y="383.6771" type="curve"/>
			<point x="167.15894" y="379.14413"/>
			<point x="155.86127" y="370.83847"/>
			<point x="146.63605" y="360.8302" type="curve"/>
			<point x="137.41083" y="350.82193"/>
			<point x="130.16487" y="339.13525"/>
			<point x="124" y="327" type="curve" smooth="yes" identifier="7deac94d-c514-4dbe-ba41-39a63c0b2b05"/>
			<point x="114.46617" y="308.23245"/>
			<point x="106.24039" y="285.7212"/>
			<point x="102.34543" y="262.34677" type="curve"/>
			<point x="98.45048" y="238.97237"/>
			<point x="99.06095" y="214.55788"/>
			<point x="106.07382" y="194.71008" type="curve"/>
			<point x="113.08669" y="174.86229"/>
			<point x="127.464905" y="160.84349"/>
			<point x="140" y="157" type="curve" smooth="yes" identifier="c72f2178-1f15-4bdd-b7ec-1a9ebcce2cf9"/>
		</contour>
	</outline>
</glyph>
<glyph name="B" format="2">
	<unicode hex="0042"/>
	<advance width="500"/>
	<outline>
		<contour identifier="964a01c3-9ec8-4caf-960c-f4c3c6847b39">
			<point x="195.6258" y="-13.247457"/>
			<point x="160.0839" y="-7.2970605"/>
			<point x="127.22356" y="5.8023415" type="curve"/>
			<point x="94.36322" y="18.901743"/>
			<point x="64.24018" y="39.241554"/>
			<point x="40.8569" y="65.78621" type="curve"/>
			<point x="17.473621" y="92.33086"/>
			<point x="0.98103964" y="125.13421"/>
			<point x="-5" y="160" type="curve" smooth="yes" identifier="1481cb8e-e7d7-45d3-9e7c-d13c005c3b92"/>
			<point x="-10.146326" y="189.98482"/>
			<point x="-7.5514617" y="220.82764"/>
			<point x="-1.9908687" y="250.7384" type="curve"/>
			<point x="3.5697246" y="280.64917"/>
			<point x="12.05502" y="309.92987"/>
			<point x="18.796358" y="339.59683" type="curve"/>
			<point x="25.537695" y="369.2638"/>
			<point x="30.553322" y="399.61642"/>
			<point x="29" y="430" type="curve" smooth="yes" identifier="87750600-37d0-4a7e-bcf2-ef9bc735e8bf"/>
			<point x="27.722452" y="455.09735"/>
			<point x="21.991873" y="479.72546"/>
			<point x="16.455736" y="504.2379" type="curve"/>
			<point x="10.919601" y="528.75037"/>
			<point x="5.5322394" y="553.489"/>
			<point x="4.960395" y="578.61237" type="curve"/>
			<point x="4.3885503" y="603.7357"/>
			<point x="8.924187" y="629.54"/>
			<point x="22" y="651" type="curve" smooth="yes" identifier="b214edee-9ba6-4816-ab30-50d44747f86c"/>
			<point x="32.298927" y="667.9083"/>
			<point x="47.567642" y="681.5124"/>
			<point x="64.82462" y="691.21576" type="curve"/>
			<point x="82.081604" y="700.9191"/>
			<point x="101.29058" y="706.83954"/>
			<point x="120.8107" y="710.1446" type="curve"/>
			<point x="140.33081" y="713.4497"/>
			<point x="160.203" y="714.19385"/>
			<point x="180" y="714" type="curve" smooth="yes" identifier="7ebd4473-f9c1-4513-8a8b-1874e34890fd"/>
			<point x="209.23473" y="713.7133"/>
			<point x="238.57011" y="711.3723"/>
			<point x="267.03183" y="704.68787" type="curve"/>
			<point x="295.49356" y="698.00336"/>
			<point x="323.12442" y="686.8733"/>
			<point x="347" y="670" type="curve" smooth="yes" identifier="96a0cf98-bbd8-46d4-8310-bda03d6ec403"/>
			<point x="363.27057" y="658.50116"/>
			<point x="378.04953" y="644.09955"/>
			<point x="388.88324" y="626.9986" type="curve"/>
			<point x="399.71698" y="609.8976"/>
			<point x="406.46396" y="589.9993"/>
			<point x="406.70367" y="570.077" type="curve"/>
			<point x="406.9434" y="550.1547"/>
			<point x="400.39795" y="530.3493"/>
			<point x="388" y="516" type="curve" smooth="yes" identifier="47f7c012-9240-4500-9d0a-8df646865ec7"/>
			<point x="382.10413" y="509.17392"/>
			<point x="374.96454" y="503.55405"/>
			<point x="367.87363" y="497.97955" type="curve"/>
			<point x="360.7827" y="492.40503"/>
			<point x="353.64368" y="486.78427"/>
			<point x="347.74933" y="479.9569" type="curve"/>
			<point x="341.85498" y="473.12955"/>
			<point x="337.21664" y="464.93735"/>
			<point x="336" y="456" type="curve" smooth="yes" identifier="19f190ee-5ea7-48e1-a6dd-fc4e82b5a3b0"/>
			<point x="334.4326" y="444.51434"/>
			<point x="338.7222" y="432.7655"/>
			<point x="345.77078" y="423.56256" type="curve"/>
			<point x="352.8194" y="414.3596"/>
			<point x="362.4276" y="407.4323"/>
			<point x="372.44797" y="401.604" type="curve"/>
			<point x="382.46835" y="395.7757"/>
			<point x="393.0294" y="390.91302"/>
			<point x="403" y="385" type="curve" smooth="yes" identifier="4443180d-24ca-49a8-8f1d-539f15d04954"/>
			<point x="421.4357" y="374.0712"/>
			<point x="437.72137" y="359.57922"/>
			<point x="450.93317" y="342.7043" type="curve"/>
			<point x="464.14496" y="325.8294"/>
			<point x="474.28757" y="306.58847"/>
			<point x="481.0035" y="286.2363" type="curve"/>
			<point x="487.71945" y="265.88416"/>
			<point x="491.01794" y="244.43161"/>
			<point x="491" y="223" type="curve" smooth="yes" identifier="8c61b7f0-eba6-4e10-9b68-abd1b8531ac0"/>
			<point x="490.96378" y="179.70166"/>
			<point x="477.1993" y="136.70512"/>
			<point x="453.19788" y="100.66793" type="curve"/>
			<point x="429.19644" y="64.630745"/>
			<point x="395.16434" y="35.558598"/>
			<point x="356.4102" y="16.248915" type="curve"/>
			<point x="317.65607" y="-3.060767"/>
			<point x="274.2973" y="-12.697015"/>
			<point x="231" y="-13" type="curve" smooth="yes" identifier="7a0f2558-692e-4de3-9ebb-283c820421fd"/>
		</contour>
		<contour identifier="77296f3d-31b6-4efd-b3b3-3a496a38514a">
			<point x="257.34497" y="171.53221"/>
			<point x="265.76166" y="173.65723"/>
			<point x="273.09277" y="177.6712" type="curve"/>
			<point x="280.42392" y="181.68518"/>
			<point x="286.6811" y="187.54523"/>
			<point x="291.51624" y="194.36276" type="curve"/>
			<point x="296.3514" y="201.1803"/>
			<point x="299.7876" y="208.94005"/>
			<point x="302" y="217" type="curve" smooth="yes" identifier="99d94917-5efa-44ad-97ac-d96bdcbeaf5f"/>
			<point x="305.63937" y="230.2578"/>
			<point x="306.18982" y="245.91373"/>
			<point x="302.87103" y="261.17883" type="curve"/>
			<point x="299.55222" y="276.44394"/>
			<point x="292.47845" y="291.22412"/>
			<point x="283.07355" y="303.2249" type="curve"/>
			<point x="273.66867" y="315.22574"/>
			<point x="261.93304" y="324.43994"/>
			<point x="250.35544" y="329.4727" type="curve"/>
			<point x="238.77785" y="334.50543"/>
			<point x="227.49054" y="335.0006"/>
			<point x="220" y="333" type="curve" smooth="yes" identifier="a667a459-faa6-4da7-a141-1ed13649ed21"/>
			<point x="210.16826" y="330.37445"/>
			<point x="201.3657" y="322.67963"/>
			<point x="196.00102" y="312.8813" type="curve"/>
			<point x="190.63634" y="303.08295"/>
			<point x="188.47691" y="291.42572"/>
			<point x="188.34425" y="279.92416" type="curve"/>
			<point x="188.2116" y="268.42258"/>
			<point x="189.96481" y="256.98386"/>
			<point x="192" y="246" type="curve" smooth="yes" identifier="9a624f2f-fb89-49ae-a32a-c99856223510"/>
			<point x="194.04594" y="234.96384"/>
			<point x="196.49577" y="223.94258"/>
			<point x="200.6378" y="213.51059" type="curve"/>
			<point x="204.77983" y="203.0786"/>
			<point x="210.69241" y="193.20169"/>
			<point x="218.91278" y="185.55914" type="curve"/>
			<point x="227.13315" y="177.9166"/>
			<point x="237.79335" y="172.62767"/>
			<point x="249" y="172" type="curve" smooth="yes" identifier="93249290-e005-4078-b9b5-f3cdd9c7f4eb"/>
		</contour>
		<contour identifier="01aa98eb-6590-4479-bee2-fb59df4dd2c2">
			<point x="209.4348" y="535.0349"/>
			<point x="215.89256" y="536.37195"/>
			<point x="221.68425" y="539.1763" type="curve"/>
			<point x="227.47595" y="541.9805"/>
			<point x="232.58156" y="546.2762"/>
			<point x="236.0836" y="551.6747" type="curve"/>
			<point x="239.58565" y="557.0731"/>
			<point x="241.43622" y="563.5799"/>
			<point x="241" y="570" type="curve" smooth="yes" identifier="68de1d2f-0a18-4179-8440-0063efacafa7"/>
			<point x="240.53433" y="576.8536"/>
			<point x="237.2746" y="584.3311"/>
			<point x="231.61136" y="590.1515" type="curve"/>
			<point x="225.94814" y="595.97186"/>
			<point x="217.99309" y="600.0804"/>
			<point x="209.5679" y="601.46423" type="curve"/>
			<point x="201.14273" y="602.84814"/>
			<point x="192.32529" y="601.5056"/>
			<point x="185" y="598" type="curve" smooth="yes" identifier="8ce8faac-c430-4b8d-85ff-c125c8a3c8e9"/>
			<point x="180.77306" y="595.9772"/>
			<point x="176.8964" y="593.20276"/>
			<point x="173.69543" y="589.78033" type="curve"/>
			<point x="170.49448" y="586.358"/>
			<point x="167.97612" y="582.28503"/>
			<point x="166.44492" y="577.85626" type="curve"/>
			<point x="164.91371" y="573.4274"/>
			<point x="164.37921" y="568.6447"/>
			<point x="165" y="564" type="curve" smooth="yes" identifier="564efa10-cc28-4158-a0db-1a64fd7e8e18"/>
			<point x="165.76889" y="558.2471"/>
			<point x="168.30919" y="552.7746"/>
			<point x="172.03406" y="548.3234" type="curve"/>
			<point x="175.75894" y="543.8723"/>
			<point x="180.64178" y="540.43463"/>
			<point x="186.00366" y="538.2125" type="curve"/>
			<point x="191.36552" y="535.9905"/>
			<point x="197.19601" y="534.96857"/>
			<point x="203" y="535" type="curve" smooth="yes" identifier="7a375d09-e077-4e5a-aed0-9612d71af4fe"/>
		</contour>
	</outline>
</glyph>
<glyph name="C" format="2">
	<unicode hex="0043"/>
	<outline>
		<contour identifier="5608cac7-da2c-44ff-971d-6bc0d6045d93">
			<point x="187.54372" y="8.892939"/>
			<point x="138.62032" y="38.248535"/>
			<point x="99.364365" y="87.331116" type="curve"/>
			<point x="60.108418" y="136.41368"/>
			<point x="30.311531" y="203.40529"/>
			<point x="17.716867" y="275.43524" type="curve"/>
			<point x="5.122204" y="347.4652"/>
			<point x="9.872263" y="424.54327"/>
			<point x="32.19633" y="491.44342" type="curve"/>
			<point x="54.520397" y="558.34357"/>
			<point x="94.86818" y="613.7743"/>
			<point x="138" y="648" type="curve" smooth="yes" identifier="3ec9c678-75b1-4830-a1f4-b6ac0810d860"/>
			<point x="164.74667" y="669.2243"/>
			<point x="195.41698" y="685.4659"/>
			<point x="227.95836" y="695.8058" type="curve"/>
			<point x="260.49973" y="706.1456"/>
			<point x="294.89224" y="710.5857"/>
			<point x="329" y="709" type="curve" smooth="yes" identifier="3d6d6d04-02a4-4760-8996-3c3b9eae2892"/>
			<point x="352.19537" y="707.9213"/>
			<point x="375.4021" y="704.0344"/>
			<point x="397.07388" y="695.6964" type="curve"/>
			<point x="418.7457" y="687.35846"/>
			<point x="438.87128" y="674.4388"/>
			<point x="454.12" y="656.92694" type="curve"/>
			<point x="469.3687" y="639.41504"/>
			<point x="479.53662" y="617.1743"/>
			<point x="481" y="594" type="curve" smooth="yes" identifier="2b7103e2-1ef3-42db-8446-61c23a33bad8"/>
			<point x="481.72745" y="582.4816"/>
			<point x="480.31183" y="570.557"/>
			<point x="476.12598" y="559.5891" type="curve"/>
			<point x="471.94012" y="548.6213"/>
			<point x="464.9012" y="538.6525"/>
			<point x="455.64798" y="531.75476" type="curve"/>
			<point x="446.39474" y="524.857"/>
			<point x="434.91708" y="521.19403"/>
			<point x="424" y="522" type="curve" smooth="yes" identifier="f41e06a8-0ca6-47c8-a554-9df37348b41a"/>
			<point x="412.83475" y="522.82434"/>
			<point x="402.3302" y="528.17523"/>
			<point x="393.89935" y="535.54156" type="curve"/>
			<point x="385.4685" y="542.9079"/>
			<point x="378.94226" y="552.2103"/>
			<point x="373.30017" y="561.8803" type="curve"/>
			<point x="367.65805" y="571.5503"/>
			<point x="362.81964" y="581.6703"/>
			<point x="357.22208" y="591.36615" type="curve"/>
			<point x="351.6245" y="601.06195"/>
			<point x="345.18945" y="610.4178"/>
			<point x="336.8611" y="617.89984" type="curve"/>
			<point x="328.53278" y="625.38184"/>
			<point x="318.1433" y="630.91895"/>
			<point x="307" y="632" type="curve" smooth="yes" identifier="947d0782-43a1-4c50-b33c-5d65f6a7d51a"/>
			<point x="289.3692" y="633.71014"/>
			<point x="258.29065" y="620.03577"/>
			<point x="235.19604" y="590.2557" type="curve"/>
			<point x="212.10146" y="560.4755"/>
			<point x="195.19449" y="518.17377"/>
			<point x="187.4604" y="474.51028" type="curve"/>
			<point x="179.72632" y="430.8468"/>
			<point x="181.56621" y="385.72992"/>
			<point x="190" y="349" type="curve" smooth="yes" identifier="1e356055-4e0e-46dc-b50b-4f0b03314aa7"/>
			<point x="194.24644" y="330.5076"/>
			<point x="200.37782" y="312.33417"/>
			<point x="209.68858" y="295.80203" type="curve"/>
			<point x="218.99933" y="279.26993"/>
			<point x="231.59367" y="264.3902"/>
			<point x="247.33061" y="253.79066" type="curve"/>
			<point x="263.06754" y="243.19113"/>
			<point x="282.05032" y="237.04567"/>
			<point x="301" y="238" type="curve" smooth="yes" identifier="3a35395d-a63b-4f43-9e0a-e8572324602c"/>
			<point x="314.9476" y="238.70222"/>
			<point x="328.46207" y="243.15038"/>
			<point x="341.23874" y="248.78825" type="curve"/>
			<point x="354.0154" y="254.42612"/>
			<point x="366.22302" y="261.27454"/>
			<point x="378.8967" y="267.14026" type="curve"/>
			<point x="391.57037" y="273.006"/>
			<point x="404.87512" y="277.92444"/>
			<point x="418.76492" y="279.3745" type="curve"/>
			<point x="432.65472" y="280.8246"/>
			<point x="447.2636" y="278.5688"/>
			<point x="459" y="271" type="curve" smooth="yes" identifier="6f1e5055-4569-4c11-8ad9-0eb1b4f03d22"/>
			<point x="473.4708" y="261.66754"/>
			<point x="486.53873" y="240.03354"/>
			<point x="489.17377" y="213.87505" type="curve"/>
			<point x="491.8088" y="187.71657"/>
			<point x="485.26926" y="158.1411"/>
			<point x="473.11777" y="131.46344" type="curve"/>
			<point x="460.96625" y="104.7858"/>
			<point x="443.38266" y="80.795944"/>
			<point x="425" y="62" type="curve" smooth="yes" identifier="d0418746-541e-4d51-b9d0-390421559f9c"/>
			<point x="408.01483" y="44.632645"/>
			<point x="388.52997" y="29.658106"/>
			<point x="367.11755" y="18.185099" type="curve"/>
			<point x="345.70517" y="6.7120924"/>
			<point x="322.35855" y="-1.2368577"/>
			<point x="298.3122" y="-4.685602" type="curve"/>
			<point x="274.26587" y="-8.134347"/>
			<point x="249.52646" y="-7.0519814"/>
			<point x="226" y="-1" type="curve" smooth="yes" identifier="42471ad0-d5b3-42c0-8c8e-9073aef87701"/>
		</contour>
	</outline>
</glyph>
<glyph name="D" format="2">
	<unicode hex="0044"/>
	<outline>
		<contour identifier="ac674ef9-00b1-46c0-99d7-5cb13fd985f6">
			<point x="179.64615" y="-10.742044"/>
			<point x="150.06609" y="-6.1589127"/>
			<point x="122.6754" y="4.421702" type="curve"/>
			<point x="95.284706" y="15.002316"/>
			<point x="70.129944" y="31.646645"/>
			<point x="50.444664" y="53.43401" type="curve"/>
			<point x="30.759388" y="75.221375"/>
			<point x="16.655897" y="102.18663"/>
			<point x="11" y="131" type="curve" smooth="yes" identifier="e82cb7ae-e649-40c5-94c3-d64f01d82986"/>
			<point x="6.2036414" y="155.42686"/>
			<point x="7.463646" y="180.70409"/>
			<point x="11.3359995" y="205.29437" type="curve"/>
			<point x="15.208352" y="229.88464"/>
			<point x="21.649145" y="253.98393"/>
			<point x="27.236902" y="278.242" type="curve"/>
			<point x="32.824657" y="302.50006"/>
			<point x="37.58366" y="327.11017"/>
			<point x="38" y="352" type="curve" smooth="yes" identifier="f45c51fd-794f-4d6d-aac6-db203eec8a1c"/>
			<point x="38.506313" y="381.92218"/>
			<point x="32.726444" y="411.57355"/>
			<point x="26.22997" y="440.78638" type="curve"/>
			<point x="19.733498" y="469.9992"/>
			<point x="12.47279" y="499.17932"/>
			<point x="9.938948" y="528.99835" type="curve"/>
			<point x="7.4051056" y="558.8173"/>
			<point x="9.822362" y="589.66327"/>
			<point x="22" y="617" type="curve" smooth="yes" identifier="077aba2d-b660-4fed-96a8-a28854ca11a5"/>
			<point x="30.498701" y="636.08514"/>
			<point x="43.60454" y="653.00885"/>
			<point x="59.472363" y="666.5987" type="curve"/>
			<point x="75.34019" y="680.18854"/>
			<point x="93.93052" y="690.4776"/>
			<point x="113.63019" y="697.4342" type="curve"/>
			<point x="133.32985" y="704.3908"/>
			<point x="154.1298" y="708.048"/>
			<point x="175" y="709" type="curve" smooth="yes" identifier="dbb0a8a8-3e29-48c3-aec3-04fa86db9966"/>
			<point x="228.63963" y="711.447"/>
			<point x="282.5368" y="695.8154"/>
			<point x="328.11636" y="667.43054" type="curve"/>
			<point x="373.69592" y="639.04565"/>
			<point x="411.05392" y="598.2582"/>
			<point x="437.8914" y="551.7507" type="curve"/>
			<point x="464.72882" y="505.24313"/>
			<point x="481.23724" y="453.13132"/>
			<point x="489" y="400" type="curve" smooth="yes" identifier="3fe68cd8-c097-4344-8b6c-05048f7ed67c"/>
			<point x="498.01514" y="338.29294"/>
			<point x="495.28668" y="274.363"/>
			<point x="477.31815" y="214.51196" type="curve"/>
			<point x="459.34964" y="154.66093"/>
			<point x="425.7768" y="99.050804"/>
			<point x="378.72668" y="58.120083" type="curve"/>
			<point x="331.6766" y="17.189367"/>
			<point x="270.9584" y="-8.433999"/>
			<point x="209" y="-10" type="curve" smooth="yes" identifier="e617ced6-8836-4cef-8c94-b58f87c4f728"/>
		</contour>
		<contour identifier="c0124fc1-5aa9-432e-9cd6-c3d8443dda91">
			<point x="226.67595" y="422.13272"/>
			<point x="229.91081" y="435.18097"/>
			<point x="229.99242" y="448.16168" type="curve"/>
			<point x="230.07404" y="461.14243"/>
			<point x="227.0736" y="474.05157"/>
			<point x="222" y="486" type="curve" smooth="yes" identifier="8234875c-8e74-4d9a-acb6-8a148634e726"/>
			<point x="216.64442" y="498.6124"/>
			<point x="208.92596" y="510.28906"/>
			<point x="198.94792" y="519.6802" type="curve"/>
			<point x="188.9699" y="529.0713"/>
			<point x="176.69904" y="536.12805"/>
			<point x="163.39027" y="539.3886" type="curve"/>
			<point x="150.08151" y="542.6492"/>
			<point x="135.74867" y="542.0225"/>
			<point x="123" y="537" type="curve" smooth="yes" identifier="60e8483b-7300-41ae-9937-07446615fbc8"/>
			<point x="109.05101" y="531.50464"/>
			<point x="95.562225" y="519.83905"/>
			<point x="87.08383" y="504.203" type="curve"/>
			<point x="78.60543" y="488.56696"/>
			<point x="75.19882" y="469.2151"/>
			<point x="77.93753" y="450.6983" type="curve"/>
			<point x="80.67624" y="432.18152"/>
			<point x="89.5335" y="414.68683"/>
			<point x="102" y="402" type="curve" smooth="yes" identifier="112ead0d-9098-46cd-b50e-10fe9b379471"/>
			<point x="112.62301" y="391.18924"/>
			<point x="126.32579" y="383.23572"/>
			<point x="141.16182" y="379.6928" type="curve"/>
			<point x="155.99785" y="376.14993"/>
			<point x="171.91725" y="377.08063"/>
			<point x="186.03265" y="382.60117" type="curve"/>
			<point x="200.14806" y="388.1217"/>
			<point x="212.35431" y="398.25012"/>
			<point x="220" y="411" type="curve" smooth="yes" identifier="95174783-3717-4f1e-9c27-fa2cb017da52"/>
		</contour>
	</outline>
</glyph>
<glyph name="E" format="2">
	<unicode hex="0045"/>
	<advance width="500"/>
	<outline>
		<contour identifier="1e0cf74e-a64d-4c2e-9c32-79e326ca03a8">
			<point x="399.34546" y="-11.572518"/>
			<point x="380.8646" y="-12.192599"/>
			<point x="362.66986" y="-10.950606" type="curve"/>
			<point x="344.47513" y="-9.708612"/>
			<point x="326.463" y="-6.6388383"/>
			<point x="308.4295" y="-3.9216306" type="curve"/>
			<point x="290.396" y="-1.2044227"/>
			<point x="272.2363" y="1.1686095"/>
			<point x="254" y="1" type="curve" smooth="yes" identifier="2c1d58d2-de63-4e6e-a7d8-17d7e15cff6f"/>
			<point x="234.99979" y="0.8262071"/>
			<point x="216.14438" y="-2.104527"/>
			<point x="197.37743" y="-5.0777526" type="curve"/>
			<point x="178.61047" y="-8.050978"/>
			<point x="159.77788" y="-11.080441"/>
			<point x="140.78055" y="-11.454344" type="curve"/>
			<point x="121.78322" y="-11.828246"/>
			<point x="102.47744" y="-9.455032"/>
			<point x="85" y="-2" type="curve" smooth="yes" identifier="cfb76cdd-4c1d-4083-8590-5cf49fb79775"/>
			<point x="55.760582" y="10.454083"/>
			<point x="31.312735" y="38.326176"/>
			<point x="18.179216" y="71.9956" type="curve"/>
			<point x="5.0456986" y="105.665016"/>
			<point x="2.4406874" y="144.36699"/>
			<point x="5.1871066" y="182.75632" type="curve"/>
			<point x="7.9335256" y="221.14563"/>
			<point x="15.612925" y="259.66168"/>
			<point x="21.546854" y="298.02826" type="curve"/>
			<point x="27.480783" y="336.39484"/>
			<point x="31.52255" y="374.93954"/>
			<point x="29" y="412" type="curve" smooth="yes" identifier="3a498620-7446-41cb-b485-1a1108d68da8"/>
			<point x="27.122175" y="439.83374"/>
			<point x="21.669346" y="467.28418"/>
			<point x="17.757582" y="494.90555" type="curve"/>
			<point x="13.845818" y="522.5269"/>
			<point x="11.480507" y="550.6985"/>
			<point x="15.788859" y="578.26074" type="curve"/>
			<point x="20.097212" y="605.82306"/>
			<point x="31.605745" y="632.9654"/>
			<point x="52" y="652" type="curve" smooth="yes" identifier="446926ec-3460-48df-a1d1-425ecb3f89ff"/>
			<point x="69.80006" y="668.6221"/>
			<point x="93.31102" y="678.136"/>
			<point x="117.234146" y="682.6988" type="curve"/>
			<point x="141.15727" y="687.26154"/>
			<point x="165.69688" y="687.19366"/>
			<point x="190.04796" y="686.7938" type="curve"/>
			<point x="214.39905" y="686.394"/>
			<point x="238.87233" y="685.6848"/>
			<point x="263" y="689" type="curve" smooth="yes" identifier="d72e4388-6c11-4d33-8d98-3c4600afc76c"/>
			<point x="280.9396" y="691.46185"/>
			<point x="298.4921" y="696.1258"/>
			<point x="316.0206" y="700.66907" type="curve"/>
			<point x="333.5491" y="705.2123"/>
			<point x="351.17337" y="709.6579"/>
			<point x="369.16916" y="711.6682" type="curve"/>
			<point x="387.16495" y="713.6785"/>
			<point x="405.65207" y="713.19025"/>
			<point x="423" y="708" type="curve" smooth="yes" identifier="a22e2c57-212f-44b2-9da1-a90824f13904"/>
			<point x="438.11877" y="703.4775"/>
			<point x="452.17395" y="695.37854"/>
			<point x="463.55856" y="684.45056" type="curve"/>
			<point x="474.94315" y="673.5226"/>
			<point x="483.62646" y="659.7742"/>
			<point x="488.45132" y="644.74915" type="curve"/>
			<point x="493.27618" y="629.7241"/>
			<point x="494.21683" y="613.44934"/>
			<point x="491" y="598" type="curve" smooth="yes" identifier="19cef5e8-a118-4c15-997e-78c7cbc851da"/>
			<point x="487.53052" y="581.3372"/>
			<point x="479.20932" y="565.7007"/>
			<point x="467.2565" y="553.58386" type="curve"/>
			<point x="455.30368" y="541.4671"/>
			<point x="439.75378" y="532.924"/>
			<point x="423.0962" y="529.4296" type="curve"/>
			<point x="406.4386" y="525.9352"/>
			<point x="388.7371" y="527.5169"/>
			<point x="373" y="534" type="curve" smooth="yes" identifier="8b259455-6363-4cc3-9535-3516f8ac6e07"/>
			<point x="360.91354" y="538.9768"/>
			<point x="350.16183" y="546.6761"/>
			<point x="339.81143" y="554.65857" type="curve"/>
			<point x="329.46103" y="562.64105"/>
			<point x="319.33685" y="571.0115"/>
			<point x="308.04483" y="577.59485" type="curve"/>
			<point x="296.7528" y="584.1783"/>
			<point x="284.07092" y="588.95715"/>
			<point x="271" y="589" type="curve" smooth="yes" identifier="b50c5dc3-726e-4f35-abec-6fa5d87946cc"/>
			<point x="256.4602" y="589.05035"/>
			<point x="242.202" y="583.1033"/>
			<point x="231.13365" y="573.6746" type="curve"/>
			<point x="220.0653" y="564.246"/>
			<point x="212.07872" y="551.50745"/>
			<point x="207.14821" y="537.82904" type="curve"/>
			<point x="202.2177" y="524.1507"/>
			<point x="200.23955" y="509.5379"/>
			<point x="200" y="495" type="curve" smooth="yes" identifier="386c2797-0bbf-4674-829b-5e54bfeccfd5"/>
			<point x="199.72006" y="477.98398"/>
			<point x="201.79796" y="460.1904"/>
			<point x="207.59564" y="443.53436" type="curve"/>
			<point x="213.39334" y="426.87833"/>
			<point x="223.10483" y="411.39093"/>
			<point x="236.21289" y="400.53726" type="curve"/>
			<point x="249.32095" y="389.6836"/>
			<point x="265.87793" y="383.86603"/>
			<point x="281" y="385" type="curve" smooth="yes" identifier="75fdc2ab-55cb-415f-8b6e-701704f95563"/>
			<point x="293.441" y="385.93286"/>
			<point x="305.21695" y="391.31274"/>
			<point x="315.44348" y="398.4589" type="curve"/>
			<point x="325.66998" y="405.60507"/>
			<point x="334.53302" y="414.49573"/>
			<point x="343.3573" y="423.3151" type="curve"/>
			<point x="352.18158" y="432.1345"/>
			<point x="361.0906" y="440.98648"/>
			<point x="371.38416" y="448.03577" type="curve"/>
			<point x="381.67773" y="455.08502"/>
			<point x="393.54358" y="460.3023"/>
			<point x="406" y="461" type="curve" smooth="yes" identifier="efc3359b-aa4b-4049-bc02-b362f04e8a93"/>
			<point x="418.72162" y="461.7126"/>
			<point x="431.59726" y="457.5704"/>
			<point x="441.9676" y="450.04935" type="curve"/>
			<point x="452.33795" y="442.5283"/>
			<point x="460.2203" y="431.75003"/>
			<point x="464.8943" y="419.79788" type="curve"/>
			<point x="469.56827" y="407.84573"/>
			<point x="471.09793" y="394.76343"/>
			<point x="470" y="382" type="curve" smooth="yes" identifier="f6101e29-6f44-449e-9c38-4e852ad59bec"/>
			<point x="468.97662" y="370.10373"/>
			<point x="465.6816" y="358.3851"/>
			<point x="460.15295" y="347.80194" type="curve"/>
			<point x="454.62433" y="337.2188"/>
			<point x="446.8528" y="327.78738"/>
			<point x="437.38266" y="320.51517" type="curve"/>
			<point x="427.91248" y="313.24298"/>
			<point x="416.7443" y="308.1541"/>
			<point x="405" y="306" type="curve" smooth="yes" identifier="1381da4c-f764-4e84-aef6-34170d8acaea"/>
			<point x="390.7265" y="303.3803"/>
			<point x="375.957" y="305.09256"/>
			<point x="361.8713" y="308.58386" type="curve"/>
			<point x="347.7856" y="312.07516"/>
			<point x="334.20447" y="317.31067"/>
			<point x="320.42526" y="321.86362" type="curve"/>
			<point x="306.64606" y="326.41656"/>
			<point x="292.4959" y="330.31857"/>
			<point x="278" y="331" type="curve" smooth="yes" identifier="256d6e0b-f502-44cf-a269-a9afad65e501"/>
			<point x="257.2004" y="331.9801"/>
			<point x="236.17444" y="326.1064"/>
			<point x="218.74335" y="314.71603" type="curve"/>
			<point x="201.31226" y="303.32562"/>
			<point x="187.53246" y="286.50482"/>
			<point x="179.54152" y="267.2765" type="curve"/>
			<point x="171.55058" y="248.04816"/>
			<point x="169.3436" y="226.49915"/>
			<point x="173" y="206" type="curve" smooth="yes" identifier="eb18374c-3f70-4b1b-904e-5dcba67ba6be"/>
			<point x="175.98088" y="189.28806"/>
			<point x="182.83408" y="173.25023"/>
			<point x="193.0532" y="159.695" type="curve"/>
			<point x="203.27234" y="146.13977"/>
			<point x="216.85863" y="135.10507"/>
			<point x="232.3264" y="128.1106" type="curve"/>
			<point x="247.79419" y="121.11613"/>
			<point x="265.11978" y="118.20203"/>
			<point x="282" y="120" type="curve" smooth="yes" identifier="edcef7af-e361-49b9-9efc-618aadb03d5a"/>
			<point x="299.4177" y="121.85535"/>
			<point x="316.39157" y="128.73598"/>
			<point x="331.7413" y="138.15128" type="curve"/>
			<point x="347.09103" y="147.56659"/>
			<point x="360.9384" y="159.44266"/>
			<point x="374.4967" y="171.39944" type="curve"/>
			<point x="388.05505" y="183.35623"/>
			<point x="401.48325" y="195.46265"/>
			<point x="416.2268" y="205.30452" type="curve"/>
			<point x="430.9704" y="215.1464"/>
			<point x="447.21774" y="222.674"/>
			<point x="464.01352" y="224.99257" type="curve"/>
			<point x="480.8093" y="227.31114"/>
			<point x="498.0996" y="224.05743"/>
			<point x="511" y="215" type="curve" smooth="yes" identifier="ab717d8e-03ad-4dbe-9d44-405aa0b8ab8b"/>
			<point x="521.60504" y="207.55432"/>
			<point x="529.2659" y="196.31888"/>
			<point x="533.4661" y="184.06067" type="curve"/>
			<point x="537.6663" y="171.80246"/>
			<point x="538.53973" y="158.56151"/>
			<point x="537.19836" y="145.6733" type="curve"/>
			<point x="535.857" y="132.78506"/>
			<point x="532.355" y="120.20409"/>
			<point x="528" y="108" type="curve" smooth="yes" identifier="9bf3c8e8-3d5e-4a00-bbc0-0637f85de14a"/>
			<point x="518.6787" y="81.88041"/>
			<point x="505.23032" y="56.99261"/>
			<point x="486.5713" y="36.475307" type="curve"/>
			<point x="467.91223" y="15.958"/>
			<point x="443.8474" y="-0.047627475"/>
			<point x="417" y="-7" type="curve" smooth="yes" identifier="f25619f1-a896-4ffe-8c62-1612e1012c51"/>
		</contour>
	</outline>
</glyph>
<glyph name="F" format="2">
	<unicode hex="0046"/>
	<outline>
		<contour identifier="5c5b2566-65d9-4d36-bf72-4d4de982944e">
			<point x="59.57588" y="0.7153174"/>
			<point x="31.531788" y="30.113815"/>
			<point x="19.234669" y="70.182045" type="curve"/>
			<point x="6.937551" y="110.250275"/>
			<point x="8.784601" y="158.42342"/>
			<point x="16.046207" y="206.86884" type="curve"/>
			<point x="23.307812" y="255.31425"/>
			<point x="35.05675" y="305.0948"/>
			<point x="41.246983" y="354.70728" type="curve"/>
			<point x="47.437214" y="404.31976"/>
			<point x="47.680927" y="453.9019"/>
			<point x="39" y="498" type="curve" smooth="yes" identifier="bb6b861d-22f6-41fc-b9d6-279fcdad3f05"/>
			<point x="34.63093" y="520.2101"/>
			<point x="28.028387" y="541.92194"/>
			<point x="23.236864" y="564.0447" type="curve"/>
			<point x="18.445341" y="586.1675"/>
			<point x="15.471122" y="609.0053"/>
			<point x="18.494242" y="631.43823" type="curve"/>
			<point x="21.517363" y="653.87115"/>
			<point x="31.031466" y="676.01855"/>
			<point x="48" y="691" type="curve" smooth="yes" identifier="e9568f53-7e66-4a92-b247-29309d2411a0"/>
			<point x="63.124046" y="704.3682"/>
			<point x="83.24701" y="711.2312"/>
			<point x="103.37336" y="712.7727" type="curve"/>
			<point x="123.49972" y="714.3143"/>
			<point x="143.72002" y="710.84625"/>
			<point x="163.19063" y="705.5226" type="curve"/>
			<point x="182.66124" y="700.1989"/>
			<point x="201.57135" y="693.0279"/>
			<point x="220.81793" y="686.94385" type="curve"/>
			<point x="240.06451" y="680.85986"/>
			<point x="259.83197" y="675.8349"/>
			<point x="280" y="675" type="curve" smooth="yes" identifier="19d24dfa-518e-489d-8453-dad467a7a09f"/>
			<point x="298.06836" y="674.2426"/>
			<point x="316.10037" y="676.85986"/>
			<point x="333.92096" y="679.93646" type="curve"/>
			<point x="351.74158" y="683.01306"/>
			<point x="369.53625" y="686.56335"/>
			<point x="387.58475" y="687.6999" type="curve"/>
			<point x="405.6332" y="688.8364"/>
			<point x="424.1142" y="687.4737"/>
			<point x="441" y="681" type="curve" smooth="yes" identifier="6cba31c8-75f9-4439-b5dd-bc884c9d29c3"/>
			<point x="456.52908" y="675.04803"/>
			<point x="472.14307" y="663.9349"/>
			<point x="484.34988" y="648.68884" type="curve"/>
			<point x="496.55673" y="633.4429"/>
			<point x="505.3074" y="614.20264"/>
			<point x="508.94028" y="593.9323" type="curve"/>
			<point x="512.5731" y="573.6619"/>
			<point x="511.07608" y="552.43616"/>
			<point x="504.88373" y="533.60986" type="curve"/>
			<point x="498.69138" y="514.7835"/>
			<point x="487.8025" y="498.4959"/>
			<point x="475" y="487" type="curve" smooth="yes" identifier="13f27457-df80-4ee6-80f5-fff70be690c5"/>
			<point x="457.15063" y="470.97125"/>
			<point x="433.6186" y="461.99826"/>
			<point x="409.75375" y="459.55084" type="curve"/>
			<point x="385.88892" y="457.10342"/>
			<point x="361.68015" y="460.89542"/>
			<point x="338.7906" y="468.07797" type="curve"/>
			<point x="315.90106" y="475.26053"/>
			<point x="294.20023" y="485.77188"/>
			<point x="273" y="497" type="curve" smooth="yes" identifier="4a382ea5-6e33-4260-98b6-6937c312ecf3"/>
			<point x="258.50485" y="504.67575"/>
			<point x="244.14822" y="512.72815"/>
			<point x="228.87694" y="518.71265" type="curve"/>
			<point x="213.60567" y="524.69714"/>
			<point x="197.23701" y="528.5854"/>
			<point x="180.86928" y="527.5253" type="curve"/>
			<point x="164.50156" y="526.46533"/>
			<point x="148.09982" y="520.0756"/>
			<point x="137" y="508" type="curve" smooth="yes" identifier="1073e43f-b758-4010-845f-95597773262b"/>
			<point x="129.48967" y="499.831"/>
			<point x="122.87497" y="486.78946"/>
			<point x="120.64984" y="471.30188" type="curve"/>
			<point x="118.424706" y="455.81427"/>
			<point x="120.44108" y="438.14594"/>
			<point x="126.679565" y="421.75455" type="curve"/>
			<point x="132.91806" y="405.36313"/>
			<point x="143.37335" y="390.2857"/>
			<point x="156.10925" y="379.37222" type="curve"/>
			<point x="168.84515" y="368.45874"/>
			<point x="183.79558" y="361.95218"/>
			<point x="197" y="360" type="curve" smooth="yes" identifier="1c43a331-190a-46dc-af44-4491a560ed03"/>
			<point x="210.58534" y="357.9855"/>
			<point x="224.5206" y="360.0484"/>
			<point x="237.67012" y="364.01196" type="curve"/>
			<point x="250.81964" y="367.97556"/>
			<point x="263.31808" y="373.79956"/>
			<point x="275.8183" y="379.48856" type="curve"/>
			<point x="288.3185" y="385.17755"/>
			<point x="300.94083" y="390.77573"/>
			<point x="314.22787" y="394.25052" type="curve"/>
			<point x="327.51492" y="397.7253"/>
			<point x="341.60062" y="399.01266"/>
			<point x="355" y="396" type="curve" smooth="yes" identifier="49f96b97-2bbd-46fb-bf1e-d5eafa9b58fa"/>
			<point x="367.1244" y="393.27948"/>
			<point x="380.44037" y="386.30112"/>
			<point x="391.42883" y="375.50058" type="curve"/>
			<point x="402.41727" y="364.70004"/>
			<point x="411.03302" y="350.28973"/>
			<point x="415.71286" y="334.9627" type="curve"/>
			<point x="420.3927" y="319.63568"/>
			<point x="421.13272" y="303.42822"/>
			<point x="418.1521" y="289.46332" type="curve"/>
			<point x="415.1715" y="275.4984"/>
			<point x="408.35855" y="264.0191"/>
			<point x="401" y="257" type="curve" smooth="yes" identifier="6d489f3b-14ef-4a74-b7d1-ea8dd114d708"/>
			<point x="392.85672" y="249.23268"/>
			<point x="382.15222" y="244.46146"/>
			<point x="371.10162" y="242.33357" type="curve"/>
			<point x="360.051" y="240.20567"/>
			<point x="348.63687" y="240.60548"/>
			<point x="337.4985" y="242.2119" type="curve"/>
			<point x="326.36014" y="243.81831"/>
			<point x="315.43335" y="246.61227"/>
			<point x="304.49863" y="249.27226" type="curve"/>
			<point x="293.56387" y="251.93225"/>
			<point x="282.55844" y="254.4695"/>
			<point x="271.35657" y="255.54749" type="curve"/>
			<point x="260.1547" y="256.62546"/>
			<point x="248.69405" y="256.21014"/>
			<point x="237.89383" y="253.04797" type="curve"/>
			<point x="227.09363" y="249.8858"/>
			<point x="216.96298" y="243.84087"/>
			<point x="210" y="235" type="curve" smooth="yes" identifier="26e68a92-1621-42cb-b0ad-6801a51eb298"/>
			<point x="201.35428" y="224.02725"/>
			<point x="198.15685" y="209.52312"/>
			<point x="198.59026" y="195.56024" type="curve"/>
			<point x="199.02367" y="181.59737"/>
			<point x="202.79712" y="167.97118"/>
			<point x="206.85118" y="154.60278" type="curve"/>
			<point x="210.90524" y="141.23438"/>
			<point x="215.28746" y="127.86423"/>
			<point x="217" y="114" type="curve" smooth="yes" identifier="00e86ae5-1aa5-446d-945e-eb15630bef4e"/>
			<point x="219.14351" y="96.67865"/>
			<point x="217.01363" y="78.00177"/>
			<point x="210.50237" y="60.701" type="curve"/>
			<point x="203.99109" y="43.40023"/>
			<point x="193.13911" y="27.540977"/>
			<point x="179.52934" y="15.338567" type="curve"/>
			<point x="165.91956" y="3.1361558"/>
			<point x="149.59132" y="-5.361784"/>
			<point x="133.20795" y="-9.231877" type="curve"/>
			<point x="116.824585" y="-13.10197"/>
			<point x="100.486374" y="-12.285906"/>
			<point x="87" y="-8" type="curve" smooth="yes" identifier="ba06233a-d31d-48de-880a-83e93b3c6f1e"/>
		</contour>
	</outline>
</glyph>
<glyph name="G" format="2">
	<unicode hex="0047"/>
	<advance width="600"/>
	<outline>
		<contour identifier="e1fa8955-8f75-4466-bcb0-fc912dc07c79">
			<point x="410.34604" y="-14.989994"/>
			<point x="392.27716" y="-12.299691"/>
			<point x="375.58585" y="-5.7080207" type="curve"/>
			<point x="358.89453" y="0.8836497"/>
			<point x="343.6244" y="11.528995"/>
			<point x="332.9812" y="25.613918" type="curve"/>
			<point x="322.338" y="39.69884"/>
			<point x="316.6072" y="57.27927"/>
			<point x="318" y="74" type="curve" smooth="yes" identifier="fac57bfb-7855-4215-9655-f8c42d204d7a"/>
			<point x="318.85016" y="84.2073"/>
			<point x="322.237" y="94.04727"/>
			<point x="326.40353" y="103.404175" type="curve"/>
			<point x="330.57007" y="112.76108"/>
			<point x="335.53403" y="121.7441"/>
			<point x="339.77655" y="131.0668" type="curve"/>
			<point x="344.01907" y="140.3895"/>
			<point x="347.56223" y="150.1599"/>
			<point x="348.66122" y="160.34341" type="curve"/>
			<point x="349.76025" y="170.52692"/>
			<point x="348.26395" y="181.2135"/>
			<point x="343" y="190" type="curve" smooth="yes" identifier="6f95ff90-b64b-4b95-a750-416b9a7115e2"/>
			<point x="338.8687" y="196.89589"/>
			<point x="330.98257" y="204.25697"/>
			<point x="320.48727" y="208.89438" type="curve"/>
			<point x="309.99197" y="213.5318"/>
			<point x="297.16586" y="215.5306"/>
			<point x="284.6433" y="214.45715" type="curve"/>
			<point x="272.1208" y="213.38371"/>
			<point x="259.90088" y="209.24141"/>
			<point x="250.47823" y="202.9652" type="curve"/>
			<point x="241.05559" y="196.689"/>
			<point x="234.72803" y="188.23624"/>
			<point x="232" y="181" type="curve" smooth="yes" identifier="672f37fd-456c-4f13-8aed-f6b662e6d45b"/>
			<point x="229.08688" y="173.28069"/>
			<point x="228.92488" y="164.71144"/>
			<point x="230.47348" y="156.60738" type="curve"/>
			<point x="232.0221" y="148.5033"/>
			<point x="235.21205" y="140.80069"/>
			<point x="238.85762" y="133.39906" type="curve"/>
			<point x="242.50319" y="125.99745"/>
			<point x="246.62195" y="118.8341"/>
			<point x="250.17857" y="111.389336" type="curve"/>
			<point x="253.73521" y="103.94457"/>
			<point x="256.7436" y="96.15448"/>
			<point x="258" y="88" type="curve" smooth="yes" identifier="4ec6a566-e05f-4db2-b6ab-773f6304624b"/>
			<point x="260.40533" y="72.42336"/>
			<point x="256.01755" y="52.561745"/>
			<point x="244.17734" y="35.553886" type="curve"/>
			<point x="232.33713" y="18.546026"/>
			<point x="213.5673" y="4.578051"/>
			<point x="192.49294" y="-2.946502" type="curve"/>
			<point x="171.41856" y="-10.471055"/>
			<point x="148.22006" y="-11.539482"/>
			<point x="128" y="-7" type="curve" smooth="yes" identifier="ccdba141-ea1f-4d41-9cb5-63a111f9dd2f"/>
			<point x="92.875626" y="0.88285536"/>
			<point x="61.618156" y="26.450424"/>
			<point x="41.830963" y="59.054367" type="curve"/>
			<point x="22.04377" y="91.65831"/>
			<point x="12.902983" y="130.5943"/>
			<point x="10.157011" y="169.3492" type="curve"/>
			<point x="7.411039" y="208.1041"/>
			<point x="10.629338" y="247.01068"/>
			<point x="14" y="285" type="curve" smooth="yes" identifier="6f7c492b-2269-4e8c-acf5-a9b043e8573e"/>
			<point x="20.191711" y="354.71768"/>
			<point x="27.555676" y="424.87723"/>
			<point x="48.154892" y="491.76944" type="curve"/>
			<point x="68.754105" y="558.6616"/>
			<point x="103.59282" y="622.761"/>
			<point x="157" y="668" type="curve" smooth="yes" identifier="885c485a-7b8c-464e-90df-993114f5d0cf"/>
			<point x="186.70746" y="693.16455"/>
			<point x="221.57" y="711.9823"/>
			<point x="258.4207" y="724.54474" type="curve"/>
			<point x="295.27136" y="737.1072"/>
			<point x="334.09634" y="743.4858"/>
			<point x="373" y="745" type="curve" smooth="yes" identifier="ce36782d-d663-48ee-bde1-0261443f786b"/>
			<point x="398.80695" y="746.0043"/>
			<point x="424.78885" y="744.8762"/>
			<point x="450.14206" y="739.9547" type="curve"/>
			<point x="475.49527" y="735.03326"/>
			<point x="500.24362" y="726.251"/>
			<point x="522.186" y="712.6297" type="curve"/>
			<point x="544.12836" y="699.0084"/>
			<point x="563.2072" y="680.4355"/>
			<point x="576" y="658" type="curve" smooth="yes" identifier="94d06e62-6dd3-418c-ae03-52a316b81afa"/>
			<point x="586.66376" y="639.302"/>
			<point x="592.8483" y="618.0693"/>
			<point x="593.89276" y="596.5695" type="curve"/>
			<point x="594.93713" y="575.0697"/>
			<point x="590.8396" y="553.3374"/>
			<point x="582.0373" y="533.6943" type="curve"/>
			<point x="573.23505" y="514.0512"/>
			<point x="559.7422" y="496.5289"/>
			<point x="543" y="483" type="curve" smooth="yes" identifier="837e3068-9416-4efd-8ee4-c4eeaf72b1fb"/>
			<point x="534.2861" y="475.95966"/>
			<point x="524.6784" y="469.97635"/>
			<point x="514.33136" y="465.6826" type="curve"/>
			<point x="503.98425" y="461.3888"/>
			<point x="492.8875" y="458.80185"/>
			<point x="481.68814" y="458.53314" type="curve"/>
			<point x="470.48874" y="458.26447"/>
			<point x="459.1897" y="460.34506"/>
			<point x="449" y="465" type="curve" smooth="yes" identifier="c9091483-ecab-4de8-a7d8-c1869b6dd7c9"/>
			<point x="437.58493" y="470.21094"/>
			<point x="427.78946" y="478.5141"/>
			<point x="419.50635" y="487.94003" type="curve"/>
			<point x="411.22324" y="497.36594"/>
			<point x="404.3553" y="507.934"/>
			<point x="397.66095" y="518.54736" type="curve"/>
			<point x="390.9666" y="529.16077"/>
			<point x="384.39456" y="539.88965"/>
			<point x="376.62347" y="549.742" type="curve"/>
			<point x="368.85236" y="559.5943"/>
			<point x="359.79834" y="568.6083"/>
			<point x="349" y="575" type="curve" smooth="yes" identifier="f331d879-ed8b-4b7d-9128-dc238eca9911"/>
			<point x="329.1086" y="586.7814"/>
			<point x="295.78418" y="591.4741"/>
			<point x="261.80865" y="581.41016" type="curve"/>
			<point x="227.83313" y="571.34625"/>
			<point x="193.9184" y="547.88153"/>
			<point x="169.16399" y="517.04913" type="curve"/>
			<point x="144.40958" y="486.2167"/>
			<point x="129.10423" y="448.19623"/>
			<point x="125" y="413" type="curve" smooth="yes" identifier="40909270-e8dc-4b3d-a20f-5378b06f6157"/>
			<point x="122.49998" y="391.55966"/>
			<point x="123.704956" y="369.5597"/>
			<point x="129.85786" y="348.8696" type="curve"/>
			<point x="136.01079" y="328.1795"/>
			<point x="147.22754" y="308.83777"/>
			<point x="163.07477" y="294.18155" type="curve"/>
			<point x="178.92198" y="279.52533"/>
			<point x="199.48476" y="269.74164"/>
			<point x="221" y="268" type="curve" smooth="yes" identifier="92d4dd29-6ce0-48a8-a3a8-c355778ab605"/>
			<point x="240.93604" y="266.378"/>
			<point x="260.99277" y="271.59097"/>
			<point x="279.03485" y="280.2258" type="curve"/>
			<point x="297.0769" y="288.86063"/>
			<point x="313.3142" y="300.81857"/>
			<point x="328.93008" y="313.3174" type="curve"/>
			<point x="344.54596" y="325.81622"/>
			<point x="359.69147" y="338.95108"/>
			<point x="376.1473" y="350.3213" type="curve"/>
			<point x="392.60318" y="361.69147"/>
			<point x="410.54935" y="371.33652"/>
			<point x="430" y="376" type="curve" smooth="yes" identifier="dae813ed-13f4-45f7-9d2c-6d2e2a5912c5"/>
			<point x="459.29984" y="383.0374"/>
			<point x="493.57724" y="378.36603"/>
			<point x="523.4762" y="362.62323" type="curve"/>
			<point x="553.3752" y="346.88043"/>
			<point x="578.6958" y="320.58698"/>
			<point x="595.2873" y="289.75882" type="curve"/>
			<point x="611.8788" y="258.93063"/>
			<point x="619.90216" y="223.79015"/>
			<point x="620" y="190" type="curve" smooth="yes" identifier="d7842ea0-5f45-4f14-b0d7-188a841dd4eb"/>
			<point x="620.1004" y="155.31747"/>
			<point x="611.9774" y="120.55994"/>
			<point x="595.91437" y="89.82124" type="curve"/>
			<point x="579.8513" y="59.082558"/>
			<point x="555.81915" y="32.456245"/>
			<point x="526.51746" y="13.900993" type="curve"/>
			<point x="497.21573" y="-4.654258"/>
			<point x="462.68268" y="-15.019334"/>
			<point x="428" y="-15" type="curve" smooth="yes" identifier="294b03c9-fab5-4005-bf85-0815cbce12ff"/>
		</contour>
	</outline>
</glyph>
<glyph name="H" format="2">
	<unicode hex="0048"/>
	<outline>
		<contour identifier="a9b0da4d-613a-4fce-8489-df41bc89bcfb">
			<point x="150.95071" y="25.655632"/>
			<point x="140.65909" y="15.177072"/>
			<point x="128.42665" y="7.935288" type="curve"/>
			<point x="116.19422" y="0.6935037"/>
			<point x="102.04852" y="-3.2910082"/>
			<point x="87.83425" y="-3.4653506" type="curve"/>
			<point x="73.61998" y="-3.6396933"/>
			<point x="59.37252" y="0.00024622105"/>
			<point x="47" y="7" type="curve" smooth="yes" identifier="45f90f07-75c6-4b6a-a60c-2ec8c3bc73a6"/>
			<point x="25.548052" y="19.136583"/>
			<point x="7.6890244" y="43.50544"/>
			<point x="0.06978522" y="73.03035" type="curve"/>
			<point x="-7.5494537" y="102.55527"/>
			<point x="-5.45958" y="136.35956"/>
			<point x="2.448929" y="169.70892" type="curve"/>
			<point x="10.357438" y="203.05829"/>
			<point x="23.687841" y="236.28079"/>
			<point x="36.57651" y="269.88742" type="curve"/>
			<point x="49.46518" y="303.49405"/>
			<point x="61.83868" y="337.84836"/>
			<point x="68.69092" y="372.83316" type="curve"/>
			<point x="75.54315" y="407.818"/>
			<point x="76.65798" y="443.4308"/>
			<point x="70" y="476" type="curve" smooth="yes" identifier="3bbd1924-53d1-47db-b4ec-8f528ae2f10f"/>
			<point x="66.092" y="495.1218"/>
			<point x="59.553562" y="513.5914"/>
			<point x="52.99611" y="531.9738" type="curve"/>
			<point x="46.438656" y="550.35626"/>
			<point x="39.82223" y="568.792"/>
			<point x="35.7497" y="587.8794" type="curve"/>
			<point x="31.677168" y="606.9668"/>
			<point x="30.204319" y="626.8556"/>
			<point x="34" y="646" type="curve" smooth="yes" identifier="530555af-5b18-475d-9b94-970b49bf3e05"/>
			<point x="36.375504" y="657.98444"/>
			<point x="40.843704" y="669.6292"/>
			<point x="47.76422" y="679.69775" type="curve"/>
			<point x="54.68474" y="689.7663"/>
			<point x="64.11559" y="698.21643"/>
			<point x="75.22764" y="703.2949" type="curve"/>
			<point x="86.33968" y="708.3735"/>
			<point x="99.14634" y="709.9597"/>
			<point x="111" y="707" type="curve" smooth="yes" identifier="6ea4e8dc-ce33-4692-b469-12321fda6b2b"/>
			<point x="126.345215" y="703.17505"/>
			<point x="141.06442" y="691.0023"/>
			<point x="150.3496" y="674.522" type="curve"/>
			<point x="159.63475" y="658.04156"/>
			<point x="163.81544" y="637.83105"/>
			<point x="165.08655" y="617.28436" type="curve"/>
			<point x="166.35765" y="596.7377"/>
			<point x="165.01535" y="575.6552"/>
			<point x="164.52861" y="554.83636" type="curve"/>
			<point x="164.04187" y="534.0175"/>
			<point x="164.51924" y="513.3207"/>
			<point x="168" y="494" type="curve" smooth="yes" identifier="a980ec51-0e0f-46b5-86e2-b9a63820272a"/>
			<point x="170.63704" y="479.33093"/>
			<point x="175.06981" y="464.66028"/>
			<point x="182.38457" y="451.43417" type="curve"/>
			<point x="189.69931" y="438.2081"/>
			<point x="200.03455" y="426.4603"/>
			<point x="212.854" y="418.8579" type="curve"/>
			<point x="225.67348" y="411.2555"/>
			<point x="241.03062" y="408.0639"/>
			<point x="255" y="411" type="curve" smooth="yes" identifier="b3467ca6-388b-4f62-9b44-d0d29258da51"/>
			<point x="267.1059" y="413.54416"/>
			<point x="278.14276" y="420.63354"/>
			<point x="285.9954" y="430.26718" type="curve"/>
			<point x="293.84805" y="439.90082"/>
			<point x="298.55716" y="451.97266"/>
			<point x="299.92117" y="464.3458" type="curve"/>
			<point x="301.28516" y="476.7189"/>
			<point x="299.37164" y="489.36557"/>
			<point x="295" y="501" type="curve" smooth="yes" identifier="b489f8ce-5b18-447b-b860-ca094025244f"/>
			<point x="289.83365" y="514.7685"/>
			<point x="281.34213" y="527.062"/>
			<point x="271.9021" y="538.338" type="curve"/>
			<point x="262.4621" y="549.614"/>
			<point x="252.01599" y="560.0047"/>
			<point x="242.28018" y="571.02637" type="curve"/>
			<point x="232.54437" y="582.048"/>
			<point x="223.4452" y="593.8229"/>
			<point x="217.20058" y="607.137" type="curve"/>
			<point x="210.95593" y="620.4512"/>
			<point x="207.68738" y="635.4771"/>
			<point x="210" y="650" type="curve" smooth="yes" identifier="35325796-1137-487c-87e0-1fdf50b9dbe4"/>
			<point x="212.25986" y="664.23364"/>
			<point x="220.16618" y="678.313"/>
			<point x="231.95969" y="688.65314" type="curve"/>
			<point x="243.75319" y="698.99335"/>
			<point x="259.24445" y="705.5694"/>
			<point x="275.24835" y="707.4049" type="curve"/>
			<point x="291.25226" y="709.2404"/>
			<point x="307.68414" y="706.408"/>
			<point x="322" y="700" type="curve" smooth="yes" identifier="aa9e3b5b-88e3-4b58-b32a-ca070220e8dd"/>
			<point x="338.30472" y="692.7018"/>
			<point x="352.22418" y="680.788"/>
			<point x="363.83157" y="667.20953" type="curve"/>
			<point x="375.439" y="653.63104"/>
			<point x="384.88486" y="638.363"/>
			<point x="394" y="623" type="curve" smooth="yes" identifier="d2493941-5cb8-45e7-a5c3-3c68fff47594"/>
			<point x="434.44855" y="554.82684"/>
			<point x="474.27325" y="475.49374"/>
			<point x="501.11414" y="391.5118" type="curve"/>
			<point x="527.955" y="307.5299"/>
			<point x="540.9477" y="217.73572"/>
			<point x="527.0685" y="139.69064" type="curve"/>
			<point x="513.1893" y="61.64557"/>
			<point x="468.14822" y="-0.7306332"/>
			<point x="421" y="-24" type="curve" smooth="yes" identifier="b8889879-c93c-4e43-a57b-6a02eaad800c"/>
			<point x="395.569" y="-36.550903"/>
			<point x="364.31763" y="-41.817177"/>
			<point x="334.26913" y="-37.399403" type="curve"/>
			<point x="304.2206" y="-32.981632"/>
			<point x="275.6702" y="-18.909578"/>
			<point x="255.53226" y="1.0584908" type="curve"/>
			<point x="235.39432" y="21.02656"/>
			<point x="224.2377" y="46.71096"/>
			<point x="223" y="69" type="curve" smooth="yes" identifier="f02526a2-0c8d-40eb-882e-61565447923d"/>
			<point x="222.07" y="85.64197"/>
			<point x="226.0435" y="102.27062"/>
			<point x="232.32133" y="117.71111" type="curve"/>
			<point x="238.59917" y="133.1516"/>
			<point x="247.14136" y="147.55275"/>
			<point x="255.74348" y="161.82942" type="curve"/>
			<point x="264.3456" y="176.1061"/>
			<point x="273.0697" y="190.37949"/>
			<point x="279.75195" y="205.6493" type="curve"/>
			<point x="286.4342" y="220.91913"/>
			<point x="291.05252" y="237.33215"/>
			<point x="291" y="254" type="curve" smooth="yes" identifier="acec7841-14d5-4ef2-add8-05028357c985"/>
			<point x="290.9628" y="267.2861"/>
			<point x="287.90042" y="280.6021"/>
			<point x="281.7591" y="292.38367" type="curve"/>
			<point x="275.61777" y="304.16525"/>
			<point x="266.3706" y="314.37015"/>
			<point x="255.02982" y="321.29172" type="curve"/>
			<point x="243.68901" y="328.21326"/>
			<point x="230.26309" y="331.78238"/>
			<point x="217" y="331" type="curve" smooth="yes" identifier="f7412e0e-4f6a-4445-96b5-ceb71fef86ac"/>
			<point x="203.1688" y="330.18417"/>
			<point x="189.76913" y="324.668"/>
			<point x="178.87761" y="316.10397" type="curve"/>
			<point x="167.9861" y="307.53992"/>
			<point x="159.56433" y="296.01892"/>
			<point x="153.9803" y="283.33875" type="curve"/>
			<point x="148.39627" y="270.6586"/>
			<point x="145.59496" y="256.84247"/>
			<point x="145" y="243" type="curve" smooth="yes" identifier="20b8306d-f5dc-42a7-9111-051076c69272"/>
			<point x="144.24484" y="225.53258"/>
			<point x="146.94827" y="208.08067"/>
			<point x="150.82288" y="191.03168" type="curve"/>
			<point x="154.69746" y="173.98267"/>
			<point x="159.74489" y="157.22054"/>
			<point x="163.7825" y="140.2094" type="curve"/>
			<point x="167.82011" y="123.19827"/>
			<point x="170.85507" y="105.82265"/>
			<point x="170.60173" y="88.34075" type="curve"/>
			<point x="170.3484" y="70.85885"/>
			<point x="166.67395" y="53.180363"/>
			<point x="158" y="38" type="curve" smooth="yes" identifier="5000fd5b-fd56-4cea-927f-6500ba4c378b"/>
		</contour>
	</outline>
</glyph>
<glyph name="I" format="2">
	<unicode hex="0049"/>
	<advance width="300"/>
	<outline>
		<contour identifier="4fc84c43-406f-4f8b-9bf2-0b877efda088">
			<point x="176.16844" y="-10.34539"/>
			<point x="202.0343" y="-1.8600384"/>
			<point x="223.74472" y="12.764369" type="curve"/>
			<point x="245.45515" y="27.388777"/>
			<point x="262.9755" y="48.066235"/>
			<point x="274.22284" y="71.70335" type="curve"/>
			<point x="285.47018" y="95.34046"/>
			<point x="290.46066" y="121.86415"/>
			<point x="289" y="148" type="curve" smooth="yes" identifier="fa1e90d9-1831-4f5c-be8c-5b6be2565844"/>
			<point x="287.64996" y="172.26543"/>
			<point x="280.8703" y="195.95738"/>
			<point x="271.94547" y="218.56227" type="curve"/>
			<point x="263.02063" y="241.16716"/>
			<point x="251.94586" y="262.84778"/>
			<point x="241.57605" y="284.82733" type="curve"/>
			<point x="231.20625" y="306.8069"/>
			<point x="221.4872" y="329.23453"/>
			<point x="215.47531" y="352.78214" type="curve"/>
			<point x="209.46341" y="376.32977"/>
			<point x="207.25397" y="401.16498"/>
			<point x="212" y="425" type="curve" smooth="yes" identifier="c3087df1-a81e-42ed-a929-de8c00ff2dce"/>
			<point x="215.84387" y="444.3411"/>
			<point x="224.1324" y="462.51215"/>
			<point x="233.37233" y="479.9327" type="curve"/>
			<point x="242.61227" y="497.3533"/>
			<point x="252.88039" y="514.2504"/>
			<point x="261.10608" y="532.1722" type="curve"/>
			<point x="269.3318" y="550.094"/>
			<point x="275.52588" y="569.2864"/>
			<point x="276" y="589" type="curve" smooth="yes" identifier="892c9c62-a1f7-4de2-8ebe-fd7d5a89ac53"/>
			<point x="276.55136" y="611.8163"/>
			<point x="269.23163" y="634.61707"/>
			<point x="256.22366" y="653.3701" type="curve"/>
			<point x="243.21571" y="672.1232"/>
			<point x="224.66766" y="686.83594"/>
			<point x="203.79471" y="696.06665" type="curve"/>
			<point x="182.92175" y="705.2973"/>
			<point x="159.79556" y="709.1171"/>
			<point x="137" y="708" type="curve" smooth="yes" identifier="af86cf7a-18d1-40b4-9a5d-a9e9dc945dc8"/>
			<point x="116.35628" y="706.9882"/>
			<point x="95.81753" y="701.9244"/>
			<point x="77.503654" y="692.3437" type="curve"/>
			<point x="59.18979" y="682.763"/>
			<point x="43.161163" y="668.59375"/>
			<point x="32.21525" y="651.06165" type="curve"/>
			<point x="21.269331" y="633.5296"/>
			<point x="15.549413" y="612.61755"/>
			<point x="17" y="592" type="curve" smooth="yes" identifier="f85ec222-180d-4ac7-a969-8b5cad4cbb26"/>
			<point x="18.537848" y="570.06805"/>
			<point x="27.931688" y="549.361"/>
			<point x="39.75843" y="530.8272" type="curve"/>
			<point x="51.58517" y="512.29333"/>
			<point x="65.900826" y="495.48975"/>
			<point x="78.7049" y="477.61713" type="curve"/>
			<point x="91.50898" y="459.74448"/>
			<point x="102.96555" y="440.4016"/>
			<point x="108" y="419" type="curve" smooth="yes" identifier="0118c5f5-17b5-49d0-a9dc-454ee3b3b437"/>
			<point x="113.6684" y="394.97275"/>
			<point x="110.88125" y="369.51495"/>
			<point x="103.44461" y="345.97485" type="curve"/>
			<point x="96.007965" y="322.43475"/>
			<point x="84.09" y="300.57043"/>
			<point x="71.32585" y="279.4395" type="curve"/>
			<point x="58.561707" y="258.30856"/>
			<point x="44.8605" y="237.70811"/>
			<point x="33.449207" y="215.81696" type="curve"/>
			<point x="22.037914" y="193.9258"/>
			<point x="12.891107" y="170.51697"/>
			<point x="10" y="146" type="curve" smooth="yes" identifier="84151406-bc91-4f49-b938-37ccc05304f3"/>
			<point x="6.8860188" y="119.68556"/>
			<point x="11.208099" y="92.50867"/>
			<point x="22.488567" y="68.53164" type="curve"/>
			<point x="33.769035" y="44.55462"/>
			<point x="51.99057" y="23.866423"/>
			<point x="74.44326" y="9.794348" type="curve"/>
			<point x="96.89595" y="-4.277727"/>
			<point x="123.51024" y="-11.662651"/>
			<point x="150" y="-11" type="curve" smooth="yes" identifier="cc154c45-7a65-4360-b43c-48b9026417e4"/>
		</contour>
	</outline>
</glyph>
<glyph name="J" format="2">
	<unicode hex="004A"/>
	<advance width="400"/>
	<outline>
		<contour identifier="da5557eb-1a4a-4b04-9fd8-aceb66a69776">
			<point x="140.75931" y="-8.418356"/>
			<point x="103.96341" y="6.9637804"/>
			<point x="75.07883" y="34.98342" type="curve"/>
			<point x="46.194252" y="63.003063"/>
			<point x="25.52018" y="102.97379"/>
			<point x="18.717278" y="145.32712" type="curve"/>
			<point x="11.914374" y="187.68044"/>
			<point x="19.064821" y="231.97572"/>
			<point x="37" y="268" type="curve" smooth="yes" identifier="3c2f9397-0507-4b2c-86f3-28be938d9abb"/>
			<point x="45.38383" y="284.8394"/>
			<point x="56.636868" y="301.19873"/>
			<point x="70.98793" y="314.44278" type="curve"/>
			<point x="85.33899" y="327.68683"/>
			<point x="102.95321" y="337.67987"/>
			<point x="121.40193" y="341.3538" type="curve"/>
			<point x="139.85066" y="345.02774"/>
			<point x="158.9617" y="341.96893"/>
			<point x="173" y="333" type="curve" smooth="yes" identifier="36a6af7d-f3fe-4151-8942-c6649f362b93"/>
			<point x="179.6877" y="328.72894"/>
			<point x="185.41402" y="323.13754"/>
			<point x="191.04642" y="317.54797" type="curve"/>
			<point x="196.67882" y="311.9584"/>
			<point x="202.31415" y="306.29135"/>
			<point x="208.87468" y="301.8274" type="curve"/>
			<point x="215.43521" y="297.36346"/>
			<point x="223.06583" y="294.12698"/>
			<point x="231" y="294" type="curve" smooth="yes" identifier="07a4663d-0886-4730-a96d-17914b607348"/>
			<point x="242.87408" y="293.80814"/>
			<point x="259.24213" y="302.4325"/>
			<point x="270.4416" y="318.22476" type="curve"/>
			<point x="281.64108" y="334.017"/>
			<point x="288.33957" y="355.44968"/>
			<point x="291.49435" y="377.07608" type="curve"/>
			<point x="294.64914" y="398.70245"/>
			<point x="294.52985" y="420.70016"/>
			<point x="293" y="440" type="curve" smooth="yes" identifier="9324ae14-f778-4ee2-b092-08ed483758db"/>
			<point x="291.2158" y="462.5103"/>
			<point x="287.1078" y="486.5164"/>
			<point x="278.69952" y="509.11282" type="curve"/>
			<point x="270.29126" y="531.7093"/>
			<point x="257.21432" y="552.91345"/>
			<point x="239.86916" y="567.37177" type="curve"/>
			<point x="222.52399" y="581.83"/>
			<point x="200.80437" y="588.6004"/>
			<point x="183" y="586" type="curve" smooth="yes" identifier="f6c0bdf9-ecb9-4e22-a012-6927d344f144"/>
			<point x="173.30495" y="584.5874"/>
			<point x="164.13142" y="580.6135"/>
			<point x="155.70346" y="575.6176" type="curve"/>
			<point x="147.2755" y="570.6217"/>
			<point x="139.51025" y="564.6002"/>
			<point x="131.67162" y="558.7227" type="curve"/>
			<point x="123.83298" y="552.8452"/>
			<point x="115.85528" y="547.06964"/>
			<point x="107.118256" y="542.63635" type="curve"/>
			<point x="98.38123" y="538.20306"/>
			<point x="88.79652" y="535.1335"/>
			<point x="79" y="535" type="curve" smooth="yes" identifier="4486faab-1f19-4c88-8b33-0e8095d54391"/>
			<point x="67.75497" y="534.84296"/>
			<point x="56.57474" y="538.6364"/>
			<point x="47.42081" y="545.16943" type="curve"/>
			<point x="38.26688" y="551.7025"/>
			<point x="31.122696" y="560.8945"/>
			<point x="26.540922" y="571.1649" type="curve"/>
			<point x="21.95915" y="581.4354"/>
			<point x="19.896343" y="592.75433"/>
			<point x="20" y="604" type="curve" smooth="yes" identifier="10d7b20a-fd4d-4248-98cd-35e18ce3ed6d"/>
			<point x="20.189014" y="624.50806"/>
			<point x="27.613564" y="644.7165"/>
			<point x="39.901447" y="661.1367" type="curve"/>
			<point x="52.189327" y="677.55695"/>
			<point x="69.18976" y="690.2328"/>
			<point x="88.02724" y="698.3424" type="curve"/>
			<point x="106.864716" y="706.45197"/>
			<point x="127.49123" y="710.0806"/>
			<point x="148" y="710" type="curve" smooth="yes" identifier="510f141c-e5d4-4596-b783-7462a3ddd335"/>
			<point x="199.11005" y="709.8001"/>
			<point x="251.20338" y="685.87115"/>
			<point x="290.46692" y="647.76544" type="curve"/>
			<point x="329.73047" y="609.6597"/>
			<point x="356.6565" y="558.5016"/>
			<point x="372.16434" y="504.77933" type="curve"/>
			<point x="387.6722" y="451.05707"/>
			<point x="392.38635" y="394.71307"/>
			<point x="392" y="340" type="curve" smooth="yes" identifier="8b668d00-87f2-46ee-8fb8-1f9516e131af"/>
			<point x="391.63873" y="289.09824"/>
			<point x="386.9277" y="234.7085"/>
			<point x="372.6079" y="182.54256" type="curve"/>
			<point x="358.28815" y="130.37663"/>
			<point x="333.51932" y="80.29689"/>
			<point x="297.63525" y="44.19354" type="curve"/>
			<point x="261.75116" y="8.090193"/>
			<point x="214.27551" y="-12.025357"/>
			<point x="173" y="-10" type="curve" smooth="yes" identifier="672baec9-34de-483c-9e18-1a03a6d2a6d4"/>
		</contour>
	</outline>
</glyph>
<glyph name="K" format="2">
	<unicode hex="004B"/>
	<outline>
		<contour identifier="443b2793-d8cf-4471-b034-2708bbeb5224">
			<point x="145.72319" y="-7.0634823"/>
			<point x="125.21751" y="1.2439975"/>
			<point x="107.88798" y="13.739594" type="curve"/>
			<point x="90.55846" y="26.235191"/>
			<point x="76.35284" y="42.823402"/>
			<point x="65.63532" y="61.305485" type="curve"/>
			<point x="54.917812" y="79.78757"/>
			<point x="47.626926" y="100.142296"/>
			<point x="43" y="121" type="curve" smooth="yes" identifier="71f9a625-f5b0-4f38-b816-282cc4f83496"/>
			<point x="32.51921" y="168.21265"/>
			<point x="35.619373" y="217.44632"/>
			<point x="43.07294" y="265.23047" type="curve"/>
			<point x="50.526505" y="313.01462"/>
			<point x="62.258392" y="360.07336"/>
			<point x="69.030495" y="407.95883" type="curve"/>
			<point x="75.8026" y="455.8443"/>
			<point x="77.48837" y="505.27826"/>
			<point x="65" y="552" type="curve" smooth="yes" identifier="9021e4d9-82bf-482c-abf4-f7c52e513ab0"/>
			<point x="60.582325" y="568.5418"/>
			<point x="54.437984" y="584.56146"/>
			<point x="48.891655" y="600.75977" type="curve"/>
			<point x="43.34533" y="616.9581"/>
			<point x="38.36633" y="633.4694"/>
			<point x="36.399868" y="650.47766" type="curve"/>
			<point x="34.433407" y="667.48596"/>
			<point x="35.59562" y="685.12134"/>
			<point x="42" y="701" type="curve" smooth="yes" identifier="c96c0db6-1f16-47c7-8d88-dbd87d9f2cc1"/>
			<point x="47.099277" y="713.64514"/>
			<point x="55.926617" y="725.8192"/>
			<point x="67.559166" y="735.3099" type="curve"/>
			<point x="79.19172" y="744.80054"/>
			<point x="93.5616" y="751.573"/>
			<point x="108.5985" y="754.54846" type="curve"/>
			<point x="123.6354" y="757.5239"/>
			<point x="139.28685" y="756.6898"/>
			<point x="153.21964" y="752.3903" type="curve"/>
			<point x="167.15242" y="748.0908"/>
			<point x="179.28078" y="740.3311"/>
			<point x="188" y="731" type="curve" smooth="yes" identifier="15bca9a9-6c90-4509-83dc-f6c8c4e7d801"/>
			<point x="202.22798" y="715.774"/>
			<point x="209.2531" y="694.88776"/>
			<point x="211.02742" y="674.1243" type="curve"/>
			<point x="212.80174" y="653.36096"/>
			<point x="209.72656" y="632.5032"/>
			<point x="206" y="612" type="curve" smooth="yes" identifier="dc0e7086-fc15-44bf-b4c1-3a00d8704ca4"/>
			<point x="203.93845" y="600.6573"/>
			<point x="201.66704" y="589.2639"/>
			<point x="201.70465" y="577.7354" type="curve"/>
			<point x="201.74226" y="566.207"/>
			<point x="204.26965" y="554.36"/>
			<point x="211" y="545" type="curve" smooth="yes" identifier="82f0c89f-6400-4982-9bce-a0eb77fd2b96"/>
			<point x="217.1796" y="536.4056"/>
			<point x="227.66132" y="529.39386"/>
			<point x="239.86873" y="526.5745" type="curve"/>
			<point x="252.07614" y="523.7552"/>
			<point x="265.797" y="525.0633"/>
			<point x="277.97495" y="530.09503" type="curve"/>
			<point x="290.15286" y="535.12683"/>
			<point x="300.72595" y="543.79913"/>
			<point x="308" y="554" type="curve" smooth="yes" identifier="186608a0-a4c5-44e6-b790-beb12352fae0"/>
			<point x="315.01248" y="563.82794"/>
			<point x="319.34952" y="575.3545"/>
			<point x="322.11844" y="587.10596" type="curve"/>
			<point x="324.88736" y="598.85736"/>
			<point x="326.1525" y="610.90216"/>
			<point x="327.5016" y="622.8998" type="curve"/>
			<point x="328.85068" y="634.8974"/>
			<point x="330.2991" y="646.9338"/>
			<point x="333.41992" y="658.5967" type="curve"/>
			<point x="336.54077" y="670.2596"/>
			<point x="341.40976" y="681.6111"/>
			<point x="349" y="691" type="curve" smooth="yes" identifier="dd607f21-941b-48e5-98b1-639fed7be393"/>
			<point x="357.23965" y="701.1983"/>
			<point x="368.56787" y="708.8096"/>
			<point x="381.0277" y="712.8899" type="curve"/>
			<point x="393.48758" y="716.97015"/>
			<point x="407.03226" y="717.54535"/>
			<point x="419.86356" y="714.85187" type="curve"/>
			<point x="432.69482" y="712.1584"/>
			<point x="444.79626" y="706.2329"/>
			<point x="455" y="698" type="curve" smooth="yes" identifier="07b13272-8504-452b-84a9-61900367ad9c"/>
			<point x="473.4956" y="683.0768"/>
			<point x="488.10034" y="657.67194"/>
			<point x="492.37888" y="628.59216" type="curve"/>
			<point x="496.6574" y="599.5124"/>
			<point x="490.9163" y="567.35474"/>
			<point x="476.8885" y="539.40924" type="curve"/>
			<point x="462.8607" y="511.46375"/>
			<point x="440.76483" y="487.8317"/>
			<point x="416" y="472" type="curve" smooth="yes" identifier="541a9c15-f9d3-4344-9d91-23820aabed21"/>
			<point x="409.0084" y="467.5304"/>
			<point x="401.69263" y="463.57343"/>
			<point x="394.1609" y="460.0902" type="curve"/>
			<point x="386.62912" y="456.607"/>
			<point x="378.88138" y="453.59692"/>
			<point x="371" y="451" type="curve" smooth="yes" identifier="a8e98050-b66c-40f9-b9f8-350dc2309547"/>
			<point x="359.44116" y="447.18994"/>
			<point x="347.59933" y="444.26666"/>
			<point x="336.10648" y="440.26202" type="curve"/>
			<point x="324.6136" y="436.2574"/>
			<point x="313.35443" y="431.08908"/>
			<point x="303.9825" y="423.32443" type="curve"/>
			<point x="294.6106" y="415.55975"/>
			<point x="287.21017" y="404.96823"/>
			<point x="285" y="393" type="curve" smooth="yes" identifier="e2f2b5d1-9336-4b6d-b0cf-dea659b60b53"/>
			<point x="282.43216" y="379.10315"/>
			<point x="287.2834" y="362.5734"/>
			<point x="297.76083" y="349.1954" type="curve"/>
			<point x="308.23828" y="335.8174"/>
			<point x="323.67194" y="325.49313"/>
			<point x="340.28207" y="317.27307" type="curve"/>
			<point x="356.89218" y="309.053"/>
			<point x="374.78183" y="302.57928"/>
			<point x="391.9098" y="294.94366" type="curve"/>
			<point x="409.03775" y="287.30804"/>
			<point x="425.47147" y="278.34003"/>
			<point x="439" y="267" type="curve" smooth="yes" identifier="1e987097-0f06-4a58-adc5-60df64379304"/>
			<point x="458.2009" y="250.9068"/>
			<point x="475.07822" y="226.6721"/>
			<point x="484.4779" y="198.64537" type="curve"/>
			<point x="493.8776" y="170.61864"/>
			<point x="495.954" y="139.2434"/>
			<point x="491.33948" y="110.42214" type="curve"/>
			<point x="486.72498" y="81.6009"/>
			<point x="475.51477" y="55.306488"/>
			<point x="460.9784" y="36.29097" type="curve"/>
			<point x="446.44205" y="17.275455"/>
			<point x="428.3937" y="6.3311405"/>
			<point x="415" y="3" type="curve" smooth="yes" identifier="41154db8-a8e7-44c8-a6d7-8c9a8787ec4c"/>
			<point x="397.56302" y="-1.3359594"/>
			<point x="375.7346" y="3.0013092"/>
			<point x="357.35406" y="15.041079" type="curve"/>
			<point x="338.97357" y="27.080849"/>
			<point x="324.04224" y="45.99814"/>
			<point x="313.58078" y="66.82604" type="curve"/>
			<point x="303.11935" y="87.653946"/>
			<point x="296.79205" y="110.357"/>
			<point x="293" y="132" type="curve" smooth="yes" identifier="2b4bf857-6deb-4b01-a811-2ce3bbb661ec"/>
			<point x="290.49295" y="146.29916"/>
			<point x="288.99216" y="161.83623"/>
			<point x="286.2701" y="177.1777" type="curve"/>
			<point x="283.54807" y="192.51917"/>
			<point x="279.254" y="207.90038"/>
			<point x="271.07565" y="219.89479" type="curve"/>
			<point x="262.8973" y="231.8892"/>
			<point x="250.32188" y="239.70082"/>
			<point x="239" y="240" type="curve" smooth="yes" identifier="ced254d6-0bb9-444c-8185-004cf7a693d2"/>
			<point x="231.41951" y="240.2013"/>
			<point x="223.72787" y="237.35133"/>
			<point x="217.65402" y="232.45103" type="curve"/>
			<point x="211.58017" y="227.55072"/>
			<point x="207.10478" y="220.69681"/>
			<point x="204.54541" y="213.24635" type="curve"/>
			<point x="201.98602" y="205.79588"/>
			<point x="201.28963" y="197.77174"/>
			<point x="202" y="190" type="curve" smooth="yes" identifier="7cfdd8ad-5a43-49e6-af3b-ff472ee5db93"/>
			<point x="203.05989" y="178.36478"/>
			<point x="207.21913" y="167.18591"/>
			<point x="212.68773" y="156.86136" type="curve"/>
			<point x="218.15631" y="146.5368"/>
			<point x="224.93019" y="136.97113"/>
			<point x="231.60349" y="127.381096" type="curve"/>
			<point x="238.27678" y="117.79105"/>
			<point x="244.89505" y="108.1007"/>
			<point x="250.01228" y="97.59757" type="curve"/>
			<point x="255.12952" y="87.09445"/>
			<point x="258.72696" y="75.68021"/>
			<point x="259" y="64" type="curve" smooth="yes" identifier="9a87eeda-69b1-430b-93d0-e388e616d340"/>
			<point x="259.34912" y="49.26436"/>
			<point x="254.27089" y="34.571304"/>
			<point x="245.45686" y="22.75716" type="curve"/>
			<point x="236.64282" y="10.943019"/>
			<point x="224.21455" y="1.9878237"/>
			<point x="210.462" y="-3.3158138" type="curve"/>
			<point x="196.70946" y="-8.6194515"/>
			<point x="181.67911" y="-10.33604"/>
			<point x="167" y="-9" type="curve" smooth="yes" identifier="482db96b-0c64-40cf-b5a1-148147d593d1"/>
		</contour>
	</outline>
</glyph>
<glyph name="L" format="2">
	<unicode hex="004C"/>
	<advance width="400"/>
	<outline>
		<contour identifier="793f881f-343a-4d50-b349-d3377c7fd2c1">
			<point x="161.93575" y="-8.584627"/>
			<point x="135.4693" y="-6.9817767"/>
			<point x="110.39036" y="0.29169086" type="curve"/>
			<point x="85.311424" y="7.5651584"/>
			<point x="61.621197" y="20.72956"/>
			<point x="44" y="40" type="curve" smooth="yes" identifier="8d9f7beb-9476-4b49-bc44-75c06b70abcb"/>
			<point x="29.057386" y="56.34107"/>
			<point x="18.808374" y="76.69246"/>
			<point x="13.11991" y="98.092316" type="curve"/>
			<point x="7.4314466" y="119.492165"/>
			<point x="6.198875" y="141.93037"/>
			<point x="8" y="164" type="curve" smooth="yes" identifier="0e4520a9-df26-4caf-90d8-ece983cfa962"/>
			<point x="10.530373" y="195.10963"/>
			<point x="18.995289" y="225.45038"/>
			<point x="29.207975" y="254.94467" type="curve"/>
			<point x="39.420662" y="284.43896"/>
			<point x="51.41507" y="313.29855"/>
			<point x="61.3388" y="342.89133" type="curve"/>
			<point x="71.26253" y="372.48407"/>
			<point x="79.13927" y="403.02383"/>
			<point x="80.75586" y="434.1943" type="curve"/>
			<point x="82.37245" y="465.36478"/>
			<point x="77.46542" y="497.342"/>
			<point x="63" y="525" type="curve" smooth="yes" identifier="472dc83a-9e10-460f-bf16-8396f857f36f"/>
			<point x="56.87929" y="536.7126"/>
			<point x="49.148335" y="547.49365"/>
			<point x="41.525818" y="558.2893" type="curve"/>
			<point x="33.9033" y="569.0849"/>
			<point x="26.329159" y="579.9947"/>
			<point x="20.565979" y="591.8873" type="curve"/>
			<point x="14.802799" y="603.7799"/>
			<point x="10.880142" y="616.7851"/>
			<point x="11" y="630" type="curve" smooth="yes" identifier="664dce0d-b8b9-4500-b7e6-e8b97df99a87"/>
			<point x="11.144964" y="646.12274"/>
			<point x="17.430258" y="661.9428"/>
			<point x="27.560398" y="674.4865" type="curve"/>
			<point x="37.69054" y="687.0302"/>
			<point x="51.51379" y="696.3663"/>
			<point x="66.56757" y="702.141" type="curve"/>
			<point x="81.62135" y="707.9158"/>
			<point x="97.8781" y="710.22"/>
			<point x="114" y="710" type="curve" smooth="yes" identifier="775f7b85-b41b-4702-adb3-c2a79391ebc8"/>
			<point x="138.88829" y="709.6602"/>
			<point x="163.72124" y="703.29156"/>
			<point x="185.50647" y="691.2522" type="curve"/>
			<point x="207.2917" y="679.2128"/>
			<point x="225.96292" y="661.4909"/>
			<point x="238.77473" y="640.1508" type="curve"/>
			<point x="251.58656" y="618.81067"/>
			<point x="258.46252" y="593.8863"/>
			<point x="258" y="569" type="curve" smooth="yes" identifier="a0b676df-2f40-4b76-a74f-506aefd5f699"/>
			<point x="257.4671" y="540.3292"/>
			<point x="247.39641" y="512.51843"/>
			<point x="233.55386" y="487.40506" type="curve"/>
			<point x="219.71132" y="462.2917"/>
			<point x="202.12898" y="439.47855"/>
			<point x="185.20357" y="416.3306" type="curve"/>
			<point x="168.27817" y="393.18265"/>
			<point x="151.82408" y="369.38422"/>
			<point x="140.62193" y="342.98706" type="curve"/>
			<point x="129.41978" y="316.58994"/>
			<point x="123.68931" y="287.17966"/>
			<point x="129" y="259" type="curve" smooth="yes" identifier="7f62ee30-c350-4cf9-9a29-b545b64c8a90"/>
			<point x="131.26042" y="247.00603"/>
			<point x="135.5192" y="235.33444"/>
			<point x="142.04428" y="225.01997" type="curve"/>
			<point x="148.56935" y="214.7055"/>
			<point x="157.3982" y="205.77464"/>
			<point x="167.95587" y="199.65091" type="curve"/>
			<point x="178.51357" y="193.52716"/>
			<point x="190.81604" y="190.28163"/>
			<point x="203" y="191" type="curve" smooth="yes" identifier="39426dfd-16db-4765-ab5f-89dc12ac29f8"/>
			<point x="214.526" y="191.6741"/>
			<point x="225.62823" y="195.81598"/>
			<point x="235.74336" y="201.38258" type="curve"/>
			<point x="245.8585" y="206.94917"/>
			<point x="255.11075" y="213.93175"/>
			<point x="264.41855" y="220.76315" type="curve"/>
			<point x="273.72632" y="227.59454"/>
			<point x="283.1868" y="234.3348"/>
			<point x="293.59018" y="239.34204" type="curve"/>
			<point x="303.9936" y="244.34929"/>
			<point x="315.4691" y="247.58394"/>
			<point x="327" y="247" type="curve" smooth="yes" identifier="b48cc900-1fa8-4f14-8856-6c03c3ebd9e6"/>
			<point x="340.39728" y="246.328"/>
			<point x="353.30417" y="240.4241"/>
			<point x="363.26474" y="231.43936" type="curve"/>
			<point x="373.22534" y="222.45462"/>
			<point x="380.3149" y="210.52267"/>
			<point x="384.42465" y="197.75363" type="curve"/>
			<point x="388.53442" y="184.98457"/>
			<point x="389.74753" y="171.39328"/>
			<point x="389" y="158" type="curve" smooth="yes" identifier="287d3ee8-ae75-4ffc-8a3e-217632542409"/>
			<point x="387.23688" y="126.414116"/>
			<point x="374.54358" y="95.82476"/>
			<point x="354.90463" y="71.02379" type="curve"/>
			<point x="335.26566" y="46.222813"/>
			<point x="308.9016" y="27.103138"/>
			<point x="279.96805" y="14.311471" type="curve"/>
			<point x="251.03452" y="1.5198032"/>
			<point x="219.57674" y="-5.0799747"/>
			<point x="188" y="-7" type="curve" smooth="yes" identifier="19bc883d-b740-405f-8f39-65e772312e8d"/>
		</contour>
	</outline>
</glyph>
<glyph name="M" format="2">
	<unicode hex="004D"/>
	<advance width="700"/>
	<outline>
		<contour identifier="c6b556a7-f9e5-4978-804f-e23bc6534d7a">
			<point x="143.234" y="-13.382703"/>
			<point x="112.49754" y="-5.6755514"/>
			<point x="85.62379" y="9.315422" type="curve"/>
			<point x="58.75003" y="24.306395"/>
			<point x="35.8573" y="46.663055"/>
			<point x="21.22763" y="73.7352" type="curve"/>
			<point x="6.5979595" y="100.80734"/>
			<point x="0.43700063" y="132.568"/>
			<point x="5" y="163" type="curve" smooth="yes" identifier="226010b4-2d3b-465f-9466-e0ac4f421b2a"/>
			<point x="8.355448" y="185.39757"/>
			<point x="17.28123" y="206.58997"/>
			<point x="27.57435" y="226.76326" type="curve"/>
			<point x="37.86747" y="246.93655"/>
			<point x="49.60653" y="266.3726"/>
			<point x="59.158947" y="286.90698" type="curve"/>
			<point x="68.711365" y="307.44138"/>
			<point x="76.10463" y="329.37018"/>
			<point x="77" y="352" type="curve" smooth="yes" identifier="597e6e86-51a6-4417-97ab-36dff9ea25d6"/>
			<point x="78.02402" y="377.66202"/>
			<point x="70.64951" y="402.98755"/>
			<point x="60.712303" y="426.6696" type="curve"/>
			<point x="50.775093" y="450.35162"/>
			<point x="38.2422" y="472.87097"/>
			<point x="28.166668" y="496.4945" type="curve"/>
			<point x="18.091139" y="520.11804"/>
			<point x="10.426321" y="545.324"/>
			<point x="11" y="571" type="curve" smooth="yes" identifier="c8464bd2-edab-424d-aecc-bbbe7dd29697"/>
			<point x="11.540977" y="595.44916"/>
			<point x="19.690401" y="619.52826"/>
			<point x="33.208447" y="639.90753" type="curve"/>
			<point x="46.726494" y="660.28687"/>
			<point x="65.49182" y="676.99927"/>
			<point x="86.767784" y="689.05695" type="curve"/>
			<point x="108.04374" y="701.1146"/>
			<point x="131.78453" y="708.58453"/>
			<point x="156" y="712" type="curve" smooth="yes" identifier="c6ce4413-49d4-4bc5-a76e-723bb33dc807"/>
			<point x="176.85262" y="714.9413"/>
			<point x="200.27904" y="715.14624"/>
			<point x="222.94566" y="710.66583" type="curve"/>
			<point x="245.61229" y="706.1855"/>
			<point x="267.5636" y="696.7472"/>
			<point x="283.28546" y="682.73627" type="curve"/>
			<point x="299.00732" y="668.72534"/>
			<point x="307.39362" y="649.9154"/>
			<point x="307" y="635" type="curve" smooth="yes" identifier="f7b402ae-54ca-45c8-82ea-9ac3ab9bedc0"/>
			<point x="306.75656" y="625.6556"/>
			<point x="303.5496" y="616.5661"/>
			<point x="298.94214" y="608.4329" type="curve"/>
			<point x="294.33472" y="600.29974"/>
			<point x="288.35425" y="593.03357"/>
			<point x="282.18396" y="586.01184" type="curve"/>
			<point x="276.01367" y="578.9901"/>
			<point x="269.60956" y="572.1518"/>
			<point x="264.0076" y="564.6688" type="curve"/>
			<point x="258.40564" y="557.18585"/>
			<point x="253.58727" y="548.98236"/>
			<point x="251" y="540" type="curve" smooth="yes" identifier="e8120fca-e10d-4089-b2d4-88f544e08ff5"/>
			<point x="246.87456" y="525.69586"/>
			<point x="248.45064" y="507.327"/>
			<point x="256.71982" y="490.7367" type="curve"/>
			<point x="264.98898" y="474.1464"/>
			<point x="279.59012" y="459.54175"/>
			<point x="297.00632" y="450.22095" type="curve"/>
			<point x="314.42252" y="440.90018"/>
			<point x="334.49814" y="436.8603"/>
			<point x="353" y="438" type="curve" smooth="yes" identifier="42ad983e-c5f7-4597-9102-655fe9d55025"/>
			<point x="368.53986" y="438.95724"/>
			<point x="384.2191" y="443.5486"/>
			<point x="397.70743" y="451.89465" type="curve"/>
			<point x="411.19574" y="460.24072"/>
			<point x="422.40112" y="472.40125"/>
			<point x="428.86615" y="486.56482" type="curve"/>
			<point x="435.33118" y="500.7284"/>
			<point x="436.88315" y="516.83014"/>
			<point x="433" y="531" type="curve" smooth="yes" identifier="15d7feeb-1f1e-4f37-8f39-a18dbd07b211"/>
			<point x="430.21597" y="541.175"/>
			<point x="424.73697" y="550.44025"/>
			<point x="418.30438" y="558.801" type="curve"/>
			<point x="411.87177" y="567.1618"/>
			<point x="404.46545" y="574.7135"/>
			<point x="397.29593" y="582.4516" type="curve"/>
			<point x="390.12637" y="590.1897"/>
			<point x="383.13696" y="598.1881"/>
			<point x="377.69937" y="607.22766" type="curve"/>
			<point x="372.2618" y="616.2672"/>
			<point x="368.407" y="626.45886"/>
			<point x="368" y="637" type="curve" smooth="yes" identifier="9fe08734-3b30-4211-ace3-2509e082c946"/>
			<point x="367.35864" y="653.4435"/>
			<point x="376.30054" y="673.69586"/>
			<point x="392.86285" y="688.7706" type="curve"/>
			<point x="409.42517" y="703.84546"/>
			<point x="432.45966" y="714.0025"/>
			<point x="456.24738" y="719.32263" type="curve"/>
			<point x="480.0351" y="724.6428"/>
			<point x="504.6534" y="725.47974"/>
			<point x="527" y="724" type="curve" smooth="yes" identifier="1f2b3b61-e6c4-4d81-9265-15d89e4620b9"/>
			<point x="553.7411" y="722.22894"/>
			<point x="580.4301" y="716.8782"/>
			<point x="604.9571" y="706.07776" type="curve"/>
			<point x="629.48413" y="695.2773"/>
			<point x="651.8133" y="678.8514"/>
			<point x="667.6836" y="657.2561" type="curve"/>
			<point x="683.55396" y="635.6608"/>
			<point x="692.66144" y="608.7481"/>
			<point x="691" y="582" type="curve" smooth="yes" identifier="57ec3705-6d63-46c0-9784-47998e9070ec"/>
			<point x="689.7679" y="562.12256"/>
			<point x="682.7737" y="542.9915"/>
			<point x="673.7735" y="525.2256" type="curve"/>
			<point x="664.7733" y="507.45966"/>
			<point x="653.74695" y="490.8105"/>
			<point x="643.73584" y="473.59396" type="curve"/>
			<point x="633.7247" y="456.37744"/>
			<point x="624.6421" y="438.36703"/>
			<point x="620" y="419" type="curve" smooth="yes" identifier="1dc4ab5e-84a5-43aa-9c40-a94a53697184"/>
			<point x="614.2257" y="394.9514"/>
			<point x="615.53973" y="369.61127"/>
			<point x="620.7008" y="345.42365" type="curve"/>
			<point x="625.8619" y="321.236"/>
			<point x="634.7676" y="298.021"/>
			<point x="644.17377" y="275.1474" type="curve"/>
			<point x="653.5799" y="252.27379"/>
			<point x="663.5399" y="229.57513"/>
			<point x="670.9459" y="205.97789" type="curve"/>
			<point x="678.35187" y="182.38065"/>
			<point x="683.18353" y="157.7038"/>
			<point x="682" y="133" type="curve" smooth="yes" identifier="d33c9b7a-9a7f-47b0-bc3f-d104be212224"/>
			<point x="680.9318" y="110.571075"/>
			<point x="674.8542" y="88.41028"/>
			<point x="664.46277" y="68.50509" type="curve"/>
			<point x="654.0714" y="48.5999"/>
			<point x="639.3871" y="30.96677"/>
			<point x="621.7834" y="17.027346" type="curve"/>
			<point x="604.1797" y="3.0879235"/>
			<point x="583.6796" y="-7.1526146"/>
			<point x="562" y="-13" type="curve" smooth="yes" identifier="950c49e6-c1a8-4b6e-b544-ce82ebe57e4e"/>
			<point x="540.814" y="-18.714205"/>
			<point x="517.7794" y="-20.365477"/>
			<point x="495.606" y="-16.312206" type="curve"/>
			<point x="473.43253" y="-12.258937"/>
			<point x="452.18774" y="-2.326021"/>
			<point x="436.2081" y="12.712212" type="curve"/>
			<point x="420.22845" y="27.750444"/>
			<point x="409.86627" y="47.936966"/>
			<point x="408" y="68" type="curve" smooth="yes" identifier="64c0e7f7-895c-4030-ba9b-a2d7a1cb734b"/>
			<point x="406.13837" y="88.01333"/>
			<point x="412.32883" y="108.14323"/>
			<point x="422.20248" y="125.65064" type="curve"/>
			<point x="432.07614" y="143.15807"/>
			<point x="445.4973" y="158.37361"/>
			<point x="459.16928" y="173.10709" type="curve"/>
			<point x="472.84128" y="187.84058"/>
			<point x="486.93124" y="202.31334"/>
			<point x="498.46" y="218.77805" type="curve"/>
			<point x="509.98877" y="235.24274"/>
			<point x="518.954" y="254.00468"/>
			<point x="521" y="274" type="curve" smooth="yes" identifier="1b32a0d0-09a8-4faa-a723-1117c25d040d"/>
			<point x="522.3575" y="287.26697"/>
			<point x="520.5873" y="300.9008"/>
			<point x="515.4404" y="313.20386" type="curve"/>
			<point x="510.2936" y="325.5069"/>
			<point x="501.7307" y="336.43002"/>
			<point x="490.73657" y="343.9788" type="curve"/>
			<point x="479.74243" y="351.52756"/>
			<point x="466.32217" y="355.61218"/>
			<point x="453" y="355" type="curve" smooth="yes" identifier="91981ec8-fa35-4b15-911f-ae5f2ce8fe06"/>
			<point x="445.81644" y="354.6699"/>
			<point x="438.67645" y="352.99036"/>
			<point x="432.18884" y="349.88824" type="curve"/>
			<point x="425.7012" y="346.7861"/>
			<point x="419.87808" y="342.24945"/>
			<point x="415.44946" y="336.58377" type="curve"/>
			<point x="411.0208" y="330.91812"/>
			<point x="408.01016" y="324.11984"/>
			<point x="407" y="317" type="curve" smooth="yes" identifier="930d3d47-e9bb-4ee2-947f-770de2733f16"/>
			<point x="405.7938" y="308.49817"/>
			<point x="407.43414" y="299.7896"/>
			<point x="410.38425" y="291.7253" type="curve"/>
			<point x="413.33435" y="283.66104"/>
			<point x="417.56113" y="276.1362"/>
			<point x="421.7156" y="268.62112" type="curve"/>
			<point x="425.8701" y="261.10608"/>
			<point x="429.9924" y="253.51175"/>
			<point x="432.70975" y="245.36606" type="curve"/>
			<point x="435.42706" y="237.22038"/>
			<point x="436.69226" y="228.41856"/>
			<point x="435" y="220" type="curve" smooth="yes" identifier="c35ce123-2859-4eee-bb84-c1627da12028"/>
			<point x="433.4145" y="212.11215"/>
			<point x="429.25665" y="204.84074"/>
			<point x="423.64447" y="199.07571" type="curve"/>
			<point x="418.03232" y="193.31068"/>
			<point x="411.0088" y="189.01442"/>
			<point x="403.50497" y="186.11182" type="curve"/>
			<point x="396.0012" y="183.20921"/>
			<point x="388.0178" y="181.66866"/>
			<point x="380" y="181" type="curve" smooth="yes" identifier="a4b357f0-79a4-42ae-bbd9-4561a54d5522"/>
			<point x="366.13696" y="179.84402"/>
			<point x="351.66736" y="181.2857"/>
			<point x="338.2987" y="186.11246" type="curve"/>
			<point x="324.93002" y="190.93922"/>
			<point x="312.7149" y="199.25578"/>
			<point x="304.22327" y="210.27449" type="curve"/>
			<point x="295.73163" y="221.2932"/>
			<point x="291.17654" y="235.02147"/>
			<point x="292" y="248" type="curve" smooth="yes" identifier="d1a5daf4-4c2b-4dda-b5a6-ed66a1bec7b3"/>
			<point x="292.6092" y="257.62805"/>
			<point x="296.03497" y="266.86908"/>
			<point x="300.23834" y="275.55252" type="curve"/>
			<point x="304.44168" y="284.23596"/>
			<point x="309.4508" y="292.5152"/>
			<point x="313.53363" y="301.25595" type="curve"/>
			<point x="317.61646" y="309.9967"/>
			<point x="320.7908" y="319.35498"/>
			<point x="321" y="329" type="curve" smooth="yes" identifier="e44114c4-1256-4820-bcb0-31f69cfff171"/>
			<point x="321.23328" y="339.66977"/>
			<point x="317.7282" y="350.32986"/>
			<point x="311.5001" y="358.9964" type="curve"/>
			<point x="305.27197" y="367.66293"/>
			<point x="296.39087" y="374.33234"/>
			<point x="286.46042" y="378.24194" type="curve"/>
			<point x="276.53" y="382.15152"/>
			<point x="265.58884" y="383.33234"/>
			<point x="255" y="382" type="curve" smooth="yes" identifier="57506480-73b5-4cc0-9c77-3c805b60660f"/>
			<point x="243.13834" y="380.50748"/>
			<point x="231.70587" y="375.87463"/>
			<point x="222.05574" y="368.8176" type="curve"/>
			<point x="212.40562" y="361.76056"/>
			<point x="204.54663" y="352.3052"/>
			<point x="199.22809" y="341.5982" type="curve"/>
			<point x="193.90953" y="330.8912"/>
			<point x="191.12668" y="318.95453"/>
			<point x="191" y="307" type="curve" smooth="yes" identifier="4075e8ef-0e9a-45ea-97a1-8434f88cd5a8"/>
			<point x="190.77997" y="286.23022"/>
			<point x="198.48932" y="265.9887"/>
			<point x="209.53615" y="248.39894" type="curve"/>
			<point x="220.58298" y="230.80917"/>
			<point x="234.88551" y="215.5333"/>
			<point x="249.1804" y="200.46385" type="curve"/>
			<point x="263.47528" y="185.39441"/>
			<point x="277.9418" y="170.30487"/>
			<point x="289.39716" y="152.97838" type="curve"/>
			<point x="300.85248" y="135.65189"/>
			<point x="309.2482" y="115.75733"/>
			<point x="310" y="95" type="curve" smooth="yes" identifier="2ecee520-758e-400c-a57e-a0c15adb015c"/>
			<point x="310.78574" y="73.30992"/>
			<point x="303.0096" y="51.669807"/>
			<point x="289.768" y="34.472824" type="curve"/>
			<point x="276.52637" y="17.27584"/>
			<point x="258.04922" y="4.4297256"/>
			<point x="237.83156" y="-3.4647424" type="curve"/>
			<point x="217.61389" y="-11.35921"/>
			<point x="195.69994" y="-14.435158"/>
			<point x="174" y="-14" type="curve" smooth="yes" identifier="33d04023-7876-4415-b56c-a64f60c6a86a"/>
		</contour>
	</outline>
</glyph>
<glyph name="N" format="2">
	<unicode hex="004E"/>
	<advance width="600"/>
	<outline>
		<contour identifier="8ea8074a-536c-4119-899d-7363040f2a51">
			<point x="96.44784" y="-16.890785"/>
			<point x="78.62271" y="-9.270464"/>
			<point x="63.16039" y="1.7742193" type="curve"/>
			<point x="47.698067" y="12.818902"/>
			<point x="34.636585" y="27.31403"/>
			<point x="25.756227" y="44.113068" type="curve"/>
			<point x="16.87587" y="60.9121"/>
			<point x="12.241087" y="80.01336"/>
			<point x="13" y="99" type="curve" smooth="yes" identifier="455f0806-3e0e-46d2-a9a3-651bdf1f38d9"/>
			<point x="13.924889" y="122.24917"/>
			<point x="22.769102" y="144.55156"/>
			<point x="34.244347" y="164.79256" type="curve"/>
			<point x="45.719593" y="185.03355"/>
			<point x="59.855877" y="203.62231"/>
			<point x="72.57597" y="223.10509" type="curve"/>
			<point x="85.296074" y="242.58784"/>
			<point x="96.747055" y="263.33316"/>
			<point x="102" y="286" type="curve" smooth="yes" identifier="0bf80ce4-a733-4a9c-9393-ba083ada06cd"/>
			<point x="108.697105" y="314.87402"/>
			<point x="104.911995" y="345.3811"/>
			<point x="96.07937" y="373.67502" type="curve"/>
			<point x="87.24675" y="401.96893"/>
			<point x="73.542984" y="428.45367"/>
			<point x="60.021023" y="454.83014" type="curve"/>
			<point x="46.499065" y="481.2066"/>
			<point x="33.014297" y="507.82886"/>
			<point x="24.666998" y="536.2697" type="curve"/>
			<point x="16.319698" y="564.71063"/>
			<point x="13.319054" y="595.37195"/>
			<point x="21" y="624" type="curve" smooth="yes" identifier="0a6273f2-d67d-489d-bb2d-9222473dc13d"/>
			<point x="25.527065" y="640.8729"/>
			<point x="33.714718" y="656.739"/>
			<point x="44.737244" y="670.29236" type="curve"/>
			<point x="55.759766" y="683.8457"/>
			<point x="69.59953" y="695.0796"/>
			<point x="85.06609" y="703.202" type="curve"/>
			<point x="100.53265" y="711.3245"/>
			<point x="117.60968" y="716.3369"/>
			<point x="135" y="718" type="curve" smooth="yes" identifier="698ce41e-4122-469b-b697-7d323ba83459"/>
			<point x="155.60216" y="719.9703"/>
			<point x="176.5899" y="717.23755"/>
			<point x="196.1621" y="710.51" type="curve"/>
			<point x="215.73428" y="703.7824"/>
			<point x="233.88809" y="693.0943"/>
			<point x="249.58609" y="679.6071" type="curve"/>
			<point x="265.2841" y="666.12"/>
			<point x="278.53732" y="649.85675"/>
			<point x="289" y="632" type="curve" smooth="yes" identifier="4facff41-b85a-4149-8b1f-93dcd42ee82e"/>
			<point x="301.9992" y="609.815"/>
			<point x="310.62958" y="585.4041"/>
			<point x="319.6563" y="561.32776" type="curve"/>
			<point x="328.683" y="537.2514"/>
			<point x="338.3103" y="513.1037"/>
			<point x="353" y="492" type="curve" smooth="yes" identifier="b9d8a93a-a4df-49cd-ad42-68429eb4585c"/>
			<point x="360.0988" y="481.80127"/>
			<point x="368.96573" y="471.4891"/>
			<point x="379.4998" y="463.12195" type="curve"/>
			<point x="390.03387" y="454.7548"/>
			<point x="402.41003" y="448.4266"/>
			<point x="414.6979" y="446.57855" type="curve"/>
			<point x="426.98578" y="444.73053"/>
			<point x="438.91425" y="447.9057"/>
			<point x="446" y="454" type="curve" smooth="yes" identifier="17503346-4d87-4df8-b09d-35de355345ca"/>
			<point x="453.45987" y="460.4156"/>
			<point x="458.07547" y="472.05447"/>
			<point x="457.80682" y="484.3839" type="curve"/>
			<point x="457.53815" y="496.71332"/>
			<point x="452.9442" y="509.45724"/>
			<point x="446.65112" y="521.0189" type="curve"/>
			<point x="440.35803" y="532.58057"/>
			<point x="432.48404" y="543.1982"/>
			<point x="425" y="553" type="curve" smooth="yes" identifier="0e916829-c7d0-4d13-9674-2c00c02f294c"/>
			<point x="415.68723" y="565.19714"/>
			<point x="406.0319" y="577.1637"/>
			<point x="397.66635" y="590.02893" type="curve"/>
			<point x="389.30078" y="602.8942"/>
			<point x="382.20425" y="616.7622"/>
			<point x="378.52286" y="631.66003" type="curve"/>
			<point x="374.84146" y="646.5578"/>
			<point x="374.7268" y="662.5885"/>
			<point x="380" y="677" type="curve" smooth="yes" identifier="5034ecac-7513-4c4c-acdb-8cbf0e4134a2"/>
			<point x="385.76654" y="692.76294"/>
			<point x="397.80557" y="705.8766"/>
			<point x="412.3546" y="714.2461" type="curve"/>
			<point x="426.9037" y="722.61554"/>
			<point x="443.82608" y="726.41534"/>
			<point x="460.61008" y="726.55676" type="curve"/>
			<point x="477.3941" y="726.6982"/>
			<point x="494.07126" y="723.2913"/>
			<point x="510" y="718" type="curve" smooth="yes" identifier="52738010-73d9-4cc9-89d3-09ec7739fb2a"/>
			<point x="528.93274" y="711.71027"/>
			<point x="547.0726" y="702.6755"/>
			<point x="562.6759" y="690.2439" type="curve"/>
			<point x="578.27924" y="677.81226"/>
			<point x="591.29474" y="661.8973"/>
			<point x="599.15295" y="643.55994" type="curve"/>
			<point x="607.0112" y="625.22266"/>
			<point x="609.5389" y="604.427"/>
			<point x="605" y="585" type="curve" smooth="yes" identifier="8e0513ff-372f-42c6-b76b-0b35ef7549a1"/>
			<point x="601.4581" y="569.8391"/>
			<point x="593.81415" y="555.93744"/>
			<point x="585.1116" y="543.02765" type="curve"/>
			<point x="576.409" y="530.11786"/>
			<point x="566.5758" y="517.9944"/>
			<point x="558" y="505" type="curve" smooth="yes" identifier="b08b0945-e279-4171-abec-d863257c0a63"/>
			<point x="525.42175" y="455.6381"/>
			<point x="512.28937" y="395.07205"/>
			<point x="514.1238" y="335.95712" type="curve"/>
			<point x="515.9582" y="276.8422"/>
			<point x="532.03674" y="218.91406"/>
			<point x="554" y="164" type="curve" smooth="yes" identifier="92483458-d61c-4c79-b988-acf9620d959a"/>
			<point x="562.18677" y="143.52794"/>
			<point x="571.2086" y="123.36811"/>
			<point x="578.27686" y="102.48346" type="curve"/>
			<point x="585.3451" y="81.59881"/>
			<point x="590.45984" y="59.82546"/>
			<point x="590.51105" y="37.777187" type="curve"/>
			<point x="590.5623" y="15.728915"/>
			<point x="585.2967" y="-6.6991887"/>
			<point x="573" y="-25" type="curve" smooth="yes" identifier="f7328015-48fa-43e8-bb0c-42363bb003f2"/>
			<point x="559.93304" y="-44.44957"/>
			<point x="538.93024" y="-58.802547"/>
			<point x="515.58386" y="-65.35886" type="curve"/>
			<point x="492.2375" y="-71.91516"/>
			<point x="466.7682" y="-70.89019"/>
			<point x="443.27368" y="-63.865376" type="curve"/>
			<point x="419.7792" y="-56.840557"/>
			<point x="398.22736" y="-43.993824"/>
			<point x="380" y="-28" type="curve" smooth="yes" identifier="edeb5f28-a0fb-4142-ae67-b95c005c3444"/>
			<point x="358.26154" y="-8.925117"/>
			<point x="340.77402" y="14.976036"/>
			<point x="329.22043" y="41.488796" type="curve"/>
			<point x="317.6668" y="68.00156"/>
			<point x="312.0653" y="97.094315"/>
			<point x="313" y="126" type="curve" smooth="yes" identifier="848257be-b17b-4a0f-8876-be54c3576729"/>
			<point x="313.9354" y="155.13176"/>
			<point x="321.3767" y="183.6181"/>
			<point x="328.92688" y="211.77" type="curve"/>
			<point x="336.47702" y="239.9219"/>
			<point x="344.22345" y="268.29114"/>
			<point x="345.79312" y="297.3956" type="curve"/>
			<point x="347.36282" y="326.5001"/>
			<point x="342.2728" y="356.81882"/>
			<point x="326" y="381" type="curve" smooth="yes" identifier="59457b87-e224-4ab0-b6e4-8de9a204e694"/>
			<point x="316.20346" y="395.56467"/>
			<point x="302.52548" y="407.50894"/>
			<point x="286.72702" y="415.1581" type="curve"/>
			<point x="270.92856" y="422.8073"/>
			<point x="253.04634" y="426.13004"/>
			<point x="235.56384" y="424.5603" type="curve"/>
			<point x="218.08134" y="422.99057"/>
			<point x="201.05087" y="416.5202"/>
			<point x="187" y="406" type="curve" smooth="yes" identifier="551f2d17-168e-42e5-82c5-92494feab7f3"/>
			<point x="172.80559" y="395.37234"/>
			<point x="161.75616" y="380.7336"/>
			<point x="154.80475" y="364.42087" type="curve"/>
			<point x="147.85333" y="348.1081"/>
			<point x="144.94997" y="330.16803"/>
			<point x="145.72487" y="312.45282" type="curve"/>
			<point x="146.49977" y="294.73764"/>
			<point x="150.90712" y="277.25174"/>
			<point x="158" y="261" type="curve" smooth="yes" identifier="fbb7af60-7447-4ee4-886a-89a0b17fbcff"/>
			<point x="168.20428" y="237.60422"/>
			<point x="183.76128" y="216.99957"/>
			<point x="199.46463" y="196.87758" type="curve"/>
			<point x="215.168" y="176.75558"/>
			<point x="231.28156" y="156.68886"/>
			<point x="242.8446" y="133.93394" type="curve"/>
			<point x="254.40764" y="111.17902"/>
			<point x="261.22522" y="85.17216"/>
			<point x="257" y="60" type="curve" smooth="yes" identifier="ad0ee834-f759-4236-9895-32a0da52d9c5"/>
			<point x="253.63922" y="39.948517"/>
			<point x="243.27597" y="21.280645"/>
			<point x="228.65623" y="7.1519523" type="curve"/>
			<point x="214.0365" y="-6.976741"/>
			<point x="195.29762" y="-16.613512"/>
			<point x="175.48994" y="-21.197418" type="curve"/>
			<point x="155.68225" y="-25.781324"/>
			<point x="134.8501" y="-25.396635"/>
			<point x="115" y="-21" type="curve" smooth="yes" identifier="56fafd6c-58d1-409d-aa87-b4c60d17ceef"/>
		</contour>
	</outline>
</glyph>
<glyph name="O" format="2">
	<unicode hex="004F"/>
	<advance width="600"/>
	<outline>
		<contour identifier="90f056de-9462-44b6-9dc8-bdc3d6eb1559">
			<point x="187.73415" y="-26.878592"/>
			<point x="163.27795" y="-16.01744"/>
			<point x="140.89127" y="-1.7641248" type="curve"/>
			<point x="118.504585" y="12.489191"/>
			<point x="98.19971" y="30.174414"/>
			<point x="81.86773" y="51.092995" type="curve"/>
			<point x="65.53574" y="72.01158"/>
			<point x="53.229435" y="96.20243"/>
			<point x="47" y="122" type="curve" smooth="yes" identifier="770821b9-5899-4195-bbdd-71a18478baee"/>
			<point x="37.26364" y="162.28389"/>
			<point x="42.583305" y="204.90857"/>
			<point x="54.085342" y="244.72429" type="curve"/>
			<point x="65.58738" y="284.54"/>
			<point x="83.07993" y="322.3149"/>
			<point x="98.21965" y="360.8944" type="curve"/>
			<point x="113.35937" y="399.4739"/>
			<point x="126.29858" y="439.59116"/>
			<point x="128" y="481" type="curve" smooth="yes" identifier="bdc8351c-6f7f-4adb-bf22-3e7bc5506bf4"/>
			<point x="128.78618" y="500.0214"/>
			<point x="127.18863" y="519.05316"/>
			<point x="125.482544" y="538.0142" type="curve"/>
			<point x="123.77646" y="556.9752"/>
			<point x="121.95839" y="575.974"/>
			<point x="122.302734" y="595.00854" type="curve"/>
			<point x="122.64709" y="614.043"/>
			<point x="125.20837" y="633.215"/>
			<point x="132" y="651" type="curve" smooth="yes" identifier="f3cbcded-fed3-40f2-9fae-fdeee13077c8"/>
			<point x="141.67188" y="676.33105"/>
			<point x="159.75989" y="698.0461"/>
			<point x="181.75429" y="713.9033" type="curve"/>
			<point x="203.74867" y="729.7606"/>
			<point x="229.52596" y="739.9399"/>
			<point x="256.05853" y="745.52814" type="curve"/>
			<point x="282.59113" y="751.1164"/>
			<point x="309.91296" y="752.2243"/>
			<point x="337" y="751" type="curve" smooth="yes" identifier="42ae034c-9d62-476b-8b62-8c2ac6223b9e"/>
			<point x="362.21103" y="749.8597"/>
			<point x="387.47116" y="746.68097"/>
			<point x="411.57666" y="739.20966" type="curve"/>
			<point x="435.68216" y="731.73834"/>
			<point x="458.66614" y="719.8358"/>
			<point x="477.1552" y="702.6588" type="curve"/>
			<point x="495.64432" y="685.4818"/>
			<point x="509.44775" y="662.8228"/>
			<point x="514" y="638" type="curve" smooth="yes" identifier="1dd81867-cbd1-4a04-8316-6db58b6d2640"/>
			<point x="517.1938" y="620.59174"/>
			<point x="515.8334" y="602.59906"/>
			<point x="512.29974" y="585.25653" type="curve"/>
			<point x="508.76608" y="567.91406"/>
			<point x="503.09995" y="551.0914"/>
			<point x="497.62048" y="534.2621" type="curve"/>
			<point x="492.14102" y="517.43286"/>
			<point x="486.81693" y="500.4732"/>
			<point x="484" y="483" type="curve" smooth="yes" identifier="a0a17b79-96a0-4dff-94fd-2efa89434d46"/>
			<point x="479.01865" y="452.16205"/>
			<point x="481.9943" y="420.46182"/>
			<point x="488.8358" y="389.98254" type="curve"/>
			<point x="495.67728" y="359.50327"/>
			<point x="506.31613" y="330.0296"/>
			<point x="516.82227" y="300.6117" type="curve"/>
			<point x="527.32837" y="271.1938"/>
			<point x="537.7597" y="241.63075"/>
			<point x="544.16406" y="211.05663" type="curve"/>
			<point x="550.5684" y="180.48251"/>
			<point x="552.86237" y="148.68265"/>
			<point x="547" y="118" type="curve" smooth="yes" identifier="7d5be630-e4aa-48bb-a525-b9c2ee8e28cc"/>
			<point x="538.49286" y="73.41095"/>
			<point x="512.45844" y="32.33027"/>
			<point x="476.75217" y="3.099909" type="curve"/>
			<point x="441.0459" y="-26.130453"/>
			<point x="396.1433" y="-43.724903"/>
			<point x="350.09583" y="-49.39636" type="curve"/>
			<point x="304.04834" y="-55.06781"/>
			<point x="256.93124" y="-49.120842"/>
			<point x="213" y="-35" type="curve" smooth="yes" identifier="9845d52a-4e3e-4e7e-80bb-214de0a116ad"/>
		</contour>
		<contour identifier="f17ba0f6-46c8-4d63-b5de-7e8fb33bf0df">
			<point x="318.6497" y="228.59741"/>
			<point x="327.40952" y="229.92513"/>
			<point x="335.43643" y="233.17284" type="curve"/>
			<point x="343.46335" y="236.42053"/>
			<point x="350.73782" y="241.61095"/>
			<point x="356.17627" y="248.34908" type="curve"/>
			<point x="361.61472" y="255.0872"/>
			<point x="365.17426" y="263.38043"/>
			<point x="366" y="272" type="curve" smooth="yes" identifier="0672e7c4-613b-4f7b-9078-1e85d344351d"/>
			<point x="366.80606" y="280.38745"/>
			<point x="365.0462" y="288.87445"/>
			<point x="361.9713" y="296.71945" type="curve"/>
			<point x="358.89645" y="304.56445"/>
			<point x="354.53732" y="311.83694"/>
			<point x="349.9784" y="318.92322" type="curve"/>
			<point x="345.41946" y="326.00946"/>
			<point x="340.63223" y="332.96445"/>
			<point x="336.60297" y="340.36472" type="curve"/>
			<point x="332.57367" y="347.76498"/>
			<point x="329.2948" y="355.67398"/>
			<point x="328" y="364" type="curve" smooth="yes" identifier="e7e86c60-3acc-40c3-b59b-2097dd8e1550"/>
			<point x="326.4976" y="373.63522"/>
			<point x="327.69913" y="383.51294"/>
			<point x="329.90594" y="393.01163" type="curve"/>
			<point x="332.11276" y="402.5103"/>
			<point x="335.31207" y="411.7471"/>
			<point x="337.8796" y="421.1547" type="curve"/>
			<point x="340.44714" y="430.5623"/>
			<point x="342.39212" y="440.25623"/>
			<point x="342" y="450" type="curve" smooth="yes" identifier="99a86d4b-f1b7-40ac-942d-d7e386eca709"/>
			<point x="341.679" y="457.9979"/>
			<point x="339.75046" y="465.96838"/>
			<point x="336.0357" y="473.0585" type="curve"/>
			<point x="332.32095" y="480.14862"/>
			<point x="326.79108" y="486.3331"/>
			<point x="319.95465" y="490.4963" type="curve"/>
			<point x="313.1182" y="494.6595"/>
			<point x="304.9698" y="496.74258"/>
			<point x="297" y="496" type="curve" smooth="yes" identifier="c0ece08a-8b4c-480e-9153-3875a0c37dbd"/>
			<point x="289.28516" y="495.2812"/>
			<point x="281.89435" y="491.93497"/>
			<point x="276.01266" y="486.89105" type="curve"/>
			<point x="270.13098" y="481.84714"/>
			<point x="265.7414" y="475.15536"/>
			<point x="263.09537" y="467.87292" type="curve"/>
			<point x="260.44934" y="460.59048"/>
			<point x="259.5172" y="452.7332"/>
			<point x="260" y="445" type="curve" smooth="yes" identifier="defd63c9-128f-4375-8f17-c23a3436edc2"/>
			<point x="260.63327" y="434.839"/>
			<point x="263.6551" y="424.97403"/>
			<point x="267.26892" y="415.45627" type="curve"/>
			<point x="270.88272" y="405.9385"/>
			<point x="275.1106" y="396.64984"/>
			<point x="278.31116" y="386.9853" type="curve"/>
			<point x="281.51172" y="377.32074"/>
			<point x="283.68155" y="367.1579"/>
			<point x="283" y="357" type="curve" smooth="yes" identifier="fb8c9f79-41ea-4bba-a743-84df328c3a3b"/>
			<point x="282.32355" y="346.87125"/>
			<point x="278.84564" y="337.1386"/>
			<point x="274.7756" y="327.83896" type="curve"/>
			<point x="270.70554" y="318.53928"/>
			<point x="266.0028" y="309.4964"/>
			<point x="262.65692" y="299.91232" type="curve"/>
			<point x="259.31104" y="290.32825"/>
			<point x="257.3497" y="280.01627"/>
			<point x="259" y="270" type="curve" smooth="yes" identifier="f699fafa-27da-4311-a6d3-8eb4042cc2df"/>
			<point x="260.27716" y="262.23865"/>
			<point x="263.72275" y="254.87672"/>
			<point x="268.6771" y="248.76735" type="curve"/>
			<point x="273.63144" y="242.65799"/>
			<point x="280.06894" y="237.79556"/>
			<point x="287.19986" y="234.47595" type="curve"/>
			<point x="294.33078" y="231.15633"/>
			<point x="302.14276" y="229.36572"/>
			<point x="310" y="229" type="curve" smooth="yes" identifier="bedb3f6d-0116-4687-9ac5-31ed5ae37c1e"/>
		</contour>
	</outline>
</glyph>
<glyph name="P" format="2">
	<unicode hex="0050"/>
	<outline>
		<contour identifier="5857a816-372c-4135-a551-da2307333abf">
			<point x="118.13848" y="-1.0680408"/>
			<point x="90.28382" y="11.769683"/>
			<point x="68.93478" y="31.213816" type="curve"/>
			<point x="47.58573" y="50.657948"/>
			<point x="32.497814" y="76.37669"/>
			<point x="23.277706" y="103.74174" type="curve"/>
			<point x="14.057596" y="131.10678"/>
			<point x="10.499147" y="160.12775"/>
			<point x="10" y="189" type="curve" smooth="yes" identifier="e0c7221e-3eb2-4fa0-ab49-606641c3cae0"/>
			<point x="9.344319" y="226.96518"/>
			<point x="13.89436" y="264.8062"/>
			<point x="18.452377" y="302.50247" type="curve"/>
			<point x="23.010397" y="340.19876"/>
			<point x="27.592058" y="378.03378"/>
			<point x="27" y="416" type="curve" smooth="yes" identifier="989bfd8b-0196-4be0-b4ec-3afbde26701b"/>
			<point x="26.571636" y="443.59848"/>
			<point x="23.40339" y="471.07205"/>
			<point x="21.539" y="498.61084" type="curve"/>
			<point x="19.674606" y="526.1496"/>
			<point x="19.129072" y="553.9904"/>
			<point x="23.899818" y="581.1768" type="curve"/>
			<point x="28.670567" y="608.3632"/>
			<point x="39.04141" y="635.03937"/>
			<point x="57" y="656" type="curve" smooth="yes" identifier="07784785-fbb9-495c-91e7-6409b4dcac96"/>
			<point x="76.388466" y="678.633"/>
			<point x="103.72741" y="693.49817"/>
			<point x="132.40805" y="701.59656" type="curve"/>
			<point x="161.0887" y="709.695"/>
			<point x="191.20082" y="711.41583"/>
			<point x="221" y="711" type="curve" smooth="yes" identifier="60f61f3c-ae1e-45b0-83be-142e4d128f0b"/>
			<point x="261.2809" y="710.4366"/>
			<point x="302.09232" y="706.0095"/>
			<point x="340.74176" y="693.6584" type="curve"/>
			<point x="379.3912" y="681.30725"/>
			<point x="415.9098" y="660.6657"/>
			<point x="443.20486" y="631.0372" type="curve"/>
			<point x="470.4999" y="601.4087"/>
			<point x="487.95154" y="562.41437"/>
			<point x="488" y="523" type="curve" smooth="yes" identifier="df027260-5140-4574-b732-0d788114d531"/>
			<point x="488.03806" y="492.7722"/>
			<point x="477.9374" y="462.8228"/>
			<point x="460.74484" y="437.96045" type="curve"/>
			<point x="443.5523" y="413.09808"/>
			<point x="419.45624" y="393.28036"/>
			<point x="392.34802" y="379.90628" type="curve"/>
			<point x="365.2398" y="366.5322"/>
			<point x="335.19058" y="359.4999"/>
			<point x="305" y="358" type="curve" smooth="yes" identifier="230640c8-92bc-4c59-b7f3-5e04e1640bf2"/>
			<point x="288.32928" y="357.17148"/>
			<point x="271.59796" y="357.99356"/>
			<point x="254.94731" y="356.82962" type="curve"/>
			<point x="238.29666" y="355.66565"/>
			<point x="221.43451" y="352.38116"/>
			<point x="207" y="344" type="curve" smooth="yes" identifier="1d4fc099-9ad8-4212-be57-11df749b1b8a"/>
			<point x="191.5251" y="335.0153"/>
			<point x="179.58844" y="320.42288"/>
			<point x="172.82323" y="303.857" type="curve"/>
			<point x="166.05801" y="287.29108"/>
			<point x="164.33693" y="268.85654"/>
			<point x="166.81514" y="251.13492" type="curve"/>
			<point x="169.29335" y="233.4133"/>
			<point x="175.87396" y="216.39197"/>
			<point x="185" y="201" type="curve" smooth="yes" identifier="187d8e8d-7b87-4332-bbeb-00ebbe3063d4"/>
			<point x="191.76964" y="189.58144"/>
			<point x="199.91162" y="179.04675"/>
			<point x="208.01726" y="168.53438" type="curve"/>
			<point x="216.1229" y="158.02202"/>
			<point x="224.23834" y="147.46414"/>
			<point x="230.94781" y="136.01013" type="curve"/>
			<point x="237.6573" y="124.556114"/>
			<point x="242.95972" y="112.11673"/>
			<point x="245" y="99" type="curve" smooth="yes" identifier="373b0cb7-c23e-4bdb-b958-c5b0462c808c"/>
			<point x="247.74419" y="81.36281"/>
			<point x="244.362" y="62.90593"/>
			<point x="235.96939" y="47.152664" type="curve"/>
			<point x="227.5768" y="31.3994"/>
			<point x="214.27707" y="18.384296"/>
			<point x="198.57417" y="9.897823" type="curve"/>
			<point x="182.87128" y="1.4113507"/>
			<point x="164.84009" y="-2.5764575"/>
			<point x="147" y="-2" type="curve" smooth="yes" identifier="e4893b59-5283-460e-9e23-fdf44fbf2bf3"/>
		</contour>
		<contour identifier="ee33c62d-f323-40d1-acd5-e34bdc6c2afb">
			<point x="228.98999" y="497.9187"/>
			<point x="242.56578" y="497.93884"/>
			<point x="256.039" y="499.33676" type="curve"/>
			<point x="269.5122" y="500.7347"/>
			<point x="283.05576" y="503.72946"/>
			<point x="293.38727" y="509.81436" type="curve"/>
			<point x="303.7188" y="515.8993"/>
			<point x="309.8252" y="525.6776"/>
			<point x="310" y="533" type="curve" smooth="yes" identifier="ea8efeae-8cde-4364-910c-977e5bf99ae8"/>
			<point x="310.16953" y="540.10236"/>
			<point x="304.8914" y="549.9153"/>
			<point x="295.30737" y="556.5065" type="curve"/>
			<point x="285.72336" y="563.09766"/>
			<point x="272.8019" y="566.93115"/>
			<point x="259.81137" y="568.9129" type="curve"/>
			<point x="246.8208" y="570.89465"/>
			<point x="233.62975" y="571.21454"/>
			<point x="222" y="571" type="curve" smooth="yes" identifier="11142d61-7dab-459a-9552-0dcc82c856c7"/>
			<point x="211.10748" y="570.79913"/>
			<point x="198.98834" y="570.0944"/>
			<point x="187.13074" y="567.7634" type="curve"/>
			<point x="175.27313" y="565.4325"/>
			<point x="163.57336" y="561.2673"/>
			<point x="154.98674" y="554.5623" type="curve"/>
			<point x="146.4001" y="547.8573"/>
			<point x="141.69792" y="538.3176"/>
			<point x="142" y="531" type="curve" smooth="yes" identifier="b474bee7-8704-4bc7-ac28-76ae0933a084"/>
			<point x="142.29747" y="523.7882"/>
			<point x="147.41376" y="515.3106"/>
			<point x="155.64696" y="509.72205" type="curve"/>
			<point x="163.88016" y="504.1335"/>
			<point x="174.62941" y="501.13538"/>
			<point x="185.39192" y="499.67096" type="curve"/>
			<point x="196.15443" y="498.20657"/>
			<point x="207.04948" y="498.0678"/>
			<point x="217" y="498" type="curve" smooth="yes" identifier="8b99628d-7b28-40f3-bd02-385e6e322c3a"/>
		</contour>
	</outline>
</glyph>
<glyph name="Q" format="2">
	<unicode hex="0051"/>
	<advance width="600"/>
	<outline>
		<contour identifier="a50d8704-c772-43ae-91b1-7ea2208db16c">
			<point x="257.3452" y="-16.997099"/>
			<point x="201.78508" y="3.027888"/>
			<point x="155.49641" y="35.756084" type="curve"/>
			<point x="109.207756" y="68.48428"/>
			<point x="72.131744" y="113.6226"/>
			<point x="46.88486" y="164.38055" type="curve"/>
			<point x="21.63798" y="215.1385"/>
			<point x="8.064123" y="271.3927"/>
			<point x="5" y="328" type="curve" smooth="yes" identifier="6a218d0d-08c8-46e6-ae20-5fb7ec262f03"/>
			<point x="1.7885664" y="387.33304"/>
			<point x="10.140842" y="447.53836"/>
			<point x="31.844936" y="502.8525" type="curve"/>
			<point x="53.54903" y="558.1667"/>
			<point x="88.80386" y="608.45026"/>
			<point x="135.07579" y="645.728" type="curve"/>
			<point x="181.34773" y="683.0058"/>
			<point x="238.72035" y="706.9199"/>
			<point x="298" y="711" type="curve" smooth="yes" identifier="eace6399-b723-4432-8053-1c80b9aeb205"/>
			<point x="345.68228" y="714.30035"/>
			<point x="394.1921" y="704.7868"/>
			<point x="437.0932" y="683.7157" type="curve"/>
			<point x="479.99426" y="662.64465"/>
			<point x="517.1784" y="630.0684"/>
			<point x="543.7044" y="590.30835" type="curve"/>
			<point x="570.23035" y="550.5482"/>
			<point x="586.0307" y="503.70404"/>
			<point x="589" y="456" type="curve" smooth="yes" identifier="6e3f28cb-53fd-4b70-8faa-05b0d7c0dd82"/>
			<point x="591.53845" y="414.96234"/>
			<point x="584.30255" y="371.2166"/>
			<point x="572.1104" y="328.5707" type="curve"/>
			<point x="559.9183" y="285.9248"/>
			<point x="543.08276" y="244.04552"/>
			<point x="530.76117" y="202.11145" type="curve"/>
			<point x="518.43964" y="160.17738"/>
			<point x="511.18182" y="117.243286"/>
			<point x="517.48303" y="78.58034" type="curve"/>
			<point x="523.78424" y="39.917385"/>
			<point x="545.10913" y="6.9211683"/>
			<point x="572" y="-8" type="curve" smooth="yes" identifier="83b49352-93bc-4c06-a023-d87ffc63aa9f"/>
			<point x="582.0738" y="-13.590587"/>
			<point x="593.16315" y="-17.102768"/>
			<point x="604.3188" y="-19.981594" type="curve"/>
			<point x="615.4744" y="-22.86042"/>
			<point x="626.78827" y="-25.144808"/>
			<point x="637.81824" y="-28.472853" type="curve"/>
			<point x="648.84814" y="-31.8009"/>
			<point x="659.6779" y="-36.229923"/>
			<point x="669" y="-43" type="curve" smooth="yes" identifier="0e81c285-9ad5-49f5-b205-b69cff666494"/>
			<point x="679.47156" y="-50.603756"/>
			<point x="687.797" y="-61.063942"/>
			<point x="693.1539" y="-72.844185" type="curve"/>
			<point x="698.5108" y="-84.62443"/>
			<point x="700.9188" y="-97.691986"/>
			<point x="700.4388" y="-110.624115" type="curve"/>
			<point x="699.9587" y="-123.556244"/>
			<point x="696.61633" y="-136.34122"/>
			<point x="691" y="-148" type="curve" smooth="yes" identifier="d460a96e-dd62-44ac-88e5-9783b358c047"/>
			<point x="682.27716" y="-166.10751"/>
			<point x="667.6742" y="-181.95212"/>
			<point x="649.7325" y="-192.1218" type="curve"/>
			<point x="631.7907" y="-202.29147"/>
			<point x="610.6207" y="-206.68259"/>
			<point x="590.6533" y="-204.3864" type="curve"/>
			<point x="570.6859" y="-202.09021"/>
			<point x="552.1157" y="-193.08347"/>
			<point x="539" y="-180" type="curve" smooth="yes" identifier="dae4d7e2-9ed5-4c23-9d56-f00d3f8849fe"/>
			<point x="527.09216" y="-168.12619"/>
			<point x="519.1956" y="-152.8099"/>
			<point x="513.1064" y="-137.13492" type="curve"/>
			<point x="507.0171" y="-121.45994"/>
			<point x="502.5482" y="-105.19023"/>
			<point x="496.3697" y="-89.5502" type="curve"/>
			<point x="490.1912" y="-73.91017"/>
			<point x="482.1091" y="-58.668495"/>
			<point x="470" y="-47" type="curve" smooth="yes" identifier="fc9096d1-5d91-49f3-b3bd-7303642ae619"/>
			<point x="456.97205" y="-34.439297"/>
			<point x="439.8794" y="-26.667234"/>
			<point x="422.25" y="-22.58024" type="curve"/>
			<point x="404.62064" y="-18.493248"/>
			<point x="386.37003" y="-17.896078"/>
			<point x="368.27542" y="-18.187532" type="curve"/>
			<point x="350.18085" y="-18.478989"/>
			<point x="332.0856" y="-19.64067"/>
			<point x="314" y="-19" type="curve" smooth="yes" identifier="8feb891c-a35d-4bc0-8075-a10fa1629cea"/>
		</contour>
		<contour identifier="ce4093fd-3eb9-411b-95a5-57a95053da01">
			<point x="301.0776" y="170.0549"/>
			<point x="311.78534" y="174.212"/>
			<point x="320.49292" y="181.05396" type="curve"/>
			<point x="329.20047" y="187.8959"/>
			<point x="335.83334" y="197.37593"/>
			<point x="338.71762" y="207.08943" type="curve"/>
			<point x="341.60187" y="216.80292"/>
			<point x="340.46793" y="226.56654"/>
			<point x="337" y="233" type="curve" smooth="yes" identifier="e322c2fd-324d-486f-a903-cd2bdbe5ae2f"/>
			<point x="334.07275" y="238.43558"/>
			<point x="329.22095" y="242.6674"/>
			<point x="323.80026" y="245.62213" type="curve"/>
			<point x="318.3796" y="248.57684"/>
			<point x="312.38788" y="250.33481"/>
			<point x="306.36087" y="251.67247" type="curve"/>
			<point x="300.33386" y="253.01013"/>
			<point x="294.22147" y="253.94905"/>
			<point x="288.21725" y="255.38553" type="curve"/>
			<point x="282.21304" y="256.82202"/>
			<point x="276.26852" y="258.78183"/>
			<point x="271" y="262" type="curve" smooth="yes" identifier="d38f6de5-fed9-4836-9c88-83415e26e513"/>
			<point x="262.3111" y="267.3027"/>
			<point x="255.26248" y="276.41452"/>
			<point x="251.78969" y="287.07037" type="curve"/>
			<point x="248.31688" y="297.72623"/>
			<point x="248.36166" y="309.77695"/>
			<point x="251.56844" y="320.87308" type="curve"/>
			<point x="254.77519" y="331.96924"/>
			<point x="261.06143" y="342.0888"/>
			<point x="269" y="350" type="curve" smooth="yes" identifier="bfdd36d0-59ca-4b2f-9172-d1bab9a19389"/>
			<point x="275.8545" y="356.83084"/>
			<point x="284.1519" y="362.26715"/>
			<point x="293.28928" y="365.4535" type="curve"/>
			<point x="302.42664" y="368.63983"/>
			<point x="312.40448" y="369.536"/>
			<point x="321.89484" y="367.64462" type="curve"/>
			<point x="331.38522" y="365.75327"/>
			<point x="340.34927" y="361.02936"/>
			<point x="347" y="354" type="curve" smooth="yes" identifier="737eea49-80a0-473e-9c97-fa7ce4a4c00c"/>
			<point x="351.4299" y="349.3179"/>
			<point x="354.99734" y="343.3913"/>
			<point x="357.64188" y="336.96497" type="curve"/>
			<point x="360.2864" y="330.53864"/>
			<point x="362.03775" y="323.63464"/>
			<point x="363.65497" y="316.8023" type="curve"/>
			<point x="365.2722" y="309.96994"/>
			<point x="366.8061" y="303.1622"/>
			<point x="369.22083" y="296.95383" type="curve"/>
			<point x="371.63553" y="290.74545"/>
			<point x="375.03204" y="285.1314"/>
			<point x="379.47122" y="281.29062" type="curve"/>
			<point x="383.91043" y="277.4498"/>
			<point x="389.37137" y="275.58557"/>
			<point x="394" y="276" type="curve" smooth="yes" identifier="21910464-6444-46ae-8252-29f161da9d2f"/>
			<point x="399.68784" y="276.50922"/>
			<point x="406.39032" y="280.959"/>
			<point x="410.62384" y="287.94293" type="curve"/>
			<point x="414.85733" y="294.92685"/>
			<point x="416.8918" y="303.9367"/>
			<point x="417.5686" y="312.89682" type="curve"/>
			<point x="418.24536" y="321.85693"/>
			<point x="417.71838" y="330.8648"/>
			<point x="417" y="339" type="curve" smooth="yes" identifier="929a8efb-eaa5-482c-9ad9-53c3f4aaa557"/>
			<point x="415.26984" y="358.58728"/>
			<point x="411.66086" y="378.1111"/>
			<point x="404.73798" y="396.5157" type="curve"/>
			<point x="397.81506" y="414.92026"/>
			<point x="387.4865" y="432.21304"/>
			<point x="373.40897" y="445.94177" type="curve"/>
			<point x="359.33145" y="459.6705"/>
			<point x="341.38602" y="469.70798"/>
			<point x="322" y="473" type="curve" smooth="yes" identifier="6b34d352-d841-4c86-89b0-e5920309c96a"/>
			<point x="299.16418" y="476.87833"/>
			<point x="274.3592" y="471.16187"/>
			<point x="253.73882" y="458.31168" type="curve"/>
			<point x="233.11844" y="445.46146"/>
			<point x="216.64745" y="425.8583"/>
			<point x="205.63293" y="403.77853" type="curve"/>
			<point x="194.61841" y="381.69873"/>
			<point x="188.86642" y="357.22488"/>
			<point x="187" y="333" type="curve" smooth="yes" identifier="98d6850d-4fdb-4a6d-b446-1c725ce20a35"/>
			<point x="185.139" y="308.8451"/>
			<point x="186.9753" y="282.10443"/>
			<point x="194.37495" y="256.78467" type="curve"/>
			<point x="201.77463" y="231.46489"/>
			<point x="215.0349" y="207.57813"/>
			<point x="232.90234" y="191.21729" type="curve"/>
			<point x="250.76979" y="174.85643"/>
			<point x="273.3272" y="167.15016"/>
			<point x="291" y="169" type="curve" smooth="yes" identifier="884fe989-1f0c-4164-80c8-69f8548d647d"/>
		</contour>
	</outline>
</glyph>
<glyph name="R" format="2">
	<unicode hex="0052"/>
	<advance width="600"/>
	<outline>
		<contour identifier="46d9edc3-cc18-4270-bd09-ba3a7092571b">
			<point x="127.87345" y="-10.257208"/>
			<point x="106.693985" y="-5.840541"/>
			<point x="87.46449" y="2.9129715" type="curve"/>
			<point x="68.23501" y="11.666484"/>
			<point x="50.98255" y="24.751543"/>
			<point x="37.429985" y="40.960346" type="curve"/>
			<point x="23.877422" y="57.16915"/>
			<point x="14.04829" y="76.48386"/>
			<point x="9" y="97" type="curve" smooth="yes" identifier="647d9539-1520-4b91-8ad9-b220e837b44a"/>
			<point x="2.2786992" y="124.2717"/>
			<point x="4.040782" y="153.10062"/>
			<point x="10.251032" y="180.49321" type="curve"/>
			<point x="16.461283" y="207.88582"/>
			<point x="26.990744" y="234.08691"/>
			<point x="37.840843" y="259.9944" type="curve"/>
			<point x="48.690945" y="285.90186"/>
			<point x="59.936836" y="311.74103"/>
			<point x="67.68162" y="338.7399" type="curve"/>
			<point x="75.42639" y="365.7388"/>
			<point x="79.60828" y="394.145"/>
			<point x="76" y="422" type="curve" smooth="yes" identifier="750b4d26-f0b4-41a7-895e-4494a723299b"/>
			<point x="73.76434" y="439.3165"/>
			<point x="68.571465" y="456.10962"/>
			<point x="62.830536" y="472.59903" type="curve"/>
			<point x="57.089607" y="489.08847"/>
			<point x="50.77004" y="505.40216"/>
			<point x="46.163776" y="522.24384" type="curve"/>
			<point x="41.55751" y="539.0855"/>
			<point x="38.678146" y="556.5899"/>
			<point x="40" y="574" type="curve" smooth="yes" identifier="96d0464a-f7c3-4480-9698-12e05d963eb7"/>
			<point x="42.435352" y="606.1191"/>
			<point x="59.444305" y="636.40717"/>
			<point x="83.50323" y="658.3179" type="curve"/>
			<point x="107.56216" y="680.22864"/>
			<point x="138.20456" y="694.21783"/>
			<point x="169.90086" y="702.0549" type="curve"/>
			<point x="201.59717" y="709.89185"/>
			<point x="234.45937" y="711.86566"/>
			<point x="267" y="712" type="curve" smooth="yes" identifier="7cd9d4c4-adfd-4ada-90fb-1f5cd499d642"/>
			<point x="305.03333" y="712.15515"/>
			<point x="343.24203" y="709.80383"/>
			<point x="380.4083" y="701.7274" type="curve"/>
			<point x="417.57452" y="693.65094"/>
			<point x="453.7668" y="679.7036"/>
			<point x="485" y="658" type="curve" smooth="yes" identifier="8b7b18b7-8354-4465-9f74-483abfc16926"/>
			<point x="518.5715" y="634.67163"/>
			<point x="549.18024" y="599.52344"/>
			<point x="568.19403" y="558.60126" type="curve"/>
			<point x="587.2078" y="517.67914"/>
			<point x="594.4595" y="471.20544"/>
			<point x="587.7305" y="430.88202" type="curve"/>
			<point x="581.0015" y="390.55862"/>
			<point x="559.3509" y="357.7265"/>
			<point x="536" y="342" type="curve" smooth="yes" identifier="dc3a28ab-459c-4843-ae0f-67ba6f01a118"/>
			<point x="514.09937" y="327.2495"/>
			<point x="486.7714" y="322.45435"/>
			<point x="460.37448" y="323.10068" type="curve"/>
			<point x="433.9776" y="323.74704"/>
			<point x="408.00662" y="329.4318"/>
			<point x="382" y="334" type="curve" smooth="yes" identifier="0671e950-8389-4e29-9ac4-8c2fc773f46f"/>
			<point x="369.65005" y="336.16904"/>
			<point x="357.19806" y="338.0949"/>
			<point x="344.65918" y="338.14224" type="curve"/>
			<point x="332.12027" y="338.18958"/>
			<point x="319.41852" y="336.2957"/>
			<point x="308.0009" y="331.1126" type="curve"/>
			<point x="296.58328" y="325.92957"/>
			<point x="286.50952" y="317.26373"/>
			<point x="281" y="306" type="curve" smooth="yes" identifier="3a20ce28-0a36-4a49-baac-77b05dc7bf54"/>
			<point x="276.8056" y="297.42593"/>
			<point x="274.736" y="285.79214"/>
			<point x="276.4225" y="273.43286" type="curve"/>
			<point x="278.10895" y="261.07355"/>
			<point x="283.44885" y="248.11783"/>
			<point x="291.81427" y="236.82858" type="curve"/>
			<point x="300.17972" y="225.53934"/>
			<point x="311.52356" y="215.93095"/>
			<point x="324.20282" y="209.37006" type="curve"/>
			<point x="336.8821" y="202.80916"/>
			<point x="350.85464" y="199.3384"/>
			<point x="364" y="199" type="curve" smooth="yes" identifier="7e68d12b-8635-49bc-b7da-946d0b7b966e"/>
			<point x="382.49738" y="198.52003"/>
			<point x="400.6859" y="203.92323"/>
			<point x="417.75302" y="211.07146" type="curve"/>
			<point x="434.82013" y="218.21968"/>
			<point x="451.10147" y="227.14299"/>
			<point x="468.18918" y="234.24184" type="curve"/>
			<point x="485.2769" y="241.34068"/>
			<point x="503.50748" y="246.6404"/>
			<point x="522" y="246" type="curve" smooth="yes" identifier="8d3fb8de-b7dc-482e-8372-58c4de5c6b71"/>
			<point x="539.8139" y="245.38678"/>
			<point x="557.3157" y="239.15263"/>
			<point x="571.836" y="228.81479" type="curve"/>
			<point x="586.3564" y="218.47693"/>
			<point x="597.89606" y="204.1193"/>
			<point x="605.3836" y="187.94373" type="curve"/>
			<point x="612.87115" y="171.76817"/>
			<point x="616.3443" y="153.82115"/>
			<point x="616" y="136" type="curve" smooth="yes" identifier="ad70a1d9-bbe5-472d-9ce0-c6b1a6eced57"/>
			<point x="615.46625" y="108.37111"/>
			<point x="605.71924" y="81.16505"/>
			<point x="589.50684" y="58.786495" type="curve"/>
			<point x="573.2945" y="36.407944"/>
			<point x="550.78156" y="18.82983"/>
			<point x="525.59875" y="7.451545" type="curve"/>
			<point x="500.4159" y="-3.9267411"/>
			<point x="472.6334" y="-9.191518"/>
			<point x="445" y="-9" type="curve" smooth="yes" identifier="ad0bcf91-3135-4d8c-9187-23824b55a50f"/>
			<point x="419.7972" y="-8.8252735"/>
			<point x="394.58313" y="-4.144584"/>
			<point x="371.1933" y="5.2429156" type="curve"/>
			<point x="347.80344" y="14.630416"/>
			<point x="326.2657" y="28.750414"/>
			<point x="308.71213" y="46.83585" type="curve"/>
			<point x="291.15857" y="64.92129"/>
			<point x="277.63828" y="86.98193"/>
			<point x="270" y="111" type="curve" smooth="yes" identifier="48e5d25f-e328-45b1-8606-593bfb3ca0e7"/>
			<point x="265.95953" y="123.69873"/>
			<point x="263.56528" y="136.85144"/>
			<point x="260.4196" y="149.80087" type="curve"/>
			<point x="257.27386" y="162.75029"/>
			<point x="253.30449" y="175.6671"/>
			<point x="246.43236" y="187.08449" type="curve"/>
			<point x="239.56021" y="198.50188"/>
			<point x="229.50795" y="208.4028"/>
			<point x="217" y="213" type="curve" smooth="yes" identifier="7354c5eb-6d12-41a3-858f-ca9fe6548385"/>
			<point x="209.38307" y="215.80077"/>
			<point x="200.27805" y="216.75137"/>
			<point x="191.17126" y="215.24353" type="curve"/>
			<point x="182.06447" y="213.73569"/>
			<point x="173.00868" y="209.79495"/>
			<point x="165.44138" y="203.94905" type="curve"/>
			<point x="157.87405" y="198.10315"/>
			<point x="151.82315" y="190.37296"/>
			<point x="148.13422" y="182.0429" type="curve"/>
			<point x="144.44527" y="173.71283"/>
			<point x="143.15866" y="164.82957"/>
			<point x="144" y="157" type="curve" smooth="yes" identifier="01f88cf2-e1a1-4e58-a4e2-ccbb2c1acda1"/>
			<point x="145.00223" y="147.67343"/>
			<point x="148.98343" y="138.83919"/>
			<point x="154.38281" y="131.16872" type="curve"/>
			<point x="159.78218" y="123.49824"/>
			<point x="166.57092" y="116.90764"/>
			<point x="173.66113" y="110.7661" type="curve"/>
			<point x="180.75133" y="104.624565"/>
			<point x="188.18462" y="98.88251"/>
			<point x="195.15651" y="92.60698" type="curve"/>
			<point x="202.12839" y="86.33145"/>
			<point x="208.67584" y="79.46883"/>
			<point x="213.62813" y="71.50237" type="curve"/>
			<point x="218.5804" y="63.53592"/>
			<point x="221.88963" y="54.379616"/>
			<point x="222" y="45" type="curve" smooth="yes" identifier="cd67726a-5850-4ca3-a87b-2b76b9bb782b"/>
			<point x="222.13315" y="33.69925"/>
			<point x="217.54182" y="22.586063"/>
			<point x="210.21428" y="13.981885" type="curve"/>
			<point x="202.88675" y="5.377705"/>
			<point x="192.962" y="-0.80481976"/>
			<point x="182.31459" y="-4.5939517" type="curve"/>
			<point x="171.66719" y="-8.383084"/>
			<point x="160.30069" y="-9.862186"/>
			<point x="149" y="-10" type="curve" smooth="yes" identifier="4992af94-1647-4bad-b7c9-1255af054aed"/>
		</contour>
		<contour identifier="d28fa7c5-3cbc-4625-8c6b-e9dfc5536c2f">
			<point x="357.40952" y="523.56903"/>
			<point x="364.6219" y="533.11414"/>
			<point x="368.83804" y="543.78723" type="curve"/>
			<point x="373.0542" y="554.4604"/>
			<point x="374.32013" y="566.2172"/>
			<point x="372.97263" y="577.6135" type="curve"/>
			<point x="371.62512" y="589.0098"/>
			<point x="367.70596" y="600.0434"/>
			<point x="362" y="610" type="curve" smooth="yes" identifier="cfb44387-9982-474a-b607-ff6e6ed82710"/>
			<point x="356.36783" y="619.82776"/>
			<point x="348.96008" y="628.6773"/>
			<point x="340.027" y="635.64197" type="curve"/>
			<point x="331.0939" y="642.6066"/>
			<point x="320.62332" y="647.6595"/>
			<point x="309.52692" y="649.93463" type="curve"/>
			<point x="298.43048" y="652.2098"/>
			<point x="286.71777" y="651.66547"/>
			<point x="276" y="648" type="curve" smooth="yes" identifier="afc55af4-e3f0-41f5-91b0-ccff4d0f676a"/>
			<point x="266.06003" y="644.6005"/>
			<point x="257.0658" y="638.5457"/>
			<point x="250.03825" y="630.73724" type="curve"/>
			<point x="243.01073" y="622.9287"/>
			<point x="237.94928" y="613.3924"/>
			<point x="235.2418" y="603.24207" type="curve"/>
			<point x="232.53433" y="593.0918"/>
			<point x="232.1695" y="582.3445"/>
			<point x="234" y="572" type="curve" smooth="yes" identifier="81aedeac-1455-4110-a89a-0fa1c5789d82"/>
			<point x="236.14793" y="559.86163"/>
			<point x="241.49493" y="547.67267"/>
			<point x="249.54665" y="537.334" type="curve"/>
			<point x="257.59833" y="526.99524"/>
			<point x="268.31146" y="518.54333"/>
			<point x="280.1348" y="513.1579" type="curve"/>
			<point x="291.95813" y="507.77243"/>
			<point x="304.854" y="505.47662"/>
			<point x="316.81406" y="506.33374" type="curve"/>
			<point x="328.7741" y="507.1909"/>
			<point x="339.71844" y="511.21838"/>
			<point x="348" y="517" type="curve" smooth="yes" identifier="f77d8ca3-e439-4c79-8cfa-aab779f57c88"/>
		</contour>
	</outline>
</glyph>
<glyph name="S" format="2">
	<unicode hex="0053"/>
	<advance width="550"/>
	<outline>
		<contour identifier="77dfcb6e-2490-4bd4-83f9-fc4e0f32b3ba">
			<point x="240.22266" y="-8.328647"/>
			<point x="198.99945" y="-4.621549"/>
			<point x="159.54378" y="6.5516458" type="curve"/>
			<point x="120.088104" y="17.724842"/>
			<point x="82.31433" y="36.891235"/>
			<point x="54.24254" y="65.080986" type="curve"/>
			<point x="26.17075" y="93.270744"/>
			<point x="8.794215" y="130.89015"/>
			<point x="9" y="167" type="curve" smooth="yes" identifier="992fce07-aeaa-4846-a05a-5de42e7a887a"/>
			<point x="9.113777" y="187.06314"/>
			<point x="14.461794" y="207.10062"/>
			<point x="24.546019" y="224.44568" type="curve"/>
			<point x="34.63024" y="241.79074"/>
			<point x="49.44555" y="256.38614"/>
			<point x="67.04277" y="266.0236" type="curve"/>
			<point x="84.639984" y="275.66104"/>
			<point x="104.97792" y="280.288"/>
			<point x="125" y="279" type="curve" smooth="yes" identifier="4b5d1cdd-fe36-4710-a084-df90b3eacadd"/>
			<point x="144.85262" y="277.723"/>
			<point x="164.16544" y="270.6988"/>
			<point x="180.82312" y="259.82318" type="curve"/>
			<point x="197.4808" y="248.94757"/>
			<point x="211.52904" y="234.30223"/>
			<point x="222.64104" y="217.8013" type="curve"/>
			<point x="233.75302" y="201.30035"/>
			<point x="241.98128" y="182.96133"/>
			<point x="248" y="164" type="curve" smooth="yes" identifier="0ec6af37-16d4-48c3-a525-a8f615e80ede"/>
			<point x="252.91647" y="148.52087"/>
			<point x="256.39108" y="132.52234"/>
			<point x="261.53113" y="117.03074" type="curve"/>
			<point x="266.67117" y="101.53914"/>
			<point x="273.66302" y="86.34059"/>
			<point x="284.6335" y="74.36462" type="curve"/>
			<point x="295.60397" y="62.38865"/>
			<point x="311.0017" y="53.93472"/>
			<point x="327" y="54" type="curve" smooth="yes" identifier="7022013c-a669-4746-8fc4-841e37457da9"/>
			<point x="339.1365" y="54.047142"/>
			<point x="351.0334" y="58.996872"/>
			<point x="360.24417" y="66.89994" type="curve"/>
			<point x="369.45496" y="74.80302"/>
			<point x="376.0477" y="85.523544"/>
			<point x="379.85104" y="97.048805" type="curve"/>
			<point x="383.65436" y="108.57407"/>
			<point x="384.74994" y="120.88659"/>
			<point x="384" y="133" type="curve" smooth="yes" identifier="0a444b57-4d5d-41c6-a1d1-77e473df323d"/>
			<point x="381.95676" y="166.23569"/>
			<point x="366.1155" y="197.64946"/>
			<point x="343.93192" y="222.48238" type="curve"/>
			<point x="321.74832" y="247.31529"/>
			<point x="293.50873" y="266.06174"/>
			<point x="263.9833" y="281.45767" type="curve"/>
			<point x="234.45787" y="296.8536"/>
			<point x="203.43094" y="309.13544"/>
			<point x="173.11273" y="322.90466" type="curve"/>
			<point x="142.79453" y="336.67392"/>
			<point x="112.92055" y="352.09756"/>
			<point x="87" y="373" type="curve" smooth="yes" identifier="2bcc81e2-e852-42f0-8678-4ff7f3f69ffc"/>
			<point x="63.278217" y="392.11197"/>
			<point x="43.06466" y="415.7887"/>
			<point x="29.158329" y="442.89227" type="curve"/>
			<point x="15.251996" y="469.99588"/>
			<point x="7.7743144" y="500.56174"/>
			<point x="9" y="531" type="curve" smooth="yes" identifier="9aa23fc1-e71f-4d73-8207-c38df8bb6a25"/>
			<point x="9.9607" y="554.85834"/>
			<point x="16.235106" y="578.4072"/>
			<point x="26.549824" y="599.94214" type="curve"/>
			<point x="36.86454" y="621.477"/>
			<point x="51.17675" y="641.0131"/>
			<point x="68.032974" y="657.925" type="curve"/>
			<point x="84.88919" y="674.8369"/>
			<point x="104.27099" y="689.14874"/>
			<point x="125" y="701" type="curve" smooth="yes" identifier="39c074fd-1126-4ffd-bf3f-c967bc5cb2c3"/>
			<point x="171.59991" y="727.6422"/>
			<point x="232.956" y="744.6919"/>
			<point x="294.71237" y="744.50964" type="curve"/>
			<point x="356.46875" y="744.3274"/>
			<point x="418.2516" y="727.4585"/>
			<point x="463.50076" y="698.58167" type="curve"/>
			<point x="508.74997" y="669.70483"/>
			<point x="534.07043" y="627.2972"/>
			<point x="537" y="598" type="curve" smooth="yes" identifier="4f09efcc-7ad5-43dc-b4a4-3ba873bb7f42"/>
			<point x="538.61755" y="581.82355"/>
			<point x="535.3711" y="565.2071"/>
			<point x="527.8805" y="550.7785" type="curve"/>
			<point x="520.3899" y="536.3499"/>
			<point x="508.6941" y="524.15283"/>
			<point x="494.64703" y="515.9691" type="curve"/>
			<point x="480.59998" y="507.7854"/>
			<point x="464.25287" y="503.62903"/>
			<point x="448" y="504" type="curve" smooth="yes" identifier="df616e4f-d229-4a5e-a92c-a32ad943ef74"/>
			<point x="427.48746" y="504.46832"/>
			<point x="407.57016" y="512.02484"/>
			<point x="390.2792" y="523.07056" type="curve"/>
			<point x="372.98828" y="534.1162"/>
			<point x="358.11462" y="548.5531"/>
			<point x="344.32947" y="563.75024" type="curve"/>
			<point x="330.54434" y="578.9474"/>
			<point x="317.72" y="595.00287"/>
			<point x="303.71707" y="609.9996" type="curve"/>
			<point x="289.71414" y="624.9963"/>
			<point x="274.39755" y="639.0234"/>
			<point x="256.6449" y="649.3106" type="curve"/>
			<point x="238.89227" y="659.59784"/>
			<point x="218.49295" y="666.01117"/>
			<point x="198" y="665" type="curve" smooth="yes" identifier="4566d93e-f8ef-4703-bf5f-2beddbd00ab4"/>
			<point x="188.40025" y="664.52625"/>
			<point x="178.84642" y="662.41864"/>
			<point x="170.09874" y="658.43646" type="curve"/>
			<point x="161.35104" y="654.45435"/>
			<point x="153.4249" y="648.5729"/>
			<point x="147.38562" y="641.09576" type="curve"/>
			<point x="141.34634" y="633.6187"/>
			<point x="137.23576" y="624.5317"/>
			<point x="136" y="615" type="curve" smooth="yes" identifier="7967cd6e-d364-44ff-bc53-1583d1ff2030"/>
			<point x="133.71155" y="597.4017"/>
			<point x="142.4" y="573.8772"/>
			<point x="161.26279" y="555.8899" type="curve"/>
			<point x="180.12558" y="537.90265"/>
			<point x="207.39299" y="525.30774"/>
			<point x="236.47313" y="515.96814" type="curve"/>
			<point x="265.55325" y="506.62857"/>
			<point x="296.70737" y="499.79776"/>
			<point x="326.55957" y="490.78543" type="curve"/>
			<point x="356.41177" y="481.77307"/>
			<point x="384.98804" y="470.37076"/>
			<point x="409" y="456" type="curve" smooth="yes" identifier="9b1341a6-1686-4304-92fc-a45a14de0a0d"/>
			<point x="438.71158" y="438.23355"/>
			<point x="464.83414" y="414.531"/>
			<point x="485.56335" y="386.80515" type="curve"/>
			<point x="506.29257" y="359.0793"/>
			<point x="521.6237" y="327.35706"/>
			<point x="530.67084" y="293.94186" type="curve"/>
			<point x="539.7179" y="260.5267"/>
			<point x="542.4865" y="225.44225"/>
			<point x="539" y="191" type="curve" smooth="yes" identifier="fe004f2f-1646-49a6-b15a-fe3c9a17d913"/>
			<point x="535.9046" y="160.42134"/>
			<point x="527.842" y="130.2116"/>
			<point x="513.8755" y="102.83325" type="curve"/>
			<point x="499.90903" y="75.4549"/>
			<point x="479.93985" y="50.962173"/>
			<point x="455" y="33" type="curve" smooth="yes" identifier="15d1a3be-e4af-4cef-a7cc-90cf4cee46de"/>
			<point x="430.2277" y="15.158418"/>
			<point x="401.0444" y="4.0474296"/>
			<point x="371.13782" y="-2.0832412" type="curve"/>
			<point x="341.23123" y="-8.213912"/>
			<point x="310.52417" y="-9.514268"/>
			<point x="280" y="-9" type="curve" smooth="yes" identifier="3c741e1c-2396-4f2a-9a6a-d1bf25450e8f"/>
		</contour>
	</outline>
</glyph>
<glyph name="T" format="2">
	<unicode hex="0054"/>
	<advance width="500"/>
	<outline>
		<contour identifier="25b1d541-a3eb-48f2-8ce1-cbbf94bb360f">
			<point x="247.37971" y="-10.829007"/>
			<point x="208.81909" y="-2.2331204"/>
			<point x="174.09717" y="14.716413" type="curve"/>
			<point x="139.37526" y="31.665945"/>
			<point x="108.591484" y="57.095844"/>
			<point x="86.81156" y="89.01031" type="curve"/>
			<point x="65.03163" y="120.92477"/>
			<point x="52.498116" y="159.36522"/>
			<point x="53" y="198" type="curve" smooth="yes" identifier="dd9685c8-2296-4da3-b066-ed3c6e980f66"/>
			<point x="53.394176" y="228.50046"/>
			<point x="61.734184" y="258.44617"/>
			<point x="73.29653" y="286.67285" type="curve"/>
			<point x="84.85889" y="314.89954"/>
			<point x="99.63282" y="341.6731"/>
			<point x="113.59157" y="368.79477" type="curve"/>
			<point x="127.55032" y="395.91647"/>
			<point x="140.78922" y="423.62286"/>
			<point x="149" y="453" type="curve" smooth="yes" identifier="ced597bc-f5a8-438f-8582-2f5c38105d5a"/>
			<point x="152.03032" y="463.8402"/>
			<point x="154.61276" y="475.61954"/>
			<point x="155.1922" y="487.57858" type="curve"/>
			<point x="155.77162" y="499.53763"/>
			<point x="154.17244" y="511.78378"/>
			<point x="149.24406" y="521.9033" type="curve"/>
			<point x="144.3157" y="532.0228"/>
			<point x="135.7842" y="539.6081"/>
			<point x="127" y="542" type="curve" smooth="yes" identifier="d49778c5-c31b-4adb-a2d1-6e4fb4674c7c"/>
			<point x="121.30222" y="543.55426"/>
			<point x="115.21548" y="543.21576"/>
			<point x="109.465034" y="541.8694" type="curve"/>
			<point x="103.71459" y="540.5231"/>
			<point x="98.24348" y="538.20245"/>
			<point x="92.851524" y="535.79266" type="curve"/>
			<point x="87.45957" y="533.3829"/>
			<point x="82.09467" y="530.8655"/>
			<point x="76.460625" y="529.0941" type="curve"/>
			<point x="70.82658" y="527.32275"/>
			<point x="64.86555" y="526.31036"/>
			<point x="59" y="527" type="curve" smooth="yes" identifier="4c3482f1-016c-4901-ae6d-72dc2278127f"/>
			<point x="48.78855" y="528.1962"/>
			<point x="36.371346" y="535.8739"/>
			<point x="28.012592" y="548.446" type="curve"/>
			<point x="19.653837" y="561.01807"/>
			<point x="15.093523" y="577.70337"/>
			<point x="14.431817" y="594.3928" type="curve"/>
			<point x="13.77011" y="611.0822"/>
			<point x="16.87002" y="627.8011"/>
			<point x="22" y="642" type="curve" smooth="yes" identifier="4739e24d-8e11-4929-a8e4-5518eb0ae2a3"/>
			<point x="26.489754" y="654.4272"/>
			<point x="32.904385" y="666.18774"/>
			<point x="41.2057" y="676.4679" type="curve"/>
			<point x="49.507015" y="686.748"/>
			<point x="59.707363" y="695.53296"/>
			<point x="71.282196" y="701.906" type="curve"/>
			<point x="82.857025" y="708.2791"/>
			<point x="95.81006" y="712.21387"/>
			<point x="109" y="713" type="curve" smooth="yes" identifier="a04b43ba-91f4-4259-9899-f8b178e05eaf"/>
			<point x="124.82946" y="713.9454"/>
			<point x="140.62616" y="710.39294"/>
			<point x="155.63466" y="705.2733" type="curve"/>
			<point x="170.64317" y="700.15375"/>
			<point x="185.06615" y="693.4679"/>
			<point x="199.89494" y="687.84894" type="curve"/>
			<point x="214.72374" y="682.23004"/>
			<point x="230.1555" y="677.64606"/>
			<point x="246" y="677" type="curve" smooth="yes" identifier="e5a8e856-51e4-4a5d-8973-d5446c77de3a"/>
			<point x="261.773" y="676.3535"/>
			<point x="277.46957" y="679.63165"/>
			<point x="292.5864" y="684.18005" type="curve"/>
			<point x="307.70322" y="688.7284"/>
			<point x="322.40945" y="694.5535"/>
			<point x="337.49585" y="699.2017" type="curve"/>
			<point x="352.58224" y="703.85"/>
			<point x="368.2173" y="707.3334"/>
			<point x="384" y="707" type="curve" smooth="yes" identifier="89f22b96-d485-49fd-95c8-3312930f5385"/>
			<point x="402.66623" y="706.6074"/>
			<point x="421.1375" y="700.76556"/>
			<point x="436.8362" y="690.6594" type="curve"/>
			<point x="452.53488" y="680.5533"/>
			<point x="465.44476" y="666.24286"/>
			<point x="474.21353" y="649.75977" type="curve"/>
			<point x="482.9823" y="633.27673"/>
			<point x="487.6261" y="614.6666"/>
			<point x="488" y="596" type="curve" smooth="yes" identifier="be3d3c09-8dd4-4178-99ba-1d508be29355"/>
			<point x="488.3648" y="577.78766"/>
			<point x="484.61908" y="558.727"/>
			<point x="476.24863" y="541.7903" type="curve"/>
			<point x="467.87817" y="524.8536"/>
			<point x="454.78064" y="510.1543"/>
			<point x="439.00204" y="501.0516" type="curve"/>
			<point x="423.22342" y="491.9489"/>
			<point x="404.85687" y="488.74557"/>
			<point x="389" y="492" type="curve" smooth="yes" identifier="9917518e-8243-48bb-ae1f-7506cd2e6573"/>
			<point x="377.17474" y="494.427"/>
			<point x="366.29962" y="500.29797"/>
			<point x="356.47186" y="507.30807" type="curve"/>
			<point x="346.64407" y="514.3182"/>
			<point x="337.71783" y="522.4967"/>
			<point x="328.41968" y="530.1955" type="curve"/>
			<point x="319.12152" y="537.8943"/>
			<point x="309.3291" y="545.1884"/>
			<point x="298.29855" y="550.0929" type="curve"/>
			<point x="287.268" y="554.9973"/>
			<point x="274.8311" y="557.39844"/>
			<point x="263" y="555" type="curve" smooth="yes" identifier="3d0a0d71-4d29-4b75-bf3f-c31522a4e44e"/>
			<point x="252.24382" y="552.8199"/>
			<point x="242.49939" y="546.7574"/>
			<point x="234.86504" y="538.8729" type="curve"/>
			<point x="227.2307" y="530.9884"/>
			<point x="221.59828" y="521.34357"/>
			<point x="217.29254" y="511.24857" type="curve"/>
			<point x="212.98679" y="501.15356"/>
			<point x="209.95332" y="490.57007"/>
			<point x="207" y="480" type="curve" smooth="yes" identifier="4ff055c8-2966-4ff6-b301-31b84e29eebe"/>
			<point x="198.03319" y="447.90027"/>
			<point x="188.5154" y="412.42664"/>
			<point x="183.38774" y="376.17532" type="curve"/>
			<point x="178.26009" y="339.92398"/>
			<point x="178.07675" y="302.31924"/>
			<point x="188.51685" y="270.668" type="curve"/>
			<point x="198.95694" y="239.01675"/>
			<point x="221.62253" y="215.10378"/>
			<point x="244" y="208" type="curve" smooth="yes" identifier="3a9a9a64-46fa-400f-9d1c-42904c8eb61e"/>
			<point x="256.21442" y="204.1181"/>
			<point x="269.42026" y="204.11964"/>
			<point x="282.03815" y="206.36682" type="curve"/>
			<point x="294.65604" y="208.614"/>
			<point x="306.78116" y="213.03336"/>
			<point x="318.648" y="217.87477" type="curve"/>
			<point x="330.51483" y="222.71619"/>
			<point x="342.2149" y="228.00613"/>
			<point x="354.35782" y="232.1063" type="curve"/>
			<point x="366.5007" y="236.20644"/>
			<point x="379.18408" y="239.11453"/>
			<point x="392" y="239" type="curve" smooth="yes" identifier="75d9f62a-c60e-4425-8ac2-fd39ad933353"/>
			<point x="409.42184" y="238.84966"/>
			<point x="426.6655" y="232.98924"/>
			<point x="440.91055" y="222.95824" type="curve"/>
			<point x="455.15564" y="212.92722"/>
			<point x="466.40198" y="198.8188"/>
			<point x="473.54053" y="182.9259" type="curve"/>
			<point x="480.67908" y="167.033"/>
			<point x="483.75198" y="149.40625"/>
			<point x="483" y="132" type="curve" smooth="yes" identifier="c3162e3d-cc49-4583-a2f9-09c29101e8fc"/>
			<point x="481.70117" y="101.930046"/>
			<point x="468.94693" y="72.82889"/>
			<point x="449.2683" y="50.055206" type="curve"/>
			<point x="429.58966" y="27.281525"/>
			<point x="403.2667" y="10.688318"/>
			<point x="374.8803" y="0.68320364" type="curve"/>
			<point x="346.49393" y="-9.321911"/>
			<point x="316.08417" y="-12.911815"/>
			<point x="286" y="-12" type="curve" smooth="yes" identifier="58732565-a88e-463f-bc47-da696e808ed5"/>
		</contour>
	</outline>
</glyph>
<glyph name="U" format="2">
	<unicode hex="0055"/>
	<advance width="500"/>
	<outline>
		<contour identifier="41648e88-5d59-4a2d-8344-ae19e6495bb7">
			<point x="235.54639" y="-6.7445855"/>
			<point x="202.8578" y="-1.5313574"/>
			<point x="172.64021" y="10.329857" type="curve"/>
			<point x="142.4226" y="22.19107"/>
			<point x="114.72866" y="40.770836"/>
			<point x="93.117035" y="64.99333" type="curve"/>
			<point x="71.50541" y="89.21582"/>
			<point x="56.09816" y="119.11577"/>
			<point x="50" y="151" type="curve" smooth="yes" identifier="8597bbf0-92b4-48c9-befc-eaa19c62befb"/>
			<point x="45.180447" y="176.19127"/>
			<point x="46.143925" y="202.17696"/>
			<point x="49.398705" y="227.61775" type="curve"/>
			<point x="52.653484" y="253.05856"/>
			<point x="58.166687" y="278.14996"/>
			<point x="62.440666" y="303.43948" type="curve"/>
			<point x="66.714645" y="328.72903"/>
			<point x="69.75571" y="354.41202"/>
			<point x="68" y="380" type="curve" smooth="yes" identifier="2558c6a5-cd6c-4735-a942-e53887feaf5d"/>
			<point x="66.184586" y="406.50858"/>
			<point x="59.258984" y="432.39835"/>
			<point x="51.301044" y="457.74933" type="curve"/>
			<point x="43.343105" y="483.1003"/>
			<point x="34.307896" y="508.15225"/>
			<point x="28.076107" y="533.9818" type="curve"/>
			<point x="21.84432" y="559.81134"/>
			<point x="18.452635" y="586.6672"/>
			<point x="22" y="613" type="curve" smooth="yes" identifier="bdab9600-769a-41e8-848f-b536054bada5"/>
			<point x="24.486744" y="631.4694"/>
			<point x="30.499117" y="649.91315"/>
			<point x="40.598213" y="665.9649" type="curve"/>
			<point x="50.69731" y="682.01666"/>
			<point x="65.00146" y="695.58264"/>
			<point x="81.83532" y="703.5779" type="curve"/>
			<point x="98.66918" y="711.5731"/>
			<point x="117.995544" y="713.7329"/>
			<point x="135" y="709" type="curve" smooth="yes" identifier="3f77d445-1f1a-482d-98e5-eed867d99bb6"/>
			<point x="150.67491" y="704.6373"/>
			<point x="164.40096" y="694.6066"/>
			<point x="174.9471" y="682.2165" type="curve"/>
			<point x="185.49323" y="669.8264"/>
			<point x="193.04657" y="655.1424"/>
			<point x="199" y="640" type="curve" smooth="yes" identifier="d29ac796-415c-4f36-9209-50d6d7f37096"/>
			<point x="209.81238" y="612.49866"/>
			<point x="215.6088" y="583.07465"/>
			<point x="216.47879" y="553.537" type="curve"/>
			<point x="217.34877" y="523.99927"/>
			<point x="213.3115" y="494.35754"/>
			<point x="205" y="466" type="curve" smooth="yes" identifier="2683fc27-9537-4067-b24a-3542d29c4e15"/>
			<point x="199.34743" y="446.70865"/>
			<point x="191.74693" y="428.0531"/>
			<point x="185.13867" y="409.06787" type="curve"/>
			<point x="178.5304" y="390.08264"/>
			<point x="172.87813" y="370.58078"/>
			<point x="171.33302" y="350.5378" type="curve"/>
			<point x="169.78792" y="330.49484"/>
			<point x="172.55647" y="309.74622"/>
			<point x="182" y="292" type="curve" smooth="yes" identifier="5c9ce0e0-5df4-4adc-9faa-2c5472200ff0"/>
			<point x="186.83107" y="282.91974"/>
			<point x="193.35329" y="274.7413"/>
			<point x="201.1406" y="268.02206" type="curve"/>
			<point x="208.9279" y="261.30283"/>
			<point x="217.97592" y="256.0476"/>
			<point x="227.67583" y="252.62675" type="curve"/>
			<point x="237.37573" y="249.20592"/>
			<point x="247.7215" y="247.6224"/>
			<point x="258" y="248" type="curve" smooth="yes" identifier="a8f25d51-0bd4-4d05-857f-9338bb8a2bcc"/>
			<point x="269.68936" y="248.42941"/>
			<point x="281.2551" y="251.39322"/>
			<point x="291.81616" y="256.4221" type="curve"/>
			<point x="302.3772" y="261.45096"/>
			<point x="311.9337" y="268.52887"/>
			<point x="320" y="277" type="curve" smooth="yes" identifier="3692a8b9-345f-465c-9672-dd031d6d32fc"/>
			<point x="329.8211" y="287.31396"/>
			<point x="337.43692" y="299.69714"/>
			<point x="342.3528" y="313.06372" type="curve"/>
			<point x="347.2687" y="326.43033"/>
			<point x="349.48984" y="340.7665"/>
			<point x="349" y="355" type="curve" smooth="yes" identifier="82e83549-d8d2-4ad8-b9f7-a5d5f2ace425"/>
			<point x="348.2267" y="377.763"/>
			<point x="340.60162" y="399.8642"/>
			<point x="330.0691" y="420.0587" type="curve"/>
			<point x="319.53656" y="440.25317"/>
			<point x="306.12415" y="458.77832"/>
			<point x="292.9126" y="477.33115" type="curve"/>
			<point x="279.70105" y="495.88394"/>
			<point x="266.5782" y="514.6501"/>
			<point x="256.70944" y="535.1771" type="curve"/>
			<point x="246.84068" y="555.70416"/>
			<point x="240.28867" y="578.235"/>
			<point x="241" y="601" type="curve" smooth="yes" identifier="3b283c21-b523-4861-9c3c-a84514177e1c"/>
			<point x="241.65918" y="622.3993"/>
			<point x="248.84723" y="643.5078"/>
			<point x="261.11142" y="661.0564" type="curve"/>
			<point x="273.37564" y="678.60504"/>
			<point x="290.64145" y="692.5621"/>
			<point x="310.2374" y="701.1855" type="curve"/>
			<point x="329.83337" y="709.8089"/>
			<point x="351.69498" y="713.11206"/>
			<point x="373" y="711" type="curve" smooth="yes" identifier="6bab5266-b98f-48b4-ae79-128571e165d3"/>
			<point x="394.86188" y="708.83276"/>
			<point x="416.10913" y="700.98895"/>
			<point x="434.26422" y="688.6184" type="curve"/>
			<point x="452.4193" y="676.24786"/>
			<point x="467.46115" y="659.39136"/>
			<point x="477.89435" y="640.05774" type="curve"/>
			<point x="488.32755" y="620.7242"/>
			<point x="494.15378" y="598.9527"/>
			<point x="495" y="577" type="curve" smooth="yes" identifier="59c59511-292c-4076-b397-82f386814661"/>
			<point x="495.87292" y="554.3924"/>
			<point x="491.54932" y="531.86725"/>
			<point x="485.4087" y="510.09204" type="curve"/>
			<point x="479.2681" y="488.31683"/>
			<point x="471.3082" y="467.0991"/>
			<point x="464.66882" y="445.47073" type="curve"/>
			<point x="458.02945" y="423.8424"/>
			<point x="452.6866" y="401.61404"/>
			<point x="452" y="379" type="curve" smooth="yes" identifier="a4eb019c-0da3-4bed-860a-a8ee97f9db6d"/>
			<point x="451.34836" y="357.61374"/>
			<point x="454.87408" y="336.29733"/>
			<point x="459.80106" y="315.47617" type="curve"/>
			<point x="464.72806" y="294.655"/>
			<point x="471.06018" y="274.18988"/>
			<point x="476.1574" y="253.40973" type="curve"/>
			<point x="481.25464" y="232.62958"/>
			<point x="485.12646" y="211.3958"/>
			<point x="485" y="190" type="curve" smooth="yes" identifier="f3ab49a8-8b35-42cc-8d76-6c41296fb8f5"/>
			<point x="484.7891" y="154.04247"/>
			<point x="473.03" y="118.42324"/>
			<point x="452.85156" y="88.660515" type="curve"/>
			<point x="432.67316" y="58.89779"/>
			<point x="404.2608" y="34.97862"/>
			<point x="372.05655" y="18.98259" type="curve"/>
			<point x="339.85226" y="2.9865615"/>
			<point x="303.94867" y="-5.1751466"/>
			<point x="268" y="-6" type="curve" smooth="yes" identifier="5edb1bd8-6c6e-4b5a-b56e-d61dccb13e86"/>
		</contour>
	</outline>
</glyph>
<glyph name="V" format="2">
	<unicode hex="0056"/>
	<advance width="600"/>
	<outline>
		<contour identifier="b3c6572c-b2a6-4f20-9b1e-1d95caf7c1aa">
			<point x="273.73428" y="-14.247269"/>
			<point x="251.35646" y="-10.894475"/>
			<point x="230.42531" y="-3.2977672" type="curve"/>
			<point x="209.49416" y="4.2989407"/>
			<point x="190.03455" y="16.19076"/>
			<point x="174.33301" y="31.979519" type="curve"/>
			<point x="158.63147" y="47.768276"/>
			<point x="146.76442" y="67.49199"/>
			<point x="141" y="89" type="curve" smooth="yes" identifier="e036b575-f5c3-4213-aa9e-a7d75ac96fa0"/>
			<point x="136.8821" y="104.364075"/>
			<point x="135.88397" y="120.389595"/>
			<point x="135.68336" y="136.29468" type="curve"/>
			<point x="135.48274" y="152.19977"/>
			<point x="136.05817" y="168.12889"/>
			<point x="135" y="184" type="curve" smooth="yes" identifier="dc332381-7b8e-4a70-866d-1ccc688a7b81"/>
			<point x="132.2952" y="224.63506"/>
			<point x="118.939255" y="263.8828"/>
			<point x="102.17433" y="300.99698" type="curve"/>
			<point x="85.40941" y="338.11115"/>
			<point x="65.17348" y="373.55518"/>
			<point x="47.649147" y="410.31686" type="curve"/>
			<point x="30.124817" y="447.07855"/>
			<point x="15.204236" y="485.60892"/>
			<point x="10" y="526" type="curve" smooth="yes" identifier="0f61e11c-c05e-4f58-b077-c389691e6bb5"/>
			<point x="6.5282345" y="552.9232"/>
			<point x="7.303301" y="582.1792"/>
			<point x="14.546821" y="609.9922" type="curve"/>
			<point x="21.79034" y="637.8051"/>
			<point x="35.81901" y="664.12335"/>
			<point x="55.51786" y="682.80133" type="curve"/>
			<point x="75.216705" y="701.4793"/>
			<point x="100.648224" y="711.6872"/>
			<point x="123" y="711" type="curve" smooth="yes" identifier="7b71c737-9298-45b0-834d-cebf7eedaa3f"/>
			<point x="134.6174" y="710.6428"/>
			<point x="146.11868" y="707.55347"/>
			<point x="156.45206" y="702.2324" type="curve"/>
			<point x="166.78543" y="696.91144"/>
			<point x="175.94823" y="689.3779"/>
			<point x="183.33525" y="680.4044" type="curve"/>
			<point x="190.72226" y="671.4309"/>
			<point x="196.33908" y="661.0313"/>
			<point x="200" y="650" type="curve" smooth="yes" identifier="89b7595d-ff49-42b9-a251-f2760f2638e2"/>
			<point x="208.7548" y="623.6393"/>
			<point x="206.12273" y="594.59015"/>
			<point x="198.04108" y="568.0153" type="curve"/>
			<point x="189.95944" y="541.4404"/>
			<point x="176.70665" y="516.79095"/>
			<point x="164.01263" y="492.08475" type="curve"/>
			<point x="151.31862" y="467.3785"/>
			<point x="138.99538" y="442.1218"/>
			<point x="133" y="415" type="curve" smooth="yes" identifier="012fc295-b161-47ae-880d-f38030898eec"/>
			<point x="126.90643" y="387.4633"/>
			<point x="127.531265" y="357.75745"/>
			<point x="136.00006" y="330.26617" type="curve"/>
			<point x="144.46884" y="302.7749"/>
			<point x="160.90129" y="277.64813"/>
			<point x="182.92302" y="260.02866" type="curve"/>
			<point x="204.94475" y="242.4092"/>
			<point x="232.4898" y="232.60573"/>
			<point x="259" y="233" type="curve" smooth="yes" identifier="ad2fd50b-9621-450b-81fd-0ab182cb622d"/>
			<point x="285.1398" y="233.38872"/>
			<point x="311.16263" y="243.58139"/>
			<point x="331.62955" y="260.57913" type="curve"/>
			<point x="352.09644" y="277.5769"/>
			<point x="367.01346" y="301.1388"/>
			<point x="374.7686" y="326.7493" type="curve"/>
			<point x="382.52368" y="352.35977"/>
			<point x="383.2372" y="379.91574"/>
			<point x="378" y="406" type="curve" smooth="yes" identifier="c5bd19ad-455e-4964-9a1f-827edc696618"/>
			<point x="374.00314" y="425.9116"/>
			<point x="366.63315" y="444.98364"/>
			<point x="358.58456" y="463.6295" type="curve"/>
			<point x="350.53598" y="482.2753"/>
			<point x="341.76645" y="500.6318"/>
			<point x="334.78073" y="519.7013" type="curve"/>
			<point x="327.795" y="538.7709"/>
			<point x="322.58997" y="558.69977"/>
			<point x="322" y="579" type="curve" smooth="yes" identifier="ce82e31f-8feb-4631-add0-e59fd89f9e85"/>
			<point x="321.3208" y="602.3305"/>
			<point x="326.87836" y="625.8177"/>
			<point x="337.96814" y="646.3552" type="curve"/>
			<point x="349.0579" y="666.89276"/>
			<point x="365.65503" y="684.4275"/>
			<point x="385.56885" y="696.6018" type="curve"/>
			<point x="405.48264" y="708.7761"/>
			<point x="428.66385" y="715.5559"/>
			<point x="452" y="716" type="curve" smooth="yes" identifier="2dfda3dc-7c9b-462b-9b63-9b9ef8d7875e"/>
			<point x="473.395" y="716.4071"/>
			<point x="494.8922" y="711.4954"/>
			<point x="513.90686" y="701.67944" type="curve"/>
			<point x="532.9216" y="691.86346"/>
			<point x="549.4054" y="677.1478"/>
			<point x="561.15985" y="659.2664" type="curve"/>
			<point x="572.9143" y="641.3851"/>
			<point x="579.8949" y="620.3703"/>
			<point x="581" y="599" type="curve" smooth="yes" identifier="45203c90-d860-49ed-b1e2-ff9f440c524c"/>
			<point x="582.3705" y="572.72723"/>
			<point x="574.96497" y="546.56537"/>
			<point x="563.42053" y="522.9251" type="curve"/>
			<point x="551.87604" y="499.28485"/>
			<point x="536.291" y="477.8755"/>
			<point x="520.3732" y="456.92886" type="curve"/>
			<point x="504.4555" y="435.9822"/>
			<point x="488.069" y="415.28384"/>
			<point x="474.66693" y="392.64493" type="curve"/>
			<point x="461.26486" y="370.006"/>
			<point x="450.845" y="345.1542"/>
			<point x="448" y="319" type="curve" smooth="yes" identifier="68fc8e2e-b2f3-43c0-965e-e46032c9e354"/>
			<point x="445.7728" y="298.62387"/>
			<point x="448.1874" y="277.99518"/>
			<point x="452.21054" y="257.8964" type="curve"/>
			<point x="456.23367" y="237.79759"/>
			<point x="461.85715" y="218.05185"/>
			<point x="466.14938" y="198.00879" type="curve"/>
			<point x="470.4416" y="177.96574"/>
			<point x="473.4061" y="157.4492"/>
			<point x="472" y="137" type="curve" smooth="yes" identifier="24ac1d64-f993-4e6c-a2c5-be7bd3b0292f"/>
			<point x="470.05896" y="108.74304"/>
			<point x="459.63538" y="81.23364"/>
			<point x="443.02545" y="58.29167" type="curve"/>
			<point x="426.41553" y="35.349705"/>
			<point x="403.73212" y="16.972078"/>
			<point x="378.19278" y="4.7260375" type="curve"/>
			<point x="352.65344" y="-7.520004"/>
			<point x="324.3218" y="-13.685416"/>
			<point x="296" y="-14" type="curve" smooth="yes" identifier="2ac9e0fc-8768-48dc-a0c4-b2e248a701b6"/>
		</contour>
	</outline>
</glyph>
<glyph name="W" format="2">
	<unicode hex="0057"/>
	<advance width="700"/>
	<outline>
		<contour identifier="b540dc85-c2ba-4e32-a61a-91db62865ad2">
			<point x="125.72979" y="-18.555077"/>
			<point x="100.17845" y="-8.386113"/>
			<point x="79.37585" y="7.7217464" type="curve"/>
			<point x="58.573235" y="23.829605"/>
			<point x="42.482376" y="45.720562"/>
			<point x="32.23297" y="69.95197" type="curve"/>
			<point x="21.98357" y="94.18339"/>
			<point x="17.489344" y="120.69504"/>
			<point x="18" y="147" type="curve" smooth="yes" identifier="5784a7b3-c72d-4cc3-ab63-7f917c98190b"/>
			<point x="18.476225" y="171.57693"/>
			<point x="23.234596" y="195.88242"/>
			<point x="29.235788" y="219.72017" type="curve"/>
			<point x="35.23698" y="243.55792"/>
			<point x="42.49511" y="267.07288"/>
			<point x="48.112442" y="291.004" type="curve"/>
			<point x="53.72977" y="314.93512"/>
			<point x="57.70882" y="339.42868"/>
			<point x="57" y="364" type="curve" smooth="yes" identifier="02fd1573-e835-454b-a37d-eb6e920b3159"/>
			<point x="56.049244" y="397.0319"/>
			<point x="46.69016" y="429.1864"/>
			<point x="36.93733" y="460.76" type="curve"/>
			<point x="27.1845" y="492.3336"/>
			<point x="16.899569" y="524.0819"/>
			<point x="14" y="557" type="curve" smooth="yes" identifier="f049d036-d002-461c-b7e7-b2dd3bc0bef8"/>
			<point x="12.318418" y="576.0854"/>
			<point x="13.165257" y="595.45917"/>
			<point x="17.388855" y="614.1472" type="curve"/>
			<point x="21.612453" y="632.8352"/>
			<point x="29.259344" y="650.8326"/>
			<point x="40.513485" y="666.3382" type="curve"/>
			<point x="51.767628" y="681.8439"/>
			<point x="66.68171" y="694.80505"/>
			<point x="84" y="703" type="curve" smooth="yes" identifier="c8943fe4-a09f-473c-9f36-2aa1c254bfc9"/>
			<point x="99.86619" y="710.5079"/>
			<point x="117.668526" y="713.93646"/>
			<point x="135.17523" y="712.66394" type="curve"/>
			<point x="152.68195" y="711.39136"/>
			<point x="169.84811" y="705.3992"/>
			<point x="184.2333" y="695.3408" type="curve"/>
			<point x="198.6185" y="685.2825"/>
			<point x="210.16682" y="671.1682"/>
			<point x="217" y="655" type="curve" smooth="yes" identifier="410d89f3-6a87-4233-89e4-15678de6ff95"/>
			<point x="225.76196" y="634.26776"/>
			<point x="226.62096" y="610.73004"/>
			<point x="222.02322" y="588.69696" type="curve"/>
			<point x="217.42549" y="566.6638"/>
			<point x="207.6116" y="545.9984"/>
			<point x="195.74231" y="526.8747" type="curve"/>
			<point x="183.87302" y="507.751"/>
			<point x="169.92975" y="490.0157"/>
			<point x="156.31932" y="472.08936" type="curve"/>
			<point x="142.7089" y="454.16306"/>
			<point x="129.35071" y="435.92252"/>
			<point x="118.808105" y="416.0366" type="curve"/>
			<point x="108.265495" y="396.15067"/>
			<point x="100.56835" y="374.453"/>
			<point x="99" y="352" type="curve" smooth="yes" identifier="1065b214-8bc2-46fd-9a15-40160f4eafb3"/>
			<point x="97.621864" y="332.26917"/>
			<point x="101.07415" y="312.17807"/>
			<point x="109.26934" y="294.17685" type="curve"/>
			<point x="117.46453" y="276.17563"/>
			<point x="130.41742" y="260.31897"/>
			<point x="146.61702" y="248.97096" type="curve"/>
			<point x="162.81664" y="237.62294"/>
			<point x="182.23938" y="230.85027"/>
			<point x="202" y="230" type="curve" smooth="yes" identifier="0abbab5b-71c8-4095-a45b-ddaf6402a615"/>
			<point x="218.53337" y="229.2886"/>
			<point x="235.2881" y="232.73538"/>
			<point x="249.98615" y="240.33975" type="curve"/>
			<point x="264.68417" y="247.94412"/>
			<point x="277.25882" y="259.7366"/>
			<point x="285.384" y="274.15326" type="curve"/>
			<point x="293.50922" y="288.5699"/>
			<point x="297.08902" y="305.5837"/>
			<point x="295" y="322" type="curve" smooth="yes" identifier="0a2e1e18-0b8a-42a5-ab9e-570fb0ddbeb7"/>
			<point x="293.3513" y="334.9667"/>
			<point x="288.30435" y="347.28137"/>
			<point x="282.19437" y="358.83655" type="curve"/>
			<point x="276.0844" y="370.3917"/>
			<point x="268.88315" y="381.3345"/>
			<point x="262.5084" y="392.74573" type="curve"/>
			<point x="256.13364" y="404.15695"/>
			<point x="250.54097" y="416.17825"/>
			<point x="248" y="429" type="curve" smooth="yes" identifier="9ecfe279-d879-47fd-9f27-6942c69c3403"/>
			<point x="245.36858" y="442.27106"/>
			<point x="246.11919" y="456.22278"/>
			<point x="250.3445" y="469.0755" type="curve"/>
			<point x="254.5698" y="481.92822"/>
			<point x="262.28" y="493.64307"/>
			<point x="272.54083" y="502.46127" type="curve"/>
			<point x="282.80167" y="511.27948"/>
			<point x="295.59695" y="517.1551"/>
			<point x="309" y="519" type="curve" smooth="yes" identifier="ecacabbe-16d9-4da1-86ae-f014a3b48cc6"/>
			<point x="318.67944" y="520.33234"/>
			<point x="328.65735" y="519.5711"/>
			<point x="337.9799" y="516.6458" type="curve"/>
			<point x="347.30243" y="513.7206"/>
			<point x="355.95337" y="508.6235"/>
			<point x="362.92877" y="501.78168" type="curve"/>
			<point x="369.9042" y="494.93988"/>
			<point x="375.182" y="486.35553"/>
			<point x="378" y="477" type="curve" smooth="yes" identifier="5179244f-8be0-4b7b-ba73-26ac448450c6"/>
			<point x="382.28223" y="462.79117"/>
			<point x="380.8072" y="447.3371"/>
			<point x="376.408" y="433.16403" type="curve"/>
			<point x="372.0088" y="418.991"/>
			<point x="364.82162" y="405.8682"/>
			<point x="357.5672" y="392.9221" type="curve"/>
			<point x="350.31274" y="379.976"/>
			<point x="342.9024" y="367.00696"/>
			<point x="338" y="353" type="curve" smooth="yes" identifier="ebcafd3f-34ca-49b8-b6b9-d6d9c292ca77"/>
			<point x="332.34323" y="336.84555"/>
			<point x="330.1458" y="319.39923"/>
			<point x="332.38226" y="302.42975" type="curve"/>
			<point x="334.6187" y="285.46027"/>
			<point x="341.3662" y="269.00543"/>
			<point x="352.28046" y="255.82045" type="curve"/>
			<point x="363.19473" y="242.63545"/>
			<point x="378.3205" y="232.84172"/>
			<point x="395" y="229" type="curve" smooth="yes" identifier="b7495152-f268-43c9-ab3e-def952f6fe41"/>
			<point x="415.1036" y="224.36963"/>
			<point x="440.46783" y="228.43011"/>
			<point x="462.57535" y="241.65843" type="curve"/>
			<point x="484.68283" y="254.88673"/>
			<point x="503.32352" y="276.62488"/>
			<point x="514.9555" y="301.51492" type="curve"/>
			<point x="526.5875" y="326.40497"/>
			<point x="531.3409" y="354.27197"/>
			<point x="530" y="380" type="curve" smooth="yes" identifier="ec32d60b-91aa-41fb-a5b6-c3b1a3bb2ea6"/>
			<point x="528.65845" y="405.74228"/>
			<point x="521.327" y="431.1183"/>
			<point x="509.02" y="453.76782" type="curve"/>
			<point x="496.71295" y="476.41736"/>
			<point x="479.46545" y="496.3274"/>
			<point x="459" y="512" type="curve" smooth="yes" identifier="ee0db3fc-2705-49dd-a281-6cee49d8d494"/>
			<point x="444.20663" y="523.3323"/>
			<point x="427.85104" y="532.4189"/>
			<point x="411.93958" y="542.11884" type="curve"/>
			<point x="396.02808" y="551.8187"/>
			<point x="380.35596" y="562.2948"/>
			<point x="367.59183" y="575.872" type="curve"/>
			<point x="354.82773" y="589.4493"/>
			<point x="345.0591" y="606.47906"/>
			<point x="343" y="625" type="curve" smooth="yes" identifier="fd534b9f-cdaa-4bce-98bc-eeedfc6cc202"/>
			<point x="341.50305" y="638.447"/>
			<point x="344.19077" y="655.4064"/>
			<point x="352.42493" y="671.59644" type="curve"/>
			<point x="360.65906" y="687.78656"/>
			<point x="374.20032" y="703.0681"/>
			<point x="390.87473" y="714.3257" type="curve"/>
			<point x="407.54913" y="725.58325"/>
			<point x="427.31018" y="732.78253"/>
			<point x="446.61533" y="734.65265" type="curve"/>
			<point x="465.9205" y="736.52277"/>
			<point x="484.58527" y="732.92914"/>
			<point x="499" y="726" type="curve" smooth="yes" identifier="97fd9a22-8a11-4f27-a183-70f3c1f5d2a0"/>
			<point x="518.7238" y="716.5258"/>
			<point x="534.31256" y="699.64294"/>
			<point x="544.67395" y="680.3704" type="curve"/>
			<point x="555.0354" y="661.09796"/>
			<point x="560.4616" y="639.49835"/>
			<point x="563.27563" y="617.7988" type="curve"/>
			<point x="566.0896" y="596.0993"/>
			<point x="566.3809" y="574.1644"/>
			<point x="567.0372" y="552.2931" type="curve"/>
			<point x="567.6934" y="530.4217"/>
			<point x="568.73016" y="508.46057"/>
			<point x="573" y="487" type="curve" smooth="yes" identifier="aa02ebe0-7bdd-4a1d-ab15-ca0a7aa0b71f"/>
			<point x="579.19916" y="455.78558"/>
			<point x="592.11346" y="426.2762"/>
			<point x="607.064" y="398.18262" type="curve"/>
			<point x="622.0145" y="370.08902"/>
			<point x="639.06775" y="343.1625"/>
			<point x="654.2783" y="315.20886" type="curve"/>
			<point x="669.4889" y="287.2552"/>
			<point x="682.93445" y="258.02975"/>
			<point x="690" y="227" type="curve" smooth="yes" identifier="cd31089c-b561-46b9-82f1-6db59d1336e8"/>
			<point x="698.50244" y="189.6704"/>
			<point x="697.5185" y="149.40314"/>
			<point x="685.7531" y="112.29724" type="curve"/>
			<point x="673.98773" y="75.19133"/>
			<point x="651.3089" y="41.453518"/>
			<point x="621.1259" y="17.899744" type="curve"/>
			<point x="590.943" y="-5.6540275"/>
			<point x="553.3571" y="-18.656567"/>
			<point x="517" y="-18" type="curve" smooth="yes" identifier="354c0c97-0841-4fd8-a1a6-c54e5e6f2be1"/>
			<point x="487.91843" y="-17.47488"/>
			<point x="459.1984" y="-8.421951"/>
			<point x="434.41168" y="6.7975554" type="curve"/>
			<point x="409.62497" y="22.017063"/>
			<point x="388.7403" y="43.28309"/>
			<point x="372.9201" y="67.69079" type="curve"/>
			<point x="357.0999" y="92.098495"/>
			<point x="346.27917" y="119.59954"/>
			<point x="340" y="148" type="curve" smooth="yes" identifier="22480173-1746-4e6a-89a5-9b2f8c092685"/>
			<point x="338.18637" y="156.20198"/>
			<point x="336.59753" y="165.78438"/>
			<point x="334.65433" y="175.29536" type="curve"/>
			<point x="332.7111" y="184.80637"/>
			<point x="330.2412" y="194.37796"/>
			<point x="325.83557" y="201.53004" type="curve"/>
			<point x="321.42993" y="208.68211"/>
			<point x="314.4541" y="212.46227"/>
			<point x="310" y="212" type="curve" smooth="yes" identifier="d42b1c56-08ef-4ab1-88a2-1ad8fa1ae0dc"/>
			<point x="305.9217" y="211.57722"/>
			<point x="299.8037" y="207.01952"/>
			<point x="296.6055" y="199.07555" type="curve"/>
			<point x="293.4073" y="191.13159"/>
			<point x="292.58047" y="180.67699"/>
			<point x="292.6545" y="169.71025" type="curve"/>
			<point x="292.72855" y="158.74352"/>
			<point x="293.5296" y="147.10547"/>
			<point x="293.68005" y="135.79616" type="curve"/>
			<point x="293.8305" y="124.48683"/>
			<point x="293.30658" y="113.50423"/>
			<point x="292" y="104" type="curve" smooth="yes" identifier="880e08c5-0146-4214-a360-7977396bc8d5"/>
			<point x="288.8921" y="81.378075"/>
			<point x="280.83783" y="59.3941"/>
			<point x="268.17627" y="40.391586" type="curve"/>
			<point x="255.5147" y="21.389072"/>
			<point x="238.22713" y="5.421359"/>
			<point x="218.04353" y="-5.2572684" type="curve"/>
			<point x="197.85994" y="-15.935896"/>
			<point x="174.79996" y="-21.254108"/>
			<point x="152" y="-20" type="curve" smooth="yes" identifier="dc8102bb-f746-447d-98a1-39cfc409e3ba"/>
		</contour>
	</outline>
</glyph>
<glyph name="X" format="2">
	<unicode hex="0058"/>
	<advance width="500"/>
	<outline>
		<contour identifier="3b2810c8-922c-4fdc-acb8-ddc1cad2c49e">
			<point x="110.745415" y="-0.07586806"/>
			<point x="93.08388" y="2.6004624"/>
			<point x="76.50845" y="8.677059" type="curve"/>
			<point x="59.933033" y="14.753656"/>
			<point x="44.44502" y="24.42412"/>
			<point x="33.355618" y="37.67553" type="curve"/>
			<point x="22.266222" y="50.92694"/>
			<point x="15.932782" y="67.88055"/>
			<point x="17" y="84" type="curve" smooth="yes" identifier="1da30236-865c-4fd0-b39a-056d4c95f71a"/>
			<point x="17.945503" y="98.30388"/>
			<point x="24.499514" y="111.845276"/>
			<point x="33.60224" y="122.91935" type="curve"/>
			<point x="42.704967" y="133.99342"/>
			<point x="54.26407" y="142.80038"/>
			<point x="66.30789" y="150.57477" type="curve"/>
			<point x="78.351715" y="158.34917"/>
			<point x="90.97827" y="165.19148"/>
			<point x="103" y="173" type="curve" smooth="yes" identifier="0270e104-cafc-4e1a-a37e-b90956a86ace"/>
			<point x="117.18877" y="182.21448"/>
			<point x="130.55174" y="192.80165"/>
			<point x="142.08618" y="205.17842" type="curve"/>
			<point x="153.62062" y="217.55519"/>
			<point x="163.31155" y="231.75732"/>
			<point x="169.76572" y="247.3961" type="curve"/>
			<point x="176.21988" y="263.03488"/>
			<point x="179.37733" y="280.13788"/>
			<point x="178" y="297" type="curve" smooth="yes" identifier="a2b9893e-d213-435e-8499-4bebbb847f70"/>
			<point x="176.19737" y="319.09314"/>
			<point x="166.70906" y="340.03976"/>
			<point x="153.86925" y="358.10898" type="curve"/>
			<point x="141.02945" y="376.1782"/>
			<point x="124.90504" y="391.64273"/>
			<point x="108.42922" y="406.4719" type="curve"/>
			<point x="91.95341" y="421.3011"/>
			<point x="74.97718" y="435.65863"/>
			<point x="60" y="452" type="curve" smooth="yes" identifier="a210ee32-89a4-41ee-83bd-2cca5678e5aa"/>
			<point x="44.30972" y="469.11652"/>
			<point x="30.890223" y="488.3755"/>
			<point x="20.85484" y="509.3147" type="curve"/>
			<point x="10.819458" y="530.2539"/>
			<point x="4.1937003" y="552.88403"/>
			<point x="2" y="576" type="curve" smooth="yes" identifier="9f1d30f5-1db3-46a1-a05c-aebdc1782615"/>
			<point x="0.13499944" y="595.6523"/>
			<point x="1.4821156" y="615.62494"/>
			<point x="6.195868" y="634.7945" type="curve"/>
			<point x="10.90962" y="653.96405"/>
			<point x="18.998951" y="672.3196"/>
			<point x="30.159258" y="688.60266" type="curve"/>
			<point x="41.319565" y="704.88574"/>
			<point x="55.555008" y="719.07965"/>
			<point x="72" y="730" type="curve" smooth="yes" identifier="3f7f2367-3394-45f3-a91c-12d0beec021c"/>
			<point x="86.74899" y="739.794"/>
			<point x="103.34246" y="746.9651"/>
			<point x="120.76988" y="750.0861" type="curve"/>
			<point x="138.19731" y="753.2071"/>
			<point x="156.46355" y="752.1977"/>
			<point x="173.15874" y="746.30475" type="curve"/>
			<point x="189.85393" y="740.4118"/>
			<point x="204.89526" y="729.5379"/>
			<point x="215" y="715" type="curve" smooth="yes" identifier="10d903da-1780-4308-b616-b93adc55578b"/>
			<point x="228.05525" y="696.21796"/>
			<point x="232.30424" y="672.38086"/>
			<point x="230.80952" y="649.556" type="curve"/>
			<point x="229.3148" y="626.73126"/>
			<point x="222.48782" y="604.61334"/>
			<point x="215" y="583" type="curve" smooth="yes" identifier="710cd37c-71dd-472d-9737-251c30c2ab79"/>
			<point x="210.41504" y="569.7638"/>
			<point x="205.55013" y="556.58856"/>
			<point x="202.2807" y="542.96765" type="curve"/>
			<point x="199.01126" y="529.3467"/>
			<point x="197.36226" y="515.16943"/>
			<point x="199.31314" y="501.29816" type="curve"/>
			<point x="201.26404" y="487.42685"/>
			<point x="207.02551" y="473.83505"/>
			<point x="217" y="464" type="curve" smooth="yes" identifier="24dade3c-3602-42f2-b7d7-3e2ae75d43fe"/>
			<point x="222.44531" y="458.63016"/>
			<point x="229.05652" y="454.46368"/>
			<point x="236.21503" y="451.77255" type="curve"/>
			<point x="243.37354" y="449.0814"/>
			<point x="251.07106" y="447.8615"/>
			<point x="258.7148" y="448.10522" type="curve"/>
			<point x="266.35858" y="448.34894"/>
			<point x="273.94412" y="450.05023"/>
			<point x="281" y="453" type="curve" smooth="yes" identifier="792d747b-1392-4e2c-9ab5-e8744914dd0f"/>
			<point x="301.35886" y="461.5081"/>
			<point x="316.9468" y="480.57828"/>
			<point x="324.81604" y="502.23883" type="curve"/>
			<point x="332.6853" y="523.8994"/>
			<point x="333.52267" y="547.8837"/>
			<point x="331.27847" y="571.1483" type="curve"/>
			<point x="329.0343" y="594.4129"/>
			<point x="323.89636" y="617.2861"/>
			<point x="320" y="640" type="curve" smooth="yes" identifier="dd844aa2-56b1-4f0d-aa83-b835f5d2a2f9"/>
			<point x="316.59494" y="659.8357"/>
			<point x="314.0363" y="680.0015"/>
			<point x="315.70004" y="700.0585" type="curve"/>
			<point x="317.36383" y="720.1154"/>
			<point x="323.5115" y="740.2175"/>
			<point x="336" y="756" type="curve" smooth="yes" identifier="bd5e917f-80e5-43f5-9e79-edbb4c117cf5"/>
			<point x="342.10294" y="763.7128"/>
			<point x="349.6403" y="770.2856"/>
			<point x="358.10657" y="775.2911" type="curve"/>
			<point x="366.57285" y="780.29663"/>
			<point x="375.96268" y="783.7325"/>
			<point x="385.65842" y="785.38354" type="curve"/>
			<point x="395.35416" y="787.03455"/>
			<point x="405.35004" y="786.9004"/>
			<point x="415" y="785" type="curve" smooth="yes" identifier="b4a27c2e-206e-4b2a-970f-f187d1f0abf7"/>
			<point x="429.1821" y="782.2071"/>
			<point x="442.53238" y="775.5997"/>
			<point x="453.68283" y="766.40186" type="curve"/>
			<point x="464.83328" y="757.20404"/>
			<point x="473.80002" y="745.4584"/>
			<point x="480.19528" y="732.49567" type="curve"/>
			<point x="486.59055" y="719.5329"/>
			<point x="490.4403" y="705.3701"/>
			<point x="492" y="691" type="curve" smooth="yes" identifier="b8cdde68-2777-4338-9504-58800677dac5"/>
			<point x="495.2458" y="661.0949"/>
			<point x="488.59772" y="630.7793"/>
			<point x="477.36627" y="602.8741" type="curve"/>
			<point x="466.1348" y="574.9688"/>
			<point x="450.42877" y="549.12506"/>
			<point x="434.7754" y="523.43805" type="curve"/>
			<point x="419.122" y="497.7511"/>
			<point x="403.3766" y="471.93588"/>
			<point x="392.0563" y="444.06653" type="curve"/>
			<point x="380.73605" y="416.19717"/>
			<point x="373.94473" y="385.92514"/>
			<point x="377" y="356" type="curve" smooth="yes" identifier="ba9de9ad-9dec-4611-bd3b-83f87dd77c5d"/>
			<point x="379.45538" y="331.93558"/>
			<point x="388.18277" y="308.87277"/>
			<point x="399.37677" y="287.42938" type="curve"/>
			<point x="410.57077" y="265.98596"/>
			<point x="424.2392" y="245.95244"/>
			<point x="437.3489" y="225.62363" type="curve"/>
			<point x="450.4586" y="205.2948"/>
			<point x="463.10287" y="184.4937"/>
			<point x="472" y="162" type="curve" smooth="yes" identifier="e915daee-b8ff-43d1-807a-9431d1dd7e40"/>
			<point x="480.25052" y="141.14537"/>
			<point x="485.9567" y="116.71653"/>
			<point x="486.35214" y="92.026375" type="curve"/>
			<point x="486.74762" y="67.33622"/>
			<point x="481.5905" y="42.306213"/>
			<point x="470.36334" y="22.891333" type="curve"/>
			<point x="459.1362" y="3.4764514"/>
			<point x="441.37857" y="-9.210712"/>
			<point x="426" y="-12" type="curve" smooth="yes" identifier="3ab62b21-ad4e-4f22-b125-dcfcbbccc0fe"/>
			<point x="412.72626" y="-14.407402"/>
			<point x="396.87546" y="-10.8129225"/>
			<point x="383.56943" y="-1.8512946" type="curve"/>
			<point x="370.26343" y="7.1103334"/>
			<point x="359.55325" y="21.013376"/>
			<point x="352.78897" y="36.493176" type="curve"/>
			<point x="346.0247" y="51.972977"/>
			<point x="343.04895" y="68.95761"/>
			<point x="343" y="85" type="curve" smooth="yes" identifier="ea700875-bb54-43b4-ba23-62940ce7ce5c"/>
			<point x="342.95923" y="98.12523"/>
			<point x="344.82135" y="111.17549"/>
			<point x="346.8014" y="124.150566" type="curve"/>
			<point x="348.78146" y="137.12564"/>
			<point x="350.8876" y="150.12184"/>
			<point x="351.34097" y="163.2393" type="curve"/>
			<point x="351.79437" y="176.35675"/>
			<point x="350.54703" y="189.6875"/>
			<point x="346" y="202" type="curve" smooth="yes" identifier="21367101-d9b5-4012-9a10-4268d019d5d9"/>
			<point x="342.38315" y="211.79538"/>
			<point x="336.70758" y="220.8266"/>
			<point x="329.44083" y="228.32495" type="curve"/>
			<point x="322.17407" y="235.82332"/>
			<point x="313.32275" y="241.78065"/>
			<point x="303.6353" y="245.6774" type="curve"/>
			<point x="293.94788" y="249.57416"/>
			<point x="283.43393" y="251.40543"/>
			<point x="273" y="251" type="curve" smooth="yes" identifier="20a55bd8-fb3c-4ae0-9a95-b0216b1f6326"/>
			<point x="258.12646" y="250.42938"/>
			<point x="243.45961" y="245.27686"/>
			<point x="231.4994" y="236.4168" type="curve"/>
			<point x="219.5392" y="227.55673"/>
			<point x="210.33661" y="215.02618"/>
			<point x="205.4651" y="200.96149" type="curve"/>
			<point x="200.59361" y="186.89677"/>
			<point x="200.07445" y="171.35748"/>
			<point x="204" y="157" type="curve" smooth="yes" identifier="e778a8ef-7a81-4336-8e47-f2654e94f35c"/>
			<point x="206.91621" y="146.34918"/>
			<point x="212.16039" y="136.49263"/>
			<point x="217.73753" y="126.96164" type="curve"/>
			<point x="223.31467" y="117.43066"/>
			<point x="229.28363" y="108.08922"/>
			<point x="233.83633" y="98.02854" type="curve"/>
			<point x="238.38902" y="87.967865"/>
			<point x="241.51003" y="77.03105"/>
			<point x="241" y="66" type="curve" smooth="yes" identifier="ea06c079-7f5f-4823-9405-2980112a0b15"/>
			<point x="240.30927" y="51.01026"/>
			<point x="232.5715" y="35.92744"/>
			<point x="220.74323" y="24.82841" type="curve"/>
			<point x="208.91495" y="13.729378"/>
			<point x="193.34126" y="6.4546924"/>
			<point x="177.16837" y="2.6034596" type="curve"/>
			<point x="160.99547" y="-1.2477732"/>
			<point x="144.19708" y="-1.8667637"/>
			<point x="128" y="-1" type="curve" smooth="yes" identifier="e4f55e86-d515-4e2f-b000-894bfb461dcb"/>
		</contour>
	</outline>
</glyph>
<glyph name="Y" format="2">
	<unicode hex="0059"/>
	<outline>
		<contour identifier="13461478-63a2-4a36-acb5-40929e85512c">
			<point x="195.75156" y="-9.597429"/>
			<point x="174.28099" y="-6.176839"/>
			<point x="154.68549" y="2.06143" type="curve"/>
			<point x="135.08998" y="10.299699"/>
			<point x="117.425476" y="23.447922"/>
			<point x="104.79962" y="40.54882" type="curve"/>
			<point x="92.17376" y="57.64972"/>
			<point x="84.753525" y="78.74459"/>
			<point x="85" y="100" type="curve" smooth="yes" identifier="09fb76f4-8d6b-4929-8610-5784fc2cd9d4"/>
			<point x="85.236176" y="120.3715"/>
			<point x="92.36219" y="140.19327"/>
			<point x="102.4762" y="157.87831" type="curve"/>
			<point x="112.5902" y="175.56335"/>
			<point x="125.63923" y="191.36607"/>
			<point x="138.70886" y="206.9942" type="curve"/>
			<point x="151.77849" y="222.62233"/>
			<point x="164.9977" y="238.25772"/>
			<point x="175.51643" y="255.70508" type="curve"/>
			<point x="186.03516" y="273.15244"/>
			<point x="193.82573" y="292.661"/>
			<point x="195" y="313" type="curve" smooth="yes" identifier="f880fa59-4fc8-4508-a668-544cf24a1054"/>
			<point x="196.30263" y="335.54126"/>
			<point x="189.35973" y="358.05658"/>
			<point x="178.01128" y="377.57626" type="curve"/>
			<point x="166.66283" y="397.09595"/>
			<point x="151.06866" y="413.84375"/>
			<point x="134.27228" y="428.933" type="curve"/>
			<point x="117.4759" y="444.0223"/>
			<point x="99.38906" y="457.59772"/>
			<point x="82" y="472" type="curve" smooth="yes" identifier="5fb76e6c-b8a6-4c51-b687-0cf278136c88"/>
			<point x="61.265526" y="489.1715"/>
			<point x="41.31213" y="507.75085"/>
			<point x="26.343801" y="530.1278" type="curve"/>
			<point x="11.375475" y="552.50476"/>
			<point x="1.6113706" y="579.11414"/>
			<point x="3" y="606" type="curve" smooth="yes" identifier="43269a13-c9c1-4681-830f-567fdc45e1f8"/>
			<point x="4.0100884" y="625.5609"/>
			<point x="10.961621" y="644.7044"/>
			<point x="22.312458" y="660.6671" type="curve"/>
			<point x="33.663292" y="676.6299"/>
			<point x="49.33449" y="689.4077"/>
			<point x="67.034256" y="697.7963" type="curve"/>
			<point x="84.734024" y="706.1849"/>
			<point x="104.414215" y="710.2167"/>
			<point x="124" y="710" type="curve" smooth="yes" identifier="2f6c73cd-a656-482d-b0c4-215eddb1e3ca"/>
			<point x="139.75104" y="709.8256"/>
			<point x="155.56343" y="706.90283"/>
			<point x="169.96295" y="700.51697" type="curve"/>
			<point x="184.36247" y="694.1311"/>
			<point x="197.31015" y="684.20264"/>
			<point x="206.43736" y="671.3644" type="curve"/>
			<point x="215.56456" y="658.5262"/>
			<point x="220.72932" y="642.7351"/>
			<point x="220" y="627" type="curve" smooth="yes" identifier="fc0fd8e7-3db9-4e34-ad27-a4dfe212f9cb"/>
			<point x="219.47064" y="615.55115"/>
			<point x="215.91393" y="604.4369"/>
			<point x="211.39502" y="593.90424" type="curve"/>
			<point x="206.87611" y="583.3716"/>
			<point x="201.37888" y="573.2857"/>
			<point x="196.68875" y="562.8282" type="curve"/>
			<point x="191.99863" y="552.37067"/>
			<point x="188.08882" y="541.4093"/>
			<point x="187" y="530" type="curve" smooth="yes" identifier="962904f3-b7bb-4ba5-9080-13de13647fba"/>
			<point x="185.61166" y="515.4688"/>
			<point x="188.96046" y="500.57544"/>
			<point x="196.12144" y="487.8553" type="curve"/>
			<point x="203.28242" y="475.1351"/>
			<point x="214.18678" y="464.6089"/>
			<point x="226.9794" y="457.57816" type="curve"/>
			<point x="239.772" y="450.54742"/>
			<point x="254.40268" y="446.99237"/>
			<point x="269" y="447" type="curve" smooth="yes" identifier="2317da3a-2475-41fc-a094-bb054afdefbc"/>
			<point x="288.14258" y="447.01"/>
			<point x="308.10712" y="453.33258"/>
			<point x="324.30804" y="465.0557" type="curve"/>
			<point x="340.50897" y="476.7788"/>
			<point x="352.7891" y="493.80017"/>
			<point x="358.50336" y="512.06995" type="curve"/>
			<point x="364.21762" y="530.3398"/>
			<point x="363.23944" y="549.6413"/>
			<point x="357" y="565" type="curve" smooth="yes" identifier="39da96de-c590-4c4e-81a4-b4892a51a038"/>
			<point x="352.47336" y="576.1491"/>
			<point x="345.14294" y="585.9192"/>
			<point x="337.45197" y="595.1735" type="curve"/>
			<point x="329.76102" y="604.4278"/>
			<point x="321.59732" y="613.34973"/>
			<point x="315.02432" y="623.4289" type="curve"/>
			<point x="308.45132" y="633.508"/>
			<point x="303.47055" y="644.9762"/>
			<point x="303" y="657" type="curve" smooth="yes" identifier="a087850f-9bd6-4435-9131-832740ea9265"/>
			<point x="302.53336" y="668.86017"/>
			<point x="306.57687" y="680.7213"/>
			<point x="313.58102" y="690.3037" type="curve"/>
			<point x="320.58517" y="699.88617"/>
			<point x="330.43744" y="707.23065"/>
			<point x="341.3307" y="711.9443" type="curve"/>
			<point x="352.22394" y="716.65784"/>
			<point x="364.1323" y="718.8049"/>
			<point x="376" y="719" type="curve" smooth="yes" identifier="1ea0312b-1413-4957-84e0-16dabf9ac270"/>
			<point x="392.6063" y="719.2729"/>
			<point x="409.26508" y="715.73773"/>
			<point x="424.32434" y="708.73334" type="curve"/>
			<point x="439.3836" y="701.72894"/>
			<point x="452.8221" y="691.26416"/>
			<point x="463.29367" y="678.37274" type="curve"/>
			<point x="473.76523" y="665.4813"/>
			<point x="481.25443" y="650.18066"/>
			<point x="485" y="634" type="curve" smooth="yes" identifier="90e7cefc-5553-4df2-8678-cf444fdf2601"/>
			<point x="491.14404" y="607.4572"/>
			<point x="487.10043" y="579.22986"/>
			<point x="477.05402" y="553.9052" type="curve"/>
			<point x="467.0076" y="528.58057"/>
			<point x="451.2178" y="505.90036"/>
			<point x="433.68533" y="485.04654" type="curve"/>
			<point x="416.1529" y="464.19275"/>
			<point x="396.79" y="444.96124"/>
			<point x="378.4836" y="424.78342" type="curve"/>
			<point x="360.17722" y="404.60562"/>
			<point x="342.80487" y="383.29974"/>
			<point x="329.96313" y="359.27145" type="curve"/>
			<point x="317.12143" y="335.24316"/>
			<point x="308.94113" y="308.22403"/>
			<point x="310" y="281" type="curve" smooth="yes" identifier="7303819f-d741-4caa-b184-c406f9eea19b"/>
			<point x="310.76157" y="261.36954"/>
			<point x="316.2581" y="242.21515"/>
			<point x="323.03528" y="223.77594" type="curve"/>
			<point x="329.81247" y="205.33675"/>
			<point x="337.90485" y="187.38664"/>
			<point x="344.16858" y="168.76675" type="curve"/>
			<point x="350.43234" y="150.14688"/>
			<point x="354.87088" y="130.6259"/>
			<point x="354" y="111" type="curve" smooth="yes" identifier="ba5b61f6-794e-4857-b1ba-a47463ead00b"/>
			<point x="353.01526" y="88.75439"/>
			<point x="345.09207" y="66.97337"/>
			<point x="332.18848" y="48.82581" type="curve"/>
			<point x="319.28485" y="30.678247"/>
			<point x="301.50558" y="16.152086"/>
			<point x="281.48627" y="6.4020357" type="curve"/>
			<point x="261.46692" y="-3.348015"/>
			<point x="239.2586" y="-8.374058"/>
			<point x="217" y="-9" type="curve" smooth="yes" identifier="7d8c8483-4543-4947-b762-c69428500d3c"/>
		</contour>
	</outline>
</glyph>
<glyph name="Z" format="2">
	<unicode hex="005A"/>
	<outline>
		<contour identifier="7a2af4b1-e194-4113-a0d8-a9e62c3b37b5">
			<point x="26.310753" y="24.184849"/>
			<point x="16.115961" y="46.807934"/>
			<point x="11.414151" y="70.36073" type="curve"/>
			<point x="6.7123427" y="93.91353"/>
			<point x="7.3816705" y="118.37356"/>
			<point x="11.883698" y="141.96536" type="curve"/>
			<point x="16.385725" y="165.55716"/>
			<point x="24.66264" y="188.32097"/>
			<point x="35" y="210" type="curve" smooth="yes" identifier="9e231c1a-653a-4a1e-b9af-268957629f19"/>
			<point x="50.304485" y="242.11168"/>
			<point x="73.26841" y="277.03552"/>
			<point x="101.120865" y="309.73755" type="curve"/>
			<point x="128.97331" y="342.43958"/>
			<point x="161.45547" y="372.9038"/>
			<point x="191.43472" y="401.56992" type="curve"/>
			<point x="221.41396" y="430.23602"/>
			<point x="248.97755" y="457.942"/>
			<point x="264.0044" y="485.21902" type="curve"/>
			<point x="279.03125" y="512.49603"/>
			<point x="276.19888" y="539.3122"/>
			<point x="268" y="548" type="curve" smooth="yes" identifier="5d18a291-4c2f-4f07-8723-90262776c2cc"/>
			<point x="262.82623" y="553.4844"/>
			<point x="253.14084" y="557.1696"/>
			<point x="242.34273" y="556.18243" type="curve"/>
			<point x="231.54463" y="555.1952"/>
			<point x="220.09682" y="549.95514"/>
			<point x="209.36476" y="542.653" type="curve"/>
			<point x="198.6327" y="535.3509"/>
			<point x="188.37178" y="526.11646"/>
			<point x="177.5763" y="517.2777" type="curve"/>
			<point x="166.78079" y="508.43896"/>
			<point x="155.2953" y="499.9995"/>
			<point x="142.94003" y="493.94733" type="curve"/>
			<point x="130.58476" y="487.89514"/>
			<point x="117.393" y="484.3419"/>
			<point x="105" y="484" type="curve" smooth="yes" identifier="0ac2c8b7-c84e-46e5-a34c-88288e85fed5"/>
			<point x="86.54812" y="483.49106"/>
			<point x="67.54398" y="489.8896"/>
			<point x="52.24199" y="501.55942" type="curve"/>
			<point x="36.939987" y="513.2292"/>
			<point x="25.38087" y="529.99084"/>
			<point x="19.205303" y="548.4933" type="curve"/>
			<point x="13.029736" y="566.9957"/>
			<point x="12.167907" y="587.1413"/>
			<point x="16" y="606" type="curve" smooth="yes" identifier="272950eb-3b63-4b6e-9b48-3c6fbeb21755"/>
			<point x="19.353043" y="622.50116"/>
			<point x="26.270023" y="638.2311"/>
			<point x="35.86143" y="652.07074" type="curve"/>
			<point x="45.45284" y="665.9104"/>
			<point x="57.69554" y="677.865"/>
			<point x="71.550896" y="687.4337" type="curve"/>
			<point x="85.40624" y="697.0025"/>
			<point x="100.861115" y="704.1971"/>
			<point x="117" y="709" type="curve" smooth="yes" identifier="00f24073-afb8-48dd-a796-30842fedb4f6"/>
			<point x="146.87215" y="717.8903"/>
			<point x="178.58066" y="718.53314"/>
			<point x="209.70073" y="716.8231" type="curve"/>
			<point x="240.82082" y="715.1131"/>
			<point x="271.83322" y="711.1219"/>
			<point x="303" y="711" type="curve" smooth="yes" identifier="2dfb25cb-5583-47ce-ba1f-4790b6e1202b"/>
			<point x="327.117" y="710.90466"/>
			<point x="351.2454" y="713.13226"/>
			<point x="375.32742" y="711.8305" type="curve"/>
			<point x="399.4095" y="710.52875"/>
			<point x="423.95395" y="705.40875"/>
			<point x="444" y="692" type="curve" smooth="yes" identifier="072d9e8e-735e-443b-9b04-55c583f06e39"/>
			<point x="456.7909" y="683.4447"/>
			<point x="467.35892" y="671.7155"/>
			<point x="475.07404" y="658.401" type="curve"/>
			<point x="482.78918" y="645.0864"/>
			<point x="487.6854" y="630.21326"/>
			<point x="490" y="615" type="curve" smooth="yes" identifier="5f2563c3-5a11-4724-a608-986a50f96f3e"/>
			<point x="495.27902" y="580.3172"/>
			<point x="487.09158" y="544.4625"/>
			<point x="471.3527" y="513.1089" type="curve"/>
			<point x="455.61377" y="481.7552"/>
			<point x="432.64758" y="454.53644"/>
			<point x="407.57147" y="430.00165" type="curve"/>
			<point x="382.4954" y="405.46686"/>
			<point x="355.17493" y="383.35895"/>
			<point x="329" y="360" type="curve" smooth="yes" identifier="76a9ffa1-5c49-44c6-8b9b-6ca1fe148e78"/>
			<point x="307.44495" y="340.7669"/>
			<point x="283.1906" y="317.77606"/>
			<point x="261.50095" y="292.46713" type="curve"/>
			<point x="239.81131" y="267.1582"/>
			<point x="220.64757" y="239.00343"/>
			<point x="212.17409" y="211.38582" type="curve"/>
			<point x="203.7006" y="183.76819"/>
			<point x="209.2667" y="157.26392"/>
			<point x="220" y="146" type="curve" smooth="yes" identifier="3994b303-8260-418d-9707-7543cd0e6191"/>
			<point x="227.20372" y="138.44044"/>
			<point x="238.51692" y="133.75366"/>
			<point x="250.64703" y="133.24413" type="curve"/>
			<point x="262.77713" y="132.7346"/>
			<point x="275.52734" y="136.15155"/>
			<point x="287.5681" y="141.6573" type="curve"/>
			<point x="299.60892" y="147.16307"/>
			<point x="311.07477" y="154.65892"/>
			<point x="322.62012" y="162.10721" type="curve"/>
			<point x="334.16547" y="169.55548"/>
			<point x="345.92172" y="176.96812"/>
			<point x="358.3862" y="182.50647" type="curve"/>
			<point x="370.85068" y="188.04482"/>
			<point x="384.06488" y="191.6406"/>
			<point x="397" y="192" type="curve" smooth="yes" identifier="44a4f73c-300c-417e-8545-2ba75273508d"/>
			<point x="410.87042" y="192.38531"/>
			<point x="424.82013" y="189.11635"/>
			<point x="437.09836" y="182.65244" type="curve"/>
			<point x="449.3766" y="176.18854"/>
			<point x="459.95874" y="166.54846"/>
			<point x="467.5775" y="154.95143" type="curve"/>
			<point x="475.1963" y="143.3544"/>
			<point x="479.8401" y="129.82721"/>
			<point x="481" y="116" type="curve" smooth="yes" identifier="28c9ebcf-a557-4be0-aa7e-77a149b79e26"/>
			<point x="483.41824" y="87.17491"/>
			<point x="469.22415" y="51.73575"/>
			<point x="441.9783" y="24.860283" type="curve"/>
			<point x="414.73245" y="-2.0151813"/>
			<point x="376.3849" y="-20.763905"/>
			<point x="336.55283" y="-31.994898" type="curve"/>
			<point x="296.72073" y="-43.22589"/>
			<point x="255.24588" y="-47.629307"/>
			<point x="217" y="-49" type="curve" smooth="yes" identifier="888cbe94-aaf5-4173-8838-1d4a8369e0a0"/>
			<point x="185.36829" y="-50.1332"/>
			<point x="153.3435" y="-49.155533"/>
			<point x="122.70034" y="-41.22804" type="curve"/>
			<point x="92.05717" y="-33.300545"/>
			<point x="62.676086" y="-17.96557"/>
			<point x="42" y="6" type="curve" smooth="yes" identifier="c9fd1842-8bec-4793-ad7b-6670a5510680"/>
		</contour>
	</outline>
</glyph>
